SplineFontDB: 3.0
FontName: CinzelDecorative-Black
FullName: Cinzel Decorative Black
FamilyName: Cinzel Decorative Black
Weight: Black
Copyright: Copyright (c) 2012 Natanael Gama (info@ndiscovered.com), with Reserved Font Name 'Cinzel'
Version: 1.001;PS 001.001;hotconv 1.0.56;makeotf.lib2.0.21325
ItalicAngle: 0
UnderlinePosition: -50
UnderlineWidth: 50
Ascent: 800
Descent: 200
sfntRevision: 0x00010041
LayerCount: 2
Layer: 0 1 "Back"  1
Layer: 1 1 "Fore"  0
XUID: [1021 332 1274731884 11339976]
FSType: 0
OS2Version: 3
OS2_WeightWidthSlopeOnly: 0
OS2_UseTypoMetrics: 1
CreationTime: 1336740784
ModificationTime: 1349490216
PfmFamily: 81
TTFWeight: 900
TTFWidth: 5
LineGap: 0
VLineGap: 0
Panose: 0 0 10 0 0 0 0 0 0 0
OS2TypoAscent: 976
OS2TypoAOffset: 0
OS2TypoDescent: -372
OS2TypoDOffset: 0
OS2TypoLinegap: 0
OS2WinAscent: 976
OS2WinAOffset: 0
OS2WinDescent: 372
OS2WinDOffset: 0
HheadAscent: 976
HheadAOffset: 0
HheadDescent: -372
HheadDOffset: 0
OS2SubXSize: 650
OS2SubYSize: 600
OS2SubXOff: 0
OS2SubYOff: 75
OS2SupXSize: 650
OS2SupYSize: 600
OS2SupXOff: 0
OS2SupYOff: 350
OS2StrikeYSize: 50
OS2StrikeYPos: 300
OS2Vendor: 'UKWN'
OS2CodePages: 20000093.00000000
OS2UnicodeRanges: 00000007.00000000.00000000.00000000
Lookup: 258 0 0 "'kern' Horizontal Kerning lookup 0"  {"'kern' Horizontal Kerning lookup 0 per glyph data 0"  "'kern' Horizontal Kerning lookup 0 kerning class 1"  } ['kern' ('DFLT' <'dflt' > 'grek' <'dflt' > 'latn' <'dflt' > ) ]
DEI: 91125
KernClass2: 64+ 46 "'kern' Horizontal Kerning lookup 0 kerning class 1" 
 28 Tcedilla Tcaron Tbar uni021A
 73 U Ugrave Uacute Ucircumflex Udieresis Umacron Uring Uhungarumlaut Uogonek
 1 V
 4 nine
 37 W Wcircumflex Wgrave Wacute Wdieresis
 1 X
 37 Y Yacute Ycircumflex Ydieresis Ygrave
 49 comma period quotesinglbase quotedblbase ellipsis
 26 Z Zacute Zdotaccent Zcaron
 5 seven
 73 a agrave aacute acircumflex atilde adieresis aring amacron abreve aogonek
 1 b
 35 c ccedilla cacute cdotaccent ccaron
 4 five

StartChar: exclam
Encoding: 33 33 4
Width: 295
GlyphClass: 2
Flags: W
LayerCount: 2
Fore
SplineSet
227 363 m 1,0,-1
 182 230 l 1,1,-1
 112 230 l 1,2,-1
 67 363 l 1,3,-1
 45 702 l 1,4,-1
 250 702 l 1,5,-1
 227 363 l 1,0,-1
145.5 -14 m 128,-1,7
 108 -14 108 -14 81.5 12.5 c 128,-1,8
 55 39 55 39 55 76 c 128,-1,9
 55 113 55 113 81.5 139.5 c 128,-1,10
 108 166 108 166 145.5 166 c 128,-1,11
 183 166 183 166 209 139.5 c 128,-1,12
 235 113 235 113 235 76 c 128,-1,13
 235 39 235 39 209 12.5 c 128,-1,6
 183 -14 183 -14 145.5 -14 c 128,-1,7
EndSplineSet
EndChar

StartChar: quotedbl
Encoding: 34 34 5
Width: 394
GlyphClass: 2
Flags: W
LayerCount: 2
Fore
SplineSet
30 505 m 1,0,1
 64 590 64 590 64 643 c 0,2,3
 64 669 64 669 59 700 c 1,4,-1
 191 714 l 1,5,6
 191 710 191 710 191 698.5 c 128,-1,7
 191 687 191 687 185 660.5 c 128,-1,8
 179 634 179 634 164.5 601.5 c 128,-1,9
 150 569 150 569 119 540.5 c 128,-1,10
 88 512 88 512 47 500 c 1,11,-1
 30 505 l 1,0,1
204 505 m 1,12,13
 238 590 238 590 238 643 c 0,14,15
 238 669 238 669 233 700 c 1,16,-1
 364 714 l 1,17,18
 364 710 364 710 364 698.5 c 128,-1,19
 364 687 364 687 358.5 660.5 c 128,-1,20
 353 634 353 634 338 601.5 c 128,-1,21
 323 569 323 569 292.5 540.5 c 128,-1,22
 262 512 262 512 221 500 c 1,23,-1
 204 505 l 1,12,13
EndSplineSet
EndChar

StartChar: numbersign
Encoding: 35 35 6
Width: 600
GlyphClass: 2
Flags: W
LayerCount: 2
Fore
SplineSet
546 437 m 1,0,-1
 428 437 l 1,1,-1
 400 277 l 1,2,-1
 502 277 l 1,3,-1
 502 217 l 1,4,-1
 389 217 l 1,5,-1
 351 0 l 1,6,-1
 289 0 l 1,7,-1
 327 217 l 1,8,-1
 189 217 l 1,9,-1
 151 0 l 1,10,-1
 89 0 l 1,11,-1
 127 217 l 1,12,-1
 20 217 l 1,13,-1
 20 277 l 1,14,-1
 138 277 l 1,15,-1
 166 437 l 1,16,-1
 64 437 l 1,17,-1
 64 497 l 1,18,-1
 177 497 l 1,19,-1
 212 700 l 1,20,-1
 274 700 l 1,21,-1
 239 497 l 1,22,-1
 377 497 l 1,23,-1
 412 700 l 1,24,-1
 474 700 l 1,25,-1
 439 497 l 1,26,-1
 546 497 l 1,27,-1
 546 437 l 1,0,-1
338 277 m 1,28,-1
 366 437 l 1,29,-1
 228 437 l 1,30,-1
 200 277 l 1,31,-1
 338 277 l 1,28,-1
EndSplineSet
EndChar

StartChar: dollar
Encoding: 36 36 7
Width: 615
GlyphClass: 2
Flags: W
LayerCount: 2
Fore
SplineSet
521 54 m 128,-1,1
 446 -5 446 -5 321 -13 c 1,2,-1
 314 -102 l 1,3,-1
 266 -99 l 1,4,-1
 273 -14 l 1,5,6
 192 -13 192 -13 131.5 5 c 128,-1,7
 71 23 71 23 44 51 c 1,8,9
 35 73 35 73 35 98.5 c 128,-1,10
 35 124 35 124 39 148 c 0,11,12
 50 207 50 207 76 240 c 1,13,-1
 85 240 l 1,14,15
 84 234 84 234 84 227 c 0,16,17
 84 159 84 159 135 102 c 128,-1,18
 186 45 186 45 277 37 c 1,19,-1
 294 264 l 1,20,-1
 174 320 l 1,21,22
 105 351 105 351 74 407 c 0,23,24
 49 451 49 451 49 504 c 0,25,26
 49 612 49 612 122 668 c 0,27,28
 183 714 183 714 284 714 c 0,29,30
 301 714 301 714 328 713 c 1,31,-1
 334 788 l 1,32,-1
 382 787 l 1,33,-1
 376 710 l 1,34,35
 418 707 418 707 453 704 c 1,36,-1
 531 704 l 1,37,-1
 509 541 l 1,38,-1
 499 541 l 1,39,40
 499 616 499 616 426 648 c 0,41,42
 402 658 402 658 373 662 c 1,43,-1
 357 457 l 1,44,-1
 480 400 l 2,45,46
 596 347 596 347 596 230 c 128,-1,0
 596 113 596 113 521 54 c 128,-1,1
225.5 526 m 128,-1,48
 247 507 247 507 293 487 c 1,49,-1
 310 478 l 1,50,-1
 324 664 l 1,51,52
 252 659 252 659 221 621 c 0,53,54
 204 600 204 600 204 572.5 c 128,-1,47
 204 545 204 545 225.5 526 c 128,-1,48
341 243 m 1,55,-1
 325 37 l 1,56,57
 382 42 382 42 412.5 69.5 c 128,-1,58
 443 97 443 97 443 131 c 128,-1,59
 443 165 443 165 419 191 c 128,-1,60
 395 217 395 217 341 243 c 1,55,-1
EndSplineSet
EndChar

StartChar: percent
Encoding: 37 37 8
Width: 777
GlyphClass: 2
Flags: W
LayerCount: 2
Fore
SplineSet
363 642 m 1,0,1
 379 610 379 610 379 581.5 c 128,-1,2
 379 553 379 553 377 537 c 0,3,4
 368 454 368 454 312.5 407.5 c 128,-1,5
 257 361 257 361 171.5 361 c 128,-1,6
 86 361 86 361 48 410 c 0,7,8
 20 447 20 447 20 505 c 0,9,10
 20 614 20 614 89 670 c 0,11,12
 144 714 144 714 229 714 c 2,13,-1
 230 714 l 2,14,15
 232 714 232 714 249.5 714 c 128,-1,16
 267 714 267 714 294.5 707 c 128,-1,17
 322 700 322 700 336 691 c 0,18,19
 381 665 381 665 419 665 c 0,20,21
 461 665 461 665 523 698 c 0,22,23
 539 706 539 706 544 709 c 1,24,-1
 583 692 l 1,25,-1
 211 -19 l 1,26,-1
 166 0 l 1,27,-1
 512 653 l 1,28,29
 475 629 475 629 437 629 c 128,-1,30
 399 629 399 629 363 642 c 1,0,1
181.5 401.5 m 128,-1,32
 207 402 207 402 224.5 437.5 c 128,-1,33
 242 473 242 473 247.5 522 c 128,-1,34
 253 571 253 571 253 598 c 0,35,36
 253 674 253 674 225 674 c 128,-1,37
 197 674 197 674 177 611 c 0,38,39
 156 543 156 543 156 472 c 128,-1,31
 156 401 156 401 181.5 401.5 c 128,-1,32
450 295 m 1,40,41
 505 339 505 339 586 339 c 128,-1,42
 667 339 667 339 703 296 c 128,-1,43
 739 253 739 253 739 187 c 0,44,45
 739 86 739 86 679 36 c 128,-1,46
 619 -14 619 -14 533 -14 c 128,-1,47
 447 -14 447 -14 409 35 c 0,48,49
 381 72 381 72 381 129 c 0,50,51
 381 238 381 238 450 295 c 1,40,41
510 94 m 0,52,53
 510 26 510 26 537 26 c 0,54,55
 561 26 561 26 578.5 61.5 c 128,-1,56
 596 97 596 97 602 146.5 c 128,-1,57
 608 196 608 196 608 223 c 0,58,59
 608 299 608 299 579 299 c 0,60,61
 558 299 558 299 541.5 263 c 128,-1,62
 525 227 525 227 517.5 175 c 128,-1,63
 510 123 510 123 510 94 c 0,52,53
EndSplineSet
EndChar

StartChar: ampersand
Encoding: 38 38 9
Width: 918
GlyphClass: 2
Flags: W
LayerCount: 2
Fore
SplineSet
1219 -130 m 1,0,1
 1043 -199 1043 -199 860 -141 c 0,2,3
 768 -111 768 -111 692 -51 c 2,4,-1
 594 26 l 1,5,6
 508 -10 508 -10 413 -10 c 0,7,8
 315 -10 315 -10 218 17 c 0,9,10
 84 55 84 55 41 142 c 0,11,12
 25 175 25 175 25 214 c 128,-1,13
 25 253 25 253 39 284.5 c 128,-1,14
 53 316 53 316 77 338 c 0,15,16
 123 380 123 380 184 397 c 1,17,18
 141 467 141 467 141 524 c 128,-1,19
 141 581 141 581 164.5 618 c 128,-1,20
 188 655 188 655 228 675 c 0,21,22
 306 714 306 714 410 714 c 0,23,24
 481 714 481 714 541.5 696.5 c 128,-1,25
 602 679 602 679 625 643 c 1,26,-1
 578 480 l 1,27,-1
 569 480 l 1,28,29
 567 664 567 664 453 664 c 0,30,31
 408 664 408 664 379.5 636 c 128,-1,32
 351 608 351 608 351 559.5 c 128,-1,33
 351 511 351 511 392 461.5 c 128,-1,34
 433 412 433 412 509 347 c 128,-1,35
 585 282 585 282 709 179 c 1,36,37
 819 298 819 298 819 446 c 0,38,39
 819 485 819 485 808 536 c 128,-1,40
 797 587 797 587 750.5 654 c 128,-1,41
 704 721 704 721 627 780 c 1,42,-1
 634 786 l 1,43,44
 735 717 735 717 792 629 c 0,45,46
 858 525 858 525 858 414 c 0,47,48
 858 259 858 259 755 141 c 1,49,50
 763 134 763 134 792 108.5 c 128,-1,51
 821 83 821 83 839.5 67 c 128,-1,52
 858 51 858 51 892 23.5 c 128,-1,53
 926 -4 926 -4 949 -19 c 128,-1,54
 972 -34 972 -34 1007 -54 c 128,-1,55
 1042 -74 1042 -74 1072 -85 c 0,56,57
 1147 -112 1147 -112 1218 -119 c 1,58,-1
 1219 -130 l 1,0,1
246 317 m 1,59,60
 238 291 238 291 238 271 c 0,61,62
 238 104 238 104 372 61 c 0,63,64
 406 50 406 50 448.5 50 c 128,-1,65
 491 50 491 50 541 68 c 1,66,-1
 367 205 l 2,67,68
 293 264 293 264 246 317 c 1,59,60
EndSplineSet
EndChar

StartChar: quotesingle
Encoding: 39 39 10
Width: 220
GlyphClass: 2
Flags: W
LayerCount: 2
Fore
SplineSet
30 505 m 1,0,1
 64 590 64 590 64 643 c 0,2,3
 64 669 64 669 59 700 c 1,4,-1
 191 714 l 1,5,6
 191 710 191 710 191 698.5 c 128,-1,7
 191 687 191 687 185 660.5 c 128,-1,8
 179 634 179 634 164.5 601.5 c 128,-1,9
 150 569 150 569 119 540.5 c 128,-1,10
 88 512 88 512 47 500 c 1,11,-1
 30 505 l 1,0,1
EndSplineSet
EndChar

StartChar: parenleft
Encoding: 40 40 11
Width: 478
GlyphClass: 2
Flags: W
LayerCount: 2
Fore
SplineSet
290 354 m 0,0,1
 290 19 290 19 447 -91 c 1,2,-1
 441 -100 l 1,3,4
 351 -79 351 -79 282.5 -35 c 128,-1,5
 214 9 214 9 173 67 c 0,6,7
 90 183 90 183 90 334 c 0,8,9
 90 495 90 495 173 601 c 0,10,11
 261 712 261 712 443 732 c 1,12,-1
 449 724 l 1,13,14
 290 648 290 648 290 354 c 0,0,1
EndSplineSet
EndChar

StartChar: parenright
Encoding: 41 41 12
Width: 478
GlyphClass: 2
Flags: W
LayerCount: 2
Fore
SplineSet
32 -91 m 1,0,1
 189 19 189 19 189 354 c 0,2,3
 189 648 189 648 30 724 c 1,4,-1
 36 732 l 1,5,6
 218 712 218 712 305 601 c 0,7,8
 389 495 389 495 389 334 c 0,9,10
 389 183 389 183 306 67 c 0,11,12
 264 9 264 9 195.5 -35 c 128,-1,13
 127 -79 127 -79 38 -100 c 1,14,-1
 32 -91 l 1,0,1
EndSplineSet
EndChar

StartChar: asterisk
Encoding: 42 42 13
Width: 390
GlyphClass: 2
Flags: W
LayerCount: 2
Fore
SplineSet
202 605 m 1,0,-1
 269 574 l 1,1,-1
 328 516 l 1,2,-1
 293 474 l 1,3,-1
 242 454 l 1,4,-1
 204 527 l 1,5,-1
 195 600 l 1,6,-1
 187 527 l 1,7,-1
 150 454 l 1,8,-1
 99 474 l 1,9,-1
 64 516 l 1,10,-1
 122 574 l 1,11,-1
 188 605 l 1,12,-1
 116 591 l 1,13,-1
 35 604 l 1,14,-1
 38 658 l 1,15,-1
 68 704 l 1,16,-1
 141 667 l 1,17,-1
 191 614 l 1,18,-1
 156 678 l 1,19,-1
 142 759 l 1,20,-1
 195 773 l 1,21,-1
 248 759 l 1,22,-1
 236 678 l 1,23,-1
 200 613 l 1,24,-1
 250 667 l 1,25,-1
 323 705 l 1,26,-1
 353 659 l 1,27,-1
 356 604 l 1,28,-1
 274 591 l 1,29,-1
 202 605 l 1,0,-1
EndSplineSet
EndChar

StartChar: plus
Encoding: 43 43 14
Width: 481
GlyphClass: 2
Flags: W
LayerCount: 2
Fore
SplineSet
442 342 m 1,0,-1
 442 277 l 1,1,-1
 273 277 l 1,2,-1
 273 109 l 1,3,-1
 208 109 l 1,4,-1
 208 277 l 1,5,-1
 40 277 l 1,6,-1
 40 342 l 1,7,-1
 208 342 l 1,8,-1
 208 511 l 1,9,-1
 273 511 l 1,10,-1
 273 342 l 1,11,-1
 442 342 l 1,0,-1
EndSplineSet
EndChar

StartChar: comma
Encoding: 44 44 15
Width: 260
GlyphClass: 2
Flags: W
LayerCount: 2
Fore
SplineSet
41 -116 m 1,0,1
 71 -103 71 -103 82 -73 c 0,2,3
 86 -61 86 -61 86 -52 c 0,4,5
 86 -20 86 -20 60.5 9.5 c 128,-1,6
 35 39 35 39 35 76 c 0,7,8
 35 125 35 125 68 149 c 0,9,10
 90 166 90 166 111 166 c 0,11,12
 184 166 184 166 210 108 c 1,13,14
 225 71 225 71 225 35 c 128,-1,15
 225 -1 225 -1 209 -34 c 0,16,17
 175 -104 175 -104 113 -125 c 0,18,19
 92 -132 92 -132 75 -132 c 128,-1,20
 58 -132 58 -132 45 -129 c 1,21,-1
 41 -116 l 1,0,1
EndSplineSet
EndChar

StartChar: hyphen
Encoding: 45 45 16
Width: 380
GlyphClass: 2
Flags: W
LayerCount: 2
Fore
SplineSet
30 292 m 1,0,-1
 40 332 l 1,1,-1
 340 332 l 1,2,-1
 350 292 l 1,3,-1
 340 251 l 1,4,-1
 40 251 l 1,5,-1
 30 292 l 1,0,-1
EndSplineSet
EndChar

StartChar: period
Encoding: 46 46 17
Width: 250
GlyphClass: 2
Flags: W
LayerCount: 2
Fore
SplineSet
125 -14 m 128,-1,1
 88 -14 88 -14 61.5 12.5 c 128,-1,2
 35 39 35 39 35 76 c 128,-1,3
 35 113 35 113 61.5 139.5 c 128,-1,4
 88 166 88 166 125 166 c 128,-1,5
 162 166 162 166 188.5 139.5 c 128,-1,6
 215 113 215 113 215 76 c 128,-1,7
 215 39 215 39 188.5 12.5 c 128,-1,0
 162 -14 162 -14 125 -14 c 128,-1,1
EndSplineSet
EndChar

StartChar: slash
Encoding: 47 47 18
Width: 439
GlyphClass: 2
Flags: W
LayerCount: 2
Fore
SplineSet
10 14 m 1,0,-1
 371 723 l 1,1,-1
 430 696 l 1,2,-1
 69 -14 l 1,3,-1
 10 14 l 1,0,-1
EndSplineSet
EndChar

StartChar: zero
Encoding: 48 48 19
Width: 700
GlyphClass: 2
Flags: W
LayerCount: 2
Fore
SplineSet
350 614 m 128,-1,1
 496 614 496 614 578 531 c 128,-1,2
 660 448 660 448 660 300 c 128,-1,3
 660 152 660 152 578 69 c 128,-1,4
 496 -14 496 -14 350 -14 c 0,5,6
 253 -14 253 -14 183.5 23 c 128,-1,7
 114 60 114 60 77 131 c 128,-1,8
 40 202 40 202 40 300 c 0,9,10
 40 448 40 448 122 531 c 128,-1,0
 204 614 204 614 350 614 c 128,-1,1
350 564 m 128,-1,12
 303 564 303 564 276.5 494 c 128,-1,13
 250 424 250 424 250 321 c 128,-1,14
 250 218 250 218 262 158 c 0,15,16
 286 36 286 36 350 36 c 0,17,18
 397 36 397 36 423.5 106 c 128,-1,19
 450 176 450 176 450 300 c 128,-1,20
 450 424 450 424 423.5 494 c 128,-1,11
 397 564 397 564 350 564 c 128,-1,12
EndSplineSet
EndChar

StartChar: one
Encoding: 49 49 20
Width: 406
GlyphClass: 2
Flags: W
LayerCount: 2
Fore
SplineSet
46 10 m 2,0,1
 69 10 69 10 85 26 c 128,-1,2
 101 42 101 42 101 64 c 2,3,-1
 101 537 l 2,4,5
 101 567 101 567 74 583 c 0,6,7
 61 590 61 590 46 590 c 2,8,-1
 25 590 l 1,9,-1
 25 600 l 1,10,-1
 382 600 l 1,11,-1
 381 590 l 1,12,-1
 361 590 l 2,13,14
 329 590 329 590 313 564 c 0,15,16
 306 552 306 552 305 537 c 1,17,-1
 305 63 l 2,18,19
 305 33 305 33 333 17 c 0,20,21
 346 10 346 10 361 10 c 2,22,-1
 381 10 l 1,23,-1
 382 0 l 1,24,-1
 25 0 l 1,25,-1
 25 10 l 1,26,-1
 46 10 l 2,0,1
EndSplineSet
EndChar

StartChar: two
Encoding: 50 50 21
Width: 658
GlyphClass: 2
Flags: W
LayerCount: 2
Fore
SplineSet
144 616 m 128,-1,1
 216 635 216 635 294.5 635 c 128,-1,2
 373 635 373 635 437.5 613.5 c 128,-1,3
 502 592 502 592 540 550 c 128,-1,4
 578 508 578 508 578 451 c 0,5,6
 578 406 578 406 547 357 c 0,7,8
 530 329 530 329 470 281 c 0,9,10
 433 251 433 251 362.5 215 c 128,-1,11
 292 179 292 179 287 176 c 1,12,-1
 477 176 l 2,13,14
 521 176 521 176 554.5 199.5 c 128,-1,15
 588 223 588 223 614 273 c 1,16,-1
 624 273 l 1,17,-1
 556 0 l 1,18,-1
 36 0 l 1,19,-1
 36 9 l 1,20,21
 69 48 69 48 123 106 c 128,-1,22
 177 164 177 164 213.5 204.5 c 128,-1,23
 250 245 250 245 287 293 c 0,24,25
 363 391 363 391 363 474 c 0,26,27
 363 529 363 529 330.5 558.5 c 128,-1,28
 298 588 298 588 250 588 c 0,29,30
 176 588 176 588 141.5 535.5 c 128,-1,31
 107 483 107 483 107 392 c 1,32,-1
 97 392 l 1,33,-1
 30 563 l 1,34,0
 72 597 72 597 144 616 c 128,-1,1
EndSplineSet
EndChar

StartChar: three
Encoding: 51 51 22
Width: 602
GlyphClass: 2
Flags: W
LayerCount: 2
Fore
SplineSet
279 612 m 0,0,1
 399 612 399 612 466 567 c 128,-1,2
 533 522 533 522 533 440 c 0,3,4
 533 347 533 347 454 309 c 0,5,6
 428 296 428 296 398 295 c 1,7,8
 491 277 491 277 536 205 c 0,9,10
 562 163 562 163 562 100 c 0,11,12
 562 15 562 15 511 -49 c 0,13,14
 415 -170 415 -170 222 -170 c 0,15,16
 124 -170 124 -170 39 -132 c 1,17,-1
 41 -122 l 1,18,19
 46 -122 46 -122 52 -122 c 0,20,21
 127 -122 127 -122 194.5 -94.5 c 128,-1,22
 262 -67 262 -67 304.5 -11 c 128,-1,23
 347 45 347 45 347 116 c 0,24,25
 347 216 347 216 264 260 c 0,26,27
 219 283 219 283 162 284 c 1,28,-1
 164 294 l 1,29,30
 167 294 167 294 170 294 c 0,31,32
 236 294 236 294 282 340.5 c 128,-1,33
 328 387 328 387 328 448 c 0,34,35
 328 514 328 514 287 542 c 1,36,37
 259 563 259 563 220 563 c 0,38,39
 149 563 149 563 120 510 c 0,40,41
 97 467 97 467 97 385 c 0,42,43
 97 377 97 377 97 368 c 1,44,-1
 87 368 l 1,45,-1
 30 541 l 1,46,47
 69 573 69 573 134.5 592.5 c 128,-1,48
 200 612 200 612 279 612 c 0,0,1
EndSplineSet
EndChar

StartChar: four
Encoding: 52 52 23
Width: 643
GlyphClass: 2
Flags: W
LayerCount: 2
Fore
SplineSet
511 89 m 1,0,-1
 511 -37 l 2,1,2
 511 -67 511 -67 539 -83 c 0,3,4
 551 -90 551 -90 566 -90 c 2,5,-1
 577 -90 l 1,6,-1
 577 -100 l 1,7,-1
 239 -100 l 1,8,-1
 240 -90 l 1,9,-1
 250 -90 l 2,10,11
 273 -90 273 -90 289 -75 c 128,-1,12
 305 -60 305 -60 306 -38 c 1,13,-1
 306 89 l 1,14,-1
 -15 89 l 1,15,-1
 -15 99 l 1,16,-1
 501 614 l 1,17,-1
 511 614 l 1,18,-1
 511 194 l 1,19,-1
 554 194 l 2,20,21
 580 194 580 194 594.5 203.5 c 128,-1,22
 609 213 609 213 619 234 c 1,23,-1
 629 234 l 1,24,-1
 598 89 l 1,25,-1
 511 89 l 1,0,-1
306 194 m 1,26,-1
 306 341 l 1,27,-1
 154 194 l 1,28,-1
 306 194 l 1,26,-1
EndSplineSet
EndChar

StartChar: five
Encoding: 53 53 24
Width: 592
GlyphClass: 2
Flags: W
LayerCount: 2
Fore
SplineSet
152 324 m 1,0,1
 223 340 223 340 276 340 c 128,-1,2
 329 340 329 340 369 329 c 0,3,4
 456 305 456 305 498.5 245.5 c 128,-1,5
 541 186 541 186 541 108 c 0,6,7
 541 40 541 40 512 -12.5 c 128,-1,8
 483 -65 483 -65 439 -97 c 0,9,10
 336 -173 336 -173 195 -173 c 0,11,12
 89 -173 89 -173 10 -131 c 1,13,-1
 12 -121 l 1,14,15
 16 -121 16 -121 30.5 -121 c 128,-1,16
 45 -121 45 -121 79 -116 c 128,-1,17
 113 -111 113 -111 155.5 -96 c 128,-1,18
 198 -81 198 -81 233.5 -59 c 128,-1,19
 269 -37 269 -37 294 -2 c 0,20,21
 322 38 322 38 322 86.5 c 128,-1,22
 322 135 322 135 289 167 c 0,23,24
 253 201 253 201 192 201 c 128,-1,25
 131 201 131 201 59 174 c 1,26,-1
 50 180 l 1,27,-1
 133 564 l 1,28,-1
 431 589 l 1,29,30
 485 589 485 589 510 639 c 1,31,-1
 520 639 l 1,32,-1
 478 432 l 1,33,-1
 171 407 l 1,34,-1
 152 324 l 1,0,1
EndSplineSet
EndChar

StartChar: six
Encoding: 54 54 25
Width: 675
GlyphClass: 2
Flags: W
LayerCount: 2
Fore
SplineSet
334 419 m 128,-1,1
 359 438 359 438 388.5 445 c 128,-1,2
 418 452 418 452 435 452 c 0,3,4
 489 452 489 452 522 436 c 128,-1,5
 555 420 555 420 581 394 c 0,6,7
 635 341 635 341 635 240 c 0,8,9
 635 128 635 128 563 58 c 0,10,11
 487 -15 487 -15 336 -15 c 0,12,13
 40 -15 40 -15 40 315 c 0,14,15
 40 533 40 533 168 647 c 0,16,17
 273 741 273 741 461 741 c 0,18,19
 508 741 508 741 559 734 c 1,20,-1
 563 727 l 1,21,22
 473 699 473 699 434 676 c 128,-1,23
 395 653 395 653 373 637 c 128,-1,24
 351 621 351 621 335 600 c 128,-1,25
 319 579 319 579 307 560.5 c 128,-1,26
 295 542 295 542 287.5 516 c 128,-1,27
 280 490 280 490 275.5 468.5 c 128,-1,28
 271 447 271 447 268 415 c 1,29,30
 265 365 265 365 265 305 c 128,-1,31
 265 245 265 245 265.5 217 c 128,-1,32
 266 189 266 189 268.5 156 c 128,-1,33
 271 123 271 123 275.5 106.5 c 128,-1,34
 280 90 280 90 289 73 c 0,35,36
 304 45 304 45 336 45 c 128,-1,37
 368 45 368 45 386 58.5 c 128,-1,38
 404 72 404 72 414 98 c 0,39,40
 430 144 430 144 430 221 c 128,-1,41
 430 298 430 298 417 332 c 0,42,43
 399 381 399 381 353 381 c 0,44,45
 330 381 330 381 305 365 c 1,46,-1
 298 373 l 1,47,0
 309 400 309 400 334 419 c 128,-1,1
EndSplineSet
EndChar

StartChar: seven
Encoding: 55 55 26
Width: 572
GlyphClass: 2
Flags: W
LayerCount: 2
Fore
SplineSet
90 425 m 2,0,1
 61 425 61 425 44 410.5 c 128,-1,2
 27 396 27 396 15 365 c 1,3,-1
 5 365 l 1,4,-1
 33 598 l 1,5,-1
 563 598 l 1,6,-1
 435 303 l 2,7,8
 406 237 406 237 363 108 c 128,-1,9
 320 -21 320 -21 298 -100 c 1,10,-1
 128 -100 l 1,11,12
 177 -20 177 -20 252.5 115 c 128,-1,13
 328 250 328 250 358 314 c 2,14,-1
 410 425 l 1,15,-1
 90 425 l 2,0,1
EndSplineSet
EndChar

StartChar: eight
Encoding: 56 56 27
Width: 636
GlyphClass: 2
Flags: W
LayerCount: 2
Fore
SplineSet
611 200 m 0,0,1
 611 97 611 97 527 41.5 c 128,-1,2
 443 -14 443 -14 298 -14 c 0,3,4
 96 -14 96 -14 42 87 c 0,5,6
 25 119 25 119 25 159 c 0,7,8
 25 226 25 226 64 266 c 128,-1,9
 103 306 103 306 160 326 c 1,10,11
 68 398 68 398 68 500 c 128,-1,12
 68 602 68 602 137 658 c 128,-1,13
 206 714 206 714 311 714 c 128,-1,14
 416 714 416 714 489 666 c 128,-1,15
 562 618 562 618 562 544 c 0,16,17
 562 493 562 493 524.5 458.5 c 128,-1,18
 487 424 487 424 430 410 c 1,19,20
 547 349 547 349 578 306 c 0,21,22
 611 260 611 260 611 200 c 0,0,1
253 640 m 128,-1,24
 233 617 233 617 233 578 c 128,-1,25
 233 539 233 539 261 512 c 128,-1,26
 289 485 289 485 372 441 c 1,27,28
 396 486 396 486 396 547 c 0,29,30
 396 601 396 601 373 631 c 0,31,32
 349 663 349 663 311 663 c 128,-1,23
 273 663 273 663 253 640 c 128,-1,24
322 35 m 0,33,34
 361 35 361 35 394 58 c 128,-1,35
 427 81 427 81 427 117.5 c 128,-1,36
 427 154 427 154 393 185 c 128,-1,37
 359 216 359 216 294 249 c 128,-1,38
 229 282 229 282 217 289 c 1,39,40
 194 248 194 248 194 184 c 128,-1,41
 194 120 194 120 223 81 c 0,42,43
 257 35 257 35 322 35 c 0,33,34
EndSplineSet
EndChar

StartChar: nine
Encoding: 57 57 28
Width: 675
GlyphClass: 2
Flags: W
LayerCount: 2
Fore
SplineSet
341 177 m 128,-1,1
 316 158 316 158 286.5 151 c 128,-1,2
 257 144 257 144 240 144 c 0,3,4
 186 144 186 144 153 160 c 128,-1,5
 120 176 120 176 94 202 c 0,6,7
 40 255 40 255 40 357 c 0,8,9
 40 468 40 468 112 538 c 0,10,11
 188 611 188 611 339 611 c 0,12,13
 635 611 635 611 635 281 c 0,14,15
 635 63 635 63 506 -51 c 0,16,17
 402 -144 402 -144 214 -144 c 0,18,19
 167 -144 167 -144 116 -138 c 1,20,-1
 112 -131 l 1,21,22
 202 -103 202 -103 241 -80 c 128,-1,23
 280 -57 280 -57 302 -41 c 128,-1,24
 324 -25 324 -25 340 -4 c 128,-1,25
 356 17 356 17 368 35.5 c 128,-1,26
 380 54 380 54 387.5 80 c 128,-1,27
 395 106 395 106 399.5 127.5 c 128,-1,28
 404 149 404 149 406 181 c 0,29,30
 410 231 410 231 410 281 c 128,-1,31
 410 331 410 331 410 349.5 c 128,-1,32
 410 368 410 368 409 391.5 c 128,-1,33
 408 415 408 415 407 429.5 c 128,-1,34
 406 444 406 444 404 461.5 c 128,-1,35
 402 479 402 479 399 489 c 128,-1,36
 396 499 396 499 392 510.5 c 128,-1,37
 388 522 388 522 382.5 528.5 c 128,-1,38
 377 535 377 535 370 541 c 0,39,40
 357 551 357 551 332 551 c 128,-1,41
 307 551 307 551 288.5 537.5 c 128,-1,42
 270 524 270 524 261 498 c 0,43,44
 245 452 245 452 245 375.5 c 128,-1,45
 245 299 245 299 258 264 c 0,46,47
 277 215 277 215 322 215 c 0,48,49
 345 215 345 215 370 231 c 1,50,-1
 377 223 l 1,51,0
 366 196 366 196 341 177 c 128,-1,1
EndSplineSet
EndChar

StartChar: colon
Encoding: 58 58 29
Width: 250
GlyphClass: 2
Flags: W
LayerCount: 2
Fore
SplineSet
125 369 m 128,-1,1
 88 369 88 369 61.5 395 c 128,-1,2
 35 421 35 421 35 458.5 c 128,-1,3
 35 496 35 496 61.5 522.5 c 128,-1,4
 88 549 88 549 125 549 c 128,-1,5
 162 549 162 549 188.5 522.5 c 128,-1,6
 215 496 215 496 215 458.5 c 128,-1,7
 215 421 215 421 188.5 395 c 128,-1,0
 162 369 162 369 125 369 c 128,-1,1
125 -14 m 128,-1,9
 88 -14 88 -14 61.5 12.5 c 128,-1,10
 35 39 35 39 35 76 c 128,-1,11
 35 113 35 113 61.5 139.5 c 128,-1,12
 88 166 88 166 125 166 c 128,-1,13
 162 166 162 166 188.5 139.5 c 128,-1,14
 215 113 215 113 215 76 c 128,-1,15
 215 39 215 39 188.5 12.5 c 128,-1,8
 162 -14 162 -14 125 -14 c 128,-1,9
EndSplineSet
EndChar

StartChar: semicolon
Encoding: 59 59 30
Width: 260
GlyphClass: 2
Flags: W
LayerCount: 2
Fore
SplineSet
125 397 m 128,-1,1
 88 397 88 397 61.5 423.5 c 128,-1,2
 35 450 35 450 35 487.5 c 128,-1,3
 35 525 35 525 61.5 551 c 128,-1,4
 88 577 88 577 125 577 c 128,-1,5
 162 577 162 577 188.5 551 c 128,-1,6
 215 525 215 525 215 487.5 c 128,-1,7
 215 450 215 450 188.5 423.5 c 128,-1,0
 162 397 162 397 125 397 c 128,-1,1
41 -116 m 1,8,9
 71 -103 71 -103 82 -73 c 0,10,11
 86 -61 86 -61 86 -52 c 0,12,13
 86 -20 86 -20 60.5 9.5 c 128,-1,14
 35 39 35 39 35 76 c 0,15,16
 35 125 35 125 68 149 c 0,17,18
 90 166 90 166 111 166 c 0,19,20
 184 166 184 166 210 108 c 1,21,22
 225 71 225 71 225 35 c 128,-1,23
 225 -1 225 -1 209 -34 c 0,24,25
 175 -104 175 -104 113 -125 c 0,26,27
 92 -132 92 -132 75 -132 c 128,-1,28
 58 -132 58 -132 45 -129 c 1,29,-1
 41 -116 l 1,8,9
EndSplineSet
EndChar

StartChar: less
Encoding: 60 60 31
Width: 501
GlyphClass: 2
Flags: W
LayerCount: 2
Fore
SplineSet
442 526 m 1,0,-1
 442 455 l 1,1,-1
 133 310 l 1,2,-1
 442 164 l 1,3,-1
 442 93 l 1,4,-1
 40 280 l 1,5,-1
 40 339 l 1,6,-1
 442 526 l 1,0,-1
EndSplineSet
EndChar

StartChar: equal
Encoding: 61 61 32
Width: 481
GlyphClass: 2
Flags: W
LayerCount: 2
Fore
SplineSet
40 354 m 1,0,-1
 40 419 l 1,1,-1
 442 419 l 1,2,-1
 442 354 l 1,3,-1
 40 354 l 1,0,-1
40 179 m 1,4,-1
 40 244 l 1,5,-1
 442 244 l 1,6,-1
 442 179 l 1,7,-1
 40 179 l 1,4,-1
EndSplineSet
EndChar

StartChar: greater
Encoding: 62 62 33
Width: 481
GlyphClass: 2
Flags: W
LayerCount: 2
Fore
SplineSet
40 526 m 1,0,-1
 442 339 l 1,1,-1
 442 280 l 1,2,-1
 40 93 l 1,3,-1
 40 164 l 1,4,-1
 349 310 l 1,5,-1
 40 455 l 1,6,-1
 40 526 l 1,0,-1
EndSplineSet
EndChar

StartChar: question
Encoding: 63 63 34
Width: 493
GlyphClass: 2
Flags: W
LayerCount: 2
Fore
SplineSet
248 539 m 0,0,1
 248 664 248 664 157 664 c 0,2,3
 60 664 60 664 60 510 c 1,4,-1
 50 510 l 1,5,-1
 0 625 l 1,6,7
 23 665 23 665 81.5 689.5 c 128,-1,8
 140 714 140 714 221 714 c 0,9,10
 338 714 338 714 400.5 668 c 128,-1,11
 463 622 463 622 463 537 c 0,12,13
 463 479 463 479 430.5 438 c 128,-1,14
 398 397 398 397 316 337 c 0,15,16
 264 299 264 299 258 278 c 0,17,18
 250 251 250 251 265 221 c 1,19,-1
 256 215 l 1,20,21
 191 232 191 232 166 281 c 0,22,23
 155 302 155 302 155 317.5 c 128,-1,24
 155 333 155 333 156.5 347 c 128,-1,25
 158 361 158 361 169 379.5 c 128,-1,26
 180 398 180 398 193 412 c 128,-1,27
 206 426 206 426 219 442 c 0,28,29
 248 478 248 478 248 539 c 0,0,1
289 12.5 m 128,-1,31
 263 -14 263 -14 225.5 -14 c 128,-1,32
 188 -14 188 -14 161.5 12.5 c 128,-1,33
 135 39 135 39 135 76 c 128,-1,34
 135 113 135 113 161.5 139.5 c 128,-1,35
 188 166 188 166 225.5 166 c 128,-1,36
 263 166 263 166 289 139.5 c 128,-1,37
 315 113 315 113 315 76 c 128,-1,30
 315 39 315 39 289 12.5 c 128,-1,31
EndSplineSet
EndChar

StartChar: at
Encoding: 64 64 35
Width: 998
GlyphClass: 2
Flags: W
LayerCount: 2
Fore
SplineSet
84 114 m 0,0,1
 20 169 20 169 20 267 c 0,2,3
 20 325 20 325 47 395 c 1,4,5
 88 495 88 495 177 568 c 128,-1,6
 266 641 266 641 385 673 c 0,7,8
 463 694 463 694 525 694 c 0,9,10
 778 694 778 694 891 563 c 0,11,12
 974 466 974 466 974 327 c 0,13,14
 974 162 974 162 875 41.5 c 128,-1,15
 776 -79 776 -79 607 -115 c 0,16,17
 558 -126 558 -126 503 -126 c 0,18,19
 371 -126 371 -126 208 -63 c 1,20,-1
 204 -53 l 1,21,22
 311 -97 311 -97 406 -97 c 0,23,24
 532 -97 532 -97 631 -34 c 1,25,26
 713 20 713 20 762 113 c 1,27,28
 820 220 820 220 820 341 c 128,-1,29
 820 462 820 462 776 535 c 0,30,31
 726 619 726 619 625 642 c 1,32,33
 586 649 586 649 564 649 c 128,-1,34
 542 649 542 649 537 649 c 0,35,36
 450 647 450 647 355 582 c 0,37,38
 262 518 262 518 202 390 c 1,39,40
 150 282 150 282 150 199 c 0,41,42
 150 156 150 156 166 137.5 c 128,-1,43
 182 119 182 119 200 118 c 128,-1,44
 218 117 218 117 231.5 122 c 128,-1,45
 245 127 245 127 257 135 c 128,-1,46
 269 143 269 143 281.5 155 c 128,-1,47
 294 167 294 167 305 179.5 c 128,-1,48
 316 192 316 192 327.5 207.5 c 128,-1,49
 339 223 339 223 349 236 c 0,50,51
 374 272 374 272 389 291 c 2,52,-1
 516 464 l 1,53,54
 562 521 562 521 571 541 c 1,55,-1
 577 541 l 1,56,-1
 661 137 l 2,57,58
 670 90 670 90 701 90 c 2,59,-1
 706 90 l 1,60,-1
 704 83 l 1,61,-1
 466 83 l 1,62,-1
 467 90 l 1,63,-1
 474 90 l 2,64,65
 489 90 489 90 502.5 102 c 128,-1,66
 516 114 516 114 516 123.5 c 128,-1,67
 516 133 516 133 515 137 c 2,68,-1
 507 190 l 1,69,-1
 371 190 l 1,70,71
 323 128 323 128 286 101 c 0,72,73
 246 73 246 73 189 73 c 128,-1,74
 132 73 132 73 84 114 c 0,0,1
483 346 m 1,75,-1
 398 225 l 1,76,-1
 502 225 l 1,77,-1
 483 346 l 1,75,-1
EndSplineSet
EndChar

StartChar: A
Encoding: 65 65 36
Width: 702
GlyphClass: 2
Flags: W
LayerCount: 2
Fore
SplineSet
978 -171 m 1,0,1
 901 -216 901 -216 821 -216 c 128,-1,2
 741 -216 741 -216 669.5 -186 c 128,-1,3
 598 -156 598 -156 529.5 -81.5 c 128,-1,4
 461 -7 461 -7 417 100 c 2,5,-1
 390 166 l 1,6,-1
 176 166 l 1,7,-1
 136 73 l 2,8,9
 131 60 131 60 131 52 c 128,-1,10
 131 44 131 44 134.5 34.5 c 128,-1,11
 138 25 138 25 149.5 17.5 c 128,-1,12
 161 10 161 10 174 10 c 2,13,-1
 183 10 l 1,14,-1
 183 0 l 1,15,-1
 -40 0 l 1,16,-1
 -40 10 l 1,17,-1
 -31 10 l 2,18,19
 -8 10 -8 10 14.5 23.5 c 128,-1,20
 37 37 37 37 52 64 c 1,21,-1
 256 512 l 1,22,23
 226 595 226 595 206.5 623.5 c 128,-1,24
 187 652 187 652 174 667 c 0,25,26
 150 695 150 695 114 708 c 0,27,28
 100 713 100 713 81 713 c 128,-1,29
 62 713 62 713 38 704 c 1,30,-1
 36 714 l 1,31,32
 116 761 116 761 189 761 c 0,33,34
 297 761 297 761 384 655 c 0,35,36
 428 600 428 600 463 522 c 2,37,-1
 623 155 l 2,38,39
 667 54 667 54 688 19.5 c 128,-1,40
 709 -15 709 -15 725.5 -39.5 c 128,-1,41
 742 -64 742 -64 758 -82 c 128,-1,42
 774 -100 774 -100 793 -117 c 0,43,44
 826 -147 826 -147 876 -162 c 0,45,46
 897 -169 897 -169 922.5 -169 c 128,-1,47
 948 -169 948 -169 976 -161 c 1,48,-1
 978 -171 l 1,0,1
198 216 m 1,49,-1
 370 216 l 1,50,-1
 307 371 l 2,51,52
 299 389 299 389 288 422 c 1,53,-1
 198 216 l 1,49,-1
EndSplineSet
EndChar

StartChar: B
Encoding: 66 66 37
Width: 755
GlyphClass: 2
Flags: W
LayerCount: 2
Fore
SplineSet
401 -16 m 0,0,1
 -10 -16 -10 -16 -10 321 c 0,2,3
 -10 350 -10 350 -7 380 c 1,4,-1
 3 381 l 1,5,6
 3 195 3 195 126 103 c 1,7,-1
 126 628 l 1,8,9
 125 655 125 655 106 672.5 c 128,-1,10
 87 690 87 690 62 690 c 2,11,-1
 49 690 l 1,12,-1
 49 700 l 1,13,-1
 357 700 l 2,14,15
 527 700 527 700 607 623 c 0,16,17
 650 581 650 581 650 522 c 0,18,19
 650 457 650 457 607 413 c 1,20,21
 588 392 588 392 564 383 c 1,22,23
 569 383 569 383 574 383 c 0,24,25
 642 383 642 383 699 336 c 128,-1,26
 756 289 756 289 756 209 c 128,-1,27
 756 129 756 129 699 76 c 0,28,29
 602 -16 602 -16 401 -16 c 0,0,1
435 486 m 2,30,-1
 435 516 l 1,31,32
 432 581 432 581 409 613 c 128,-1,33
 386 645 386 645 331 649 c 1,34,-1
 331 38 l 1,35,36
 421 39 421 39 471 86.5 c 128,-1,37
 521 134 521 134 521 211 c 0,38,39
 521 296 521 296 474 334 c 128,-1,40
 427 372 427 372 365 372 c 1,41,-1
 365 381 l 1,42,43
 386 381 386 381 400.5 392.5 c 128,-1,44
 415 404 415 404 422 421 c 0,45,46
 435 458 435 458 435 486 c 2,30,-1
EndSplineSet
EndChar

StartChar: C
Encoding: 67 67 38
Width: 830
GlyphClass: 2
Flags: W
LayerCount: 2
Fore
SplineSet
815 402 m 1,0,1
 821 362 821 362 821 317 c 128,-1,2
 821 272 821 272 809 224 c 0,3,4
 771 73 771 73 628 14 c 0,5,6
 560 -14 560 -14 478 -14 c 0,7,8
 253 -14 253 -14 131.5 84 c 128,-1,9
 10 182 10 182 10 348.5 c 128,-1,10
 10 515 10 515 136 614.5 c 128,-1,11
 262 714 262 714 478 714 c 0,12,13
 628 714 628 714 736 668 c 1,14,-1
 726 477 l 1,15,-1
 717 477 l 1,16,17
 665 664 665 664 483 664 c 0,18,19
 362 664 362 664 296 582.5 c 128,-1,20
 230 501 230 501 230 357 c 128,-1,21
 230 213 230 213 299 126.5 c 128,-1,22
 368 40 368 40 498 36 c 1,23,24
 641 36 641 36 724 128.5 c 128,-1,25
 807 221 807 221 807 378 c 0,26,27
 807 390 807 390 807 402 c 1,28,-1
 815 402 l 1,0,1
EndSplineSet
EndChar

StartChar: D
Encoding: 68 68 39
Width: 878
GlyphClass: 2
Flags: W
LayerCount: 2
Fore
SplineSet
445 0 m 2,0,-1
 66 0 l 1,1,-1
 66 10 l 1,2,-1
 79 10 l 2,3,4
 105 10 105 10 123.5 28.5 c 128,-1,5
 142 47 142 47 143 73 c 1,6,-1
 143 644 l 1,7,8
 38 633 38 633 -16 585 c 0,9,10
 -62 544 -62 544 -90 480 c 1,11,-1
 -100 484 l 1,12,13
 -80 592 -80 592 3.5 646 c 128,-1,14
 87 700 87 700 213 700 c 2,15,-1
 445 700 l 2,16,17
 633 700 633 700 738.5 607.5 c 128,-1,18
 844 515 844 515 844 350 c 128,-1,19
 844 185 844 185 738 92.5 c 128,-1,20
 632 0 632 0 445 0 c 2,0,-1
348 50 m 1,21,-1
 425 50 l 1,22,23
 425 50 425 50 425 50 c 1,24,25
 518 50 518 50 571 129.5 c 128,-1,26
 624 209 624 209 624 350 c 128,-1,27
 624 491 624 491 571 570.5 c 128,-1,28
 518 650 518 650 425 650 c 1,29,-1
 348 648 l 1,30,-1
 348 50 l 1,21,-1
EndSplineSet
EndChar

StartChar: E
Encoding: 69 69 40
Width: 712
GlyphClass: 2
Flags: W
LayerCount: 2
Fore
SplineSet
43 10 m 2,0,1
 69 10 69 10 87.5 28.5 c 128,-1,2
 106 47 106 47 107 73 c 1,3,-1
 107 627 l 1,4,5
 106 659 106 659 80 678 c 0,6,7
 64 690 64 690 43 690 c 2,8,-1
 30 690 l 1,9,-1
 30 700 l 1,10,-1
 363 700 l 2,11,12
 406 700 406 700 439.5 707 c 128,-1,13
 473 714 473 714 482 718 c 1,14,-1
 482 512 l 1,15,-1
 472 512 l 1,16,-1
 472 520 l 2,17,18
 472 579 472 579 439 613 c 128,-1,19
 406 647 406 647 347 649 c 1,20,-1
 312 649 l 1,21,-1
 312 370 l 1,22,-1
 451 370 l 1,23,24
 499 371 499 371 529 401.5 c 128,-1,25
 559 432 559 432 559 480 c 2,26,-1
 559 484 l 1,27,-1
 569 484 l 1,28,-1
 569 206 l 1,29,-1
 559 206 l 1,30,-1
 559 211 l 2,31,32
 559 258 559 258 529 288.5 c 128,-1,33
 499 319 499 319 452 320 c 1,34,-1
 312 320 l 1,35,-1
 312 51 l 1,36,-1
 495 51 l 2,37,38
 568 51 568 51 624 99 c 128,-1,39
 680 147 680 147 703 232 c 1,40,-1
 713 232 l 1,41,-1
 675 0 l 1,42,-1
 30 0 l 1,43,-1
 30 10 l 1,44,-1
 43 10 l 2,0,1
EndSplineSet
EndChar

StartChar: F
Encoding: 70 70 41
Width: 709
GlyphClass: 2
Flags: W
LayerCount: 2
Fore
SplineSet
312 320 m 1,0,-1
 312 73 l 2,1,2
 312 47 312 47 331 28.5 c 128,-1,3
 350 10 350 10 376 10 c 2,4,-1
 389 10 l 1,5,-1
 389 0 l 1,6,-1
 30 0 l 1,7,-1
 30 10 l 1,8,-1
 43 10 l 2,9,10
 69 10 69 10 87.5 28.5 c 128,-1,11
 106 47 106 47 107 73 c 1,12,-1
 107 627 l 1,13,14
 106 654 106 654 87.5 672 c 128,-1,15
 69 690 69 690 43 690 c 2,16,-1
 30 690 l 1,17,-1
 30 700 l 1,18,-1
 473 700 l 2,19,20
 504 700 504 700 540.5 706 c 128,-1,21
 577 712 577 712 592 718 c 1,22,-1
 592 512 l 1,23,-1
 582 512 l 1,24,-1
 582 520 l 2,25,26
 582 579 582 579 549 613 c 128,-1,27
 516 647 516 647 457 649 c 1,28,-1
 312 649 l 1,29,-1
 312 370 l 1,30,-1
 581 370 l 1,31,32
 629 371 629 371 659 401.5 c 128,-1,33
 689 432 689 432 689 480 c 2,34,-1
 689 484 l 1,35,-1
 699 484 l 1,36,-1
 699 206 l 1,37,-1
 689 206 l 1,38,-1
 689 211 l 2,39,40
 689 258 689 258 659 288.5 c 128,-1,41
 629 319 629 319 582 320 c 1,42,-1
 312 320 l 1,0,-1
EndSplineSet
EndChar

StartChar: G
Encoding: 71 71 42
Width: 872
GlyphClass: 2
Flags: W
LayerCount: 2
Fore
SplineSet
947 -212 m 0,0,1
 923 -212 923 -212 899 -209 c 0,2,3
 799 -193 799 -193 726 -134 c 128,-1,4
 653 -75 653 -75 617 13 c 1,5,6
 530 -14 530 -14 434 -14 c 0,7,8
 245 -14 245 -14 127.5 86.5 c 128,-1,9
 10 187 10 187 10 351 c 128,-1,10
 10 515 10 515 130 614.5 c 128,-1,11
 250 714 250 714 446 714 c 0,12,13
 559 714 559 714 666 691 c 0,14,15
 714 681 714 681 744 669 c 1,16,-1
 734 477 l 1,17,-1
 725 477 l 1,18,19
 701 571 701 571 630.5 617.5 c 128,-1,20
 560 664 560 664 460 664 c 128,-1,21
 360 664 360 664 295 576 c 128,-1,22
 230 488 230 488 230 344 c 0,23,24
 230 253 230 253 258 183 c 128,-1,25
 286 113 286 113 338 74.5 c 128,-1,26
 390 36 390 36 453.5 36 c 128,-1,27
 517 36 517 36 553.5 65.5 c 128,-1,28
 590 95 590 95 590 143 c 2,29,-1
 590 279 l 1,30,31
 591 301 591 301 577.5 313 c 128,-1,32
 564 325 564 325 539 325 c 2,33,-1
 524 325 l 1,34,-1
 524 335 l 1,35,-1
 860 335 l 1,36,-1
 860 325 l 1,37,-1
 844 325 l 2,38,39
 820 325 820 325 807 313 c 128,-1,40
 794 301 794 301 795 279 c 1,41,-1
 795 117 l 2,42,43
 795 59 795 59 818 2 c 0,44,45
 870 -124 870 -124 984 -160 c 0,46,47
 1017 -170 1017 -170 1050 -170 c 128,-1,48
 1083 -170 1083 -170 1115 -163 c 1,49,-1
 1117 -173 l 1,50,51
 1027 -212 1027 -212 947 -212 c 0,0,1
EndSplineSet
EndChar

StartChar: H
Encoding: 72 72 43
Width: 893
GlyphClass: 2
Flags: W
LayerCount: 2
Fore
SplineSet
515 10 m 2,0,1
 542 10 542 10 560.5 28.5 c 128,-1,2
 579 47 579 47 580 73 c 1,3,-1
 580 325 l 1,4,-1
 312 325 l 1,5,-1
 312 70 l 2,6,7
 312 -29 312 -29 264 -106 c 0,8,9
 214 -187 214 -187 105 -199 c 0,10,11
 94 -201 94 -201 81 -201 c 0,12,13
 34 -201 34 -201 -24 -182 c 1,14,-1
 -24 -172 l 1,15,16
 56 -141 56 -141 82 -86 c 0,17,18
 100 -49 100 -49 103 -19 c 0,19,20
 107 20 107 20 107 70 c 2,21,-1
 107 628 l 1,22,23
 106 654 106 654 87.5 672 c 128,-1,24
 69 690 69 690 43 690 c 2,25,-1
 30 690 l 1,26,-1
 30 700 l 1,27,-1
 389 700 l 1,28,-1
 389 690 l 1,29,-1
 376 690 l 2,30,31
 340 690 340 690 322 660 c 0,32,33
 313 646 313 646 312 629 c 1,34,-1
 312 375 l 1,35,-1
 580 375 l 1,36,-1
 580 610 l 2,37,38
 580 667 580 667 604 720 c 128,-1,39
 628 773 628 773 672 811 c 0,40,41
 741 872 741 872 836 872 c 0,42,43
 873 872 873 872 914 862 c 1,44,-1
 914 852 l 1,45,46
 866 837 866 837 832 803 c 0,47,48
 811 783 811 783 795 731 c 0,49,50
 787 705 787 705 786 671.5 c 128,-1,51
 785 638 785 638 785 610 c 2,52,-1
 785 73 l 2,53,54
 785 38 785 38 816 19 c 0,55,56
 831 10 831 10 849 10 c 2,57,-1
 861 10 l 1,58,-1
 861 0 l 1,59,-1
 503 0 l 1,60,-1
 503 10 l 1,61,-1
 515 10 l 2,0,1
EndSplineSet
EndChar

StartChar: I
Encoding: 73 73 44
Width: 498
GlyphClass: 2
Flags: W
LayerCount: 2
Fore
SplineSet
456 10 m 2,0,-1
 469 10 l 1,1,-1
 469 0 l 1,2,-1
 110 0 l 1,3,-1
 110 10 l 1,4,-1
 123 10 l 2,5,6
 149 10 149 10 167.5 28.5 c 128,-1,7
 186 47 186 47 187 73 c 1,8,-1
 187 650 l 1,9,-1
 100 647 l 2,10,11
 16 644 16 644 10 585 c 0,12,13
 10 582 10 582 10 579 c 0,14,15
 10 551 10 551 29 534 c 128,-1,16
 48 517 48 517 77 517 c 0,17,18
 83 517 83 517 89 517 c 1,19,-1
 89 511 l 1,20,21
 67 499 67 499 45.5 499 c 128,-1,22
 24 499 24 499 2 512 c 0,23,24
 -40 537 -40 537 -40 586 c 0,25,26
 -40 632 -40 632 -4 662.5 c 128,-1,27
 32 693 32 693 109 696 c 0,28,29
 120 697 120 697 179.5 699 c 128,-1,30
 239 701 239 701 282 702 c 1,31,32
 406 708 406 708 469 720 c 1,33,-1
 471 710 l 1,34,35
 415 701 415 701 400 662 c 0,36,37
 393 643 393 643 392 614 c 1,38,-1
 392 73 l 2,39,40
 392 47 392 47 411 28.5 c 128,-1,41
 430 10 430 10 456 10 c 2,0,-1
EndSplineSet
EndChar

StartChar: J
Encoding: 74 74 45
Width: 424
GlyphClass: 2
Flags: W
LayerCount: 2
Fore
SplineSet
381 690 m 2,0,1
 345 690 345 690 326 659 c 0,2,3
 318 645 318 645 317 627 c 1,4,-1
 317 80 l 2,5,6
 317 0 317 0 291.5 -67 c 128,-1,7
 266 -134 266 -134 216 -177 c 0,8,9
 165 -220 165 -220 91.5 -220 c 128,-1,10
 18 -220 18 -220 -75 -170 c 1,11,-1
 -73 -161 l 1,12,13
 -57 -164 -57 -164 -41 -164 c 128,-1,14
 -25 -164 -25 -164 -3.5 -159.5 c 128,-1,15
 18 -155 18 -155 37 -141.5 c 128,-1,16
 56 -128 56 -128 70 -106 c 128,-1,17
 84 -84 84 -84 92 -61.5 c 128,-1,18
 100 -39 100 -39 104 -12 c 0,19,20
 112 32 112 32 112 83 c 2,21,-1
 112 627 l 1,22,23
 111 653 111 653 92.5 671.5 c 128,-1,24
 74 690 74 690 48 690 c 2,25,-1
 35 690 l 1,26,-1
 35 700 l 1,27,-1
 394 700 l 1,28,-1
 394 690 l 1,29,-1
 381 690 l 2,0,1
EndSplineSet
EndChar

StartChar: K
Encoding: 75 75 46
Width: 822
GlyphClass: 2
Flags: W
LayerCount: 2
Fore
SplineSet
43 10 m 2,0,1
 69 10 69 10 87.5 28.5 c 128,-1,2
 106 47 106 47 107 73 c 1,3,-1
 107 628 l 1,4,5
 106 654 106 654 87.5 672 c 128,-1,6
 69 690 69 690 43 690 c 2,7,-1
 30 690 l 1,8,-1
 30 700 l 1,9,-1
 389 700 l 1,10,-1
 389 690 l 1,11,-1
 376 690 l 2,12,13
 350 690 350 690 331.5 672 c 128,-1,14
 313 654 313 654 312 628 c 1,15,-1
 312 73 l 2,16,17
 312 47 312 47 331 28.5 c 128,-1,18
 350 10 350 10 376 10 c 2,19,-1
 389 10 l 1,20,-1
 389 0 l 1,21,-1
 30 0 l 1,22,-1
 30 10 l 1,23,-1
 43 10 l 2,0,1
1105 -177 m 1,24,25
 1006 -233 1006 -233 914 -233 c 0,26,27
 784 -233 784 -233 659 -103 c 0,28,29
 613 -55 613 -55 564 13 c 2,30,-1
 344 318 l 1,31,-1
 583 644 l 2,32,33
 590 654 590 654 590 662 c 128,-1,34
 590 670 590 670 587 676 c 0,35,36
 580 691 580 691 559 691 c 2,37,-1
 549 691 l 1,38,-1
 549 700 l 1,39,-1
 790 700 l 1,40,-1
 790 691 l 1,41,-1
 786 691 l 2,42,43
 719 691 719 691 676 642 c 1,44,-1
 505 435 l 1,45,-1
 734 113 l 2,46,47
 843 -40 843 -40 921.5 -99 c 128,-1,48
 1000 -158 1000 -158 1103 -166 c 1,49,-1
 1105 -177 l 1,24,25
EndSplineSet
EndChar

StartChar: L
Encoding: 76 76 47
Width: 445
GlyphClass: 2
Flags: W
LayerCount: 2
Fore
SplineSet
914 -133 m 0,0,1
 1039 -133 1039 -133 1087 -90 c 1,2,-1
 1095 -97 l 1,3,4
 1051 -192 1051 -192 969 -238 c 0,5,6
 918 -266 918 -266 819 -266 c 0,7,8
 809 -266 809 -266 784.5 -265 c 128,-1,9
 760 -264 760 -264 705.5 -248.5 c 128,-1,10
 651 -233 651 -233 614 -220.5 c 128,-1,11
 577 -208 577 -208 521 -182 c 0,12,13
 451 -149 451 -149 387 -115.5 c 128,-1,14
 323 -82 323 -82 293.5 -67 c 128,-1,15
 264 -52 264 -52 232 -38.5 c 128,-1,16
 200 -25 200 -25 144 -12.5 c 128,-1,17
 88 0 88 0 30 0 c 1,18,-1
 30 10 l 1,19,-1
 43 10 l 2,20,21
 79 10 79 10 98 41 c 0,22,23
 106 55 106 55 107 73 c 1,24,-1
 107 627 l 1,25,26
 106 664 106 664 74 682 c 0,27,28
 60 690 60 690 43 690 c 2,29,-1
 30 690 l 1,30,-1
 30 700 l 1,31,-1
 389 700 l 1,32,-1
 389 690 l 1,33,-1
 380 690 l 2,34,35
 351 690 351 690 332 672 c 128,-1,36
 313 654 313 654 312 627 c 1,37,-1
 312 45 l 2,38,39
 312 -2 312 -2 350 -14 c 0,40,41
 737 -133 737 -133 914 -133 c 0,0,1
EndSplineSet
EndChar

StartChar: M
Encoding: 77 77 48
Width: 993
GlyphClass: 2
Flags: W
LayerCount: 2
Fore
SplineSet
-115 746 m 1,0,1
 -44 784 -44 784 24.5 784 c 128,-1,2
 93 784 93 784 150 755 c 0,3,4
 264 696 264 696 345 562 c 1,5,-1
 524 271 l 1,6,-1
 821 714 l 1,7,-1
 830 714 l 1,8,-1
 943 129 l 2,9,10
 977 -51 977 -51 1044 -121 c 0,11,12
 1097 -176 1097 -176 1179 -176 c 0,13,14
 1186 -176 1186 -176 1194 -176 c 1,15,-1
 1194 -186 l 1,16,17
 1132 -212 1132 -212 1065 -212 c 0,18,19
 932 -212 932 -212 834 -108 c 0,20,21
 752 -22 752 -22 719 135 c 1,22,-1
 673 346 l 1,23,-1
 502 92 l 2,24,25
 485 68 485 68 472 34 c 128,-1,26
 459 0 459 0 460 -24 c 1,27,-1
 451 -24 l 1,28,-1
 208 392 l 1,29,-1
 158 56 l 1,30,-1
 158 52 l 2,31,32
 158 36 158 36 169.5 22.5 c 128,-1,33
 181 9 181 9 197 9 c 2,34,-1
 212 9 l 1,35,-1
 212 0 l 1,36,-1
 -7 0 l 1,37,-1
 -7 10 l 1,38,-1
 9 10 l 2,39,40
 36 10 36 10 56.5 26.5 c 128,-1,41
 77 43 77 43 82 71 c 2,42,-1
 151 500 l 1,43,44
 100 589 100 589 38 658 c 0,45,46
 -33 736 -33 736 -104 736 c 0,47,48
 -108 736 -108 736 -112 736 c 1,49,-1
 -115 746 l 1,0,1
EndSplineSet
EndChar

StartChar: N
Encoding: 78 78 49
Width: 881
GlyphClass: 2
Flags: W
LayerCount: 2
Fore
SplineSet
1141 -135 m 1,0,1
 1080 -173 1080 -173 1009 -173 c 0,2,3
 947 -173 947 -173 880 -136 c 0,4,5
 811 -99 811 -99 745 -31 c 2,6,-1
 306 423 l 1,7,-1
 306 71 l 2,8,9
 306 45 306 45 324 27.5 c 128,-1,10
 342 10 342 10 367 10 c 2,11,-1
 386 10 l 1,12,-1
 386 0 l 1,13,-1
 20 0 l 1,14,-1
 20 10 l 1,15,-1
 39 10 l 2,16,17
 64 10 64 10 82 27.5 c 128,-1,18
 100 45 100 45 100 71 c 2,19,-1
 100 637 l 1,20,21
 -54 801 -54 801 -170 801 c 0,22,23
 -199 801 -199 801 -226 791 c 1,24,-1
 -231 800 l 1,25,26
 -175 840 -175 840 -110 840 c 0,27,28
 -67 840 -67 840 -22.5 823.5 c 128,-1,29
 22 807 22 807 55 786 c 0,30,31
 117 745 117 745 165 696 c 2,32,-1
 576 271 l 1,33,-1
 576 629 l 1,34,35
 575 655 575 655 557 672.5 c 128,-1,36
 539 690 539 690 514 690 c 2,37,-1
 495 690 l 1,38,-1
 495 700 l 1,39,-1
 861 700 l 1,40,-1
 861 690 l 1,41,-1
 843 690 l 2,42,43
 818 690 818 690 800 672.5 c 128,-1,44
 782 655 782 655 781 630 c 1,45,-1
 781 59 l 1,46,-1
 799 40 l 1,47,48
 799 40 799 40 822.5 15 c 128,-1,49
 846 -10 846 -10 854.5 -18 c 128,-1,50
 863 -26 863 -26 889 -49.5 c 128,-1,51
 915 -73 915 -73 931 -82.5 c 128,-1,52
 947 -92 947 -92 975 -107.5 c 128,-1,53
 1003 -123 1003 -123 1026 -127 c 1,54,55
 1052 -133 1052 -133 1081 -133 c 128,-1,56
 1110 -133 1110 -133 1137 -125 c 1,57,-1
 1141 -135 l 1,0,1
EndSplineSet
EndChar

StartChar: O
Encoding: 79 79 50
Width: 931
GlyphClass: 2
Flags: W
LayerCount: 2
Fore
SplineSet
367 433 m 1,0,1
 336 485 336 485 336 543 c 0,2,3
 336 623 336 623 396 673 c 0,4,5
 432 704 432 704 485 714 c 1,6,7
 517 719 517 719 536.5 719 c 128,-1,8
 556 719 556 719 578 718.5 c 128,-1,9
 600 718 600 718 642.5 705 c 128,-1,10
 685 692 685 692 725 673.5 c 128,-1,11
 765 655 765 655 800.5 623 c 128,-1,12
 836 591 836 591 863 553 c 0,13,14
 921 471 921 471 921 355 c 0,15,16
 921 187 921 187 796.5 86.5 c 128,-1,17
 672 -14 672 -14 467 -14 c 128,-1,18
 262 -14 262 -14 136 87 c 128,-1,19
 10 188 10 188 10 353 c 0,20,21
 10 489 10 489 94.5 586.5 c 128,-1,22
 179 684 179 684 315 707 c 1,23,-1
 321 697 l 1,24,25
 280 654 280 654 255.5 569.5 c 128,-1,26
 231 485 231 485 231 387 c 0,27,28
 231 228 231 228 295 132 c 128,-1,29
 359 36 359 36 465.5 36 c 128,-1,30
 572 36 572 36 636 123 c 128,-1,31
 700 210 700 210 700 355 c 0,32,33
 700 447 700 447 674.5 520 c 128,-1,34
 649 593 649 593 604 629 c 128,-1,35
 559 665 559 665 509 665 c 0,36,37
 444 665 444 665 409 626 c 0,38,39
 368 581 368 581 368 514 c 0,40,41
 368 476 368 476 379 433 c 1,42,-1
 367 433 l 1,0,1
EndSplineSet
EndChar

StartChar: P
Encoding: 80 80 51
Width: 760
GlyphClass: 2
Flags: W
LayerCount: 2
Fore
SplineSet
112 600 m 1,0,1
 111 658 111 658 54 658 c 0,2,3
 49 658 49 658 36 657 c 1,4,-1
 34 666 l 1,5,6
 118 672 118 672 237 692 c 128,-1,7
 356 712 356 712 386.5 715 c 128,-1,8
 417 718 417 718 443 718 c 0,9,10
 523 718 523 718 569.5 703.5 c 128,-1,11
 616 689 616 689 651 666 c 128,-1,12
 686 643 686 643 707 603 c 0,13,14
 730 559 730 559 730 509.5 c 128,-1,15
 730 460 730 460 717 422 c 128,-1,16
 704 384 704 384 680 357 c 0,17,18
 608 275 608 275 496 275 c 0,19,20
 457 275 457 275 425 287 c 0,21,22
 366 309 366 309 349 365 c 1,23,-1
 359 371 l 1,24,25
 373 351 373 351 405 351 c 0,26,27
 454 351 454 351 492 409 c 1,28,29
 515 446 515 446 515 507 c 0,30,31
 515 592 515 592 472 633 c 0,32,33
 440 664 440 664 391 664 c 0,34,35
 379 664 379 664 366 662 c 2,36,-1
 317 655 l 1,37,-1
 317 73 l 1,38,39
 318 47 318 47 336.5 28.5 c 128,-1,40
 355 10 355 10 381 10 c 2,41,-1
 394 10 l 1,42,-1
 394 0 l 1,43,-1
 35 0 l 1,44,-1
 35 10 l 1,45,-1
 48 10 l 2,46,47
 74 10 74 10 92.5 28.5 c 128,-1,48
 111 47 111 47 112 73 c 1,49,-1
 112 600 l 1,0,1
EndSplineSet
EndChar

StartChar: Q
Encoding: 81 81 52
Width: 929
GlyphClass: 2
Flags: W
LayerCount: 2
Fore
SplineSet
1299 -298 m 0,0,1
 1264 -301 1264 -301 1209 -301 c 128,-1,2
 1154 -301 1154 -301 1052 -283.5 c 128,-1,3
 950 -266 950 -266 846.5 -223.5 c 128,-1,4
 743 -181 743 -181 389 -14 c 1,5,-1
 389 -4 l 1,6,7
 499 -4 499 -4 589 70 c 0,8,9
 633 107 633 107 663 170 c 0,10,11
 698 246 698 246 698 343 c 0,12,13
 698 459 698 459 648 551 c 0,14,15
 620 601 620 601 573 633 c 0,16,17
 520 670 520 670 450 670 c 0,18,19
 355 670 355 670 287.5 590.5 c 128,-1,20
 220 511 220 511 220 351 c 0,21,22
 220 240 220 240 258 169 c 0,23,24
 300 90 300 90 389 90 c 0,25,26
 429 90 429 90 458 107 c 0,27,28
 513 138 513 138 520 216 c 1,29,-1
 531 217 l 1,30,31
 532 205 532 205 532 181 c 128,-1,32
 532 157 532 157 520 125 c 0,33,34
 490 43 490 43 373 43 c 0,35,36
 342 43 342 43 303 50 c 0,37,38
 174 74 174 74 89.5 157.5 c 128,-1,39
 5 241 5 241 5 366 c 0,40,41
 5 439 5 439 37 504 c 0,42,43
 103 640 103 640 272 693 c 0,44,45
 356 719 356 719 457 719 c 0,46,47
 662 719 662 719 787 618 c 128,-1,48
 912 517 912 517 912 357 c 0,49,50
 912 283 912 283 883.5 217.5 c 128,-1,51
 855 152 855 152 806 105 c 0,52,53
 705 7 705 7 564 -18 c 1,54,55
 739 -38 739 -38 902.5 -69.5 c 128,-1,56
 1066 -101 1066 -101 1100 -107.5 c 128,-1,57
 1134 -114 1134 -114 1195 -123 c 0,58,59
 1295 -139 1295 -139 1360.5 -139 c 128,-1,60
 1426 -139 1426 -139 1456 -133 c 0,61,62
 1532 -119 1532 -119 1573 -84 c 1,63,-1
 1580 -87 l 1,64,65
 1554 -180 1554 -180 1478.5 -234 c 128,-1,66
 1403 -288 1403 -288 1299 -298 c 0,0,1
EndSplineSet
EndChar

StartChar: R
Encoding: 82 82 53
Width: 783
GlyphClass: 2
Flags: W
LayerCount: 2
Fore
SplineSet
721 504 m 0,0,1
 721 450 721 450 691.5 404.5 c 128,-1,2
 662 359 662 359 620 340.5 c 128,-1,3
 578 322 578 322 537 322 c 0,4,5
 525 322 525 322 514 323 c 1,6,7
 577 310 577 310 629 245 c 0,8,9
 653 216 653 216 683 170.5 c 128,-1,10
 713 125 713 125 725 108 c 0,11,12
 785 22 785 22 845 -32 c 0,13,14
 973 -148 973 -148 1174 -160 c 1,15,-1
 1174 -170 l 1,16,17
 1119 -209 1119 -209 1036 -226 c 0,18,19
 987 -236 987 -236 938.5 -236 c 128,-1,20
 890 -236 890 -236 836 -222 c 128,-1,21
 782 -208 782 -208 730 -180 c 128,-1,22
 678 -152 678 -152 624.5 -99 c 128,-1,23
 571 -46 571 -46 537 9.5 c 128,-1,24
 503 65 503 65 478 115.5 c 128,-1,25
 453 166 453 166 430.5 215 c 128,-1,26
 408 264 408 264 403 275 c 0,27,28
 374 335 374 335 351 342 c 1,29,-1
 351 352 l 1,30,-1
 367 352 l 2,31,32
 432 352 432 352 474 403 c 0,33,34
 498 432 498 432 502 463.5 c 128,-1,35
 506 495 506 495 506 504 c 0,36,37
 506 579 506 579 462 613.5 c 128,-1,38
 418 648 418 648 362 648 c 2,39,-1
 318 648 l 1,40,-1
 318 73 l 2,41,42
 318 47 318 47 337 28.5 c 128,-1,43
 356 10 356 10 382 10 c 2,44,-1
 394 10 l 1,45,-1
 394 0 l 1,46,-1
 35 0 l 1,47,-1
 35 10 l 1,48,-1
 48 10 l 2,49,50
 74 10 74 10 92.5 28 c 128,-1,51
 111 46 111 46 112 72 c 1,52,-1
 112 627 l 1,53,54
 111 664 111 664 80 682 c 0,55,56
 65 690 65 690 48 690 c 2,57,-1
 36 690 l 1,58,-1
 36 700 l 1,59,-1
 426 700 l 2,60,61
 575 700 575 700 652 648 c 0,62,63
 721 601 721 601 721 504 c 0,0,1
EndSplineSet
EndChar

StartChar: S
Encoding: 83 83 54
Width: 671
GlyphClass: 2
Flags: W
LayerCount: 2
Fore
SplineSet
647 170 m 0,0,1
 647 127 647 127 628 78.5 c 128,-1,2
 609 30 609 30 567 -11 c 128,-1,3
 525 -52 525 -52 459 -78 c 128,-1,4
 393 -104 393 -104 315 -104 c 128,-1,5
 237 -104 237 -104 175 -79 c 0,6,7
 59 -33 59 -33 24 82 c 0,8,9
 15 113 15 113 15 140 c 0,10,11
 15 227 15 227 68 303 c 1,12,-1
 77 296 l 1,13,14
 44 237 44 237 44 182 c 0,15,16
 44 114 44 114 78 62 c 128,-1,17
 112 10 112 10 169 -19 c 128,-1,18
 226 -48 226 -48 285.5 -48 c 128,-1,19
 345 -48 345 -48 386 -29 c 128,-1,20
 427 -10 427 -10 446 22 c 128,-1,21
 465 54 465 54 465 89 c 128,-1,22
 465 124 465 124 440 160.5 c 128,-1,23
 415 197 415 197 366 224 c 1,24,-1
 203 320 l 2,25,26
 79 393 79 393 79 508 c 0,27,28
 79 611 79 611 151 667 c 0,29,30
 211 714 211 714 314 714 c 0,31,32
 380 714 380 714 482 704 c 1,33,-1
 560 704 l 1,34,-1
 539 541 l 1,35,-1
 529 541 l 1,36,37
 529 596 529 596 486 630 c 128,-1,38
 443 664 443 664 376 664 c 128,-1,39
 309 664 309 664 273 641 c 128,-1,40
 237 618 237 618 234 580 c 0,41,42
 231 554 231 554 248 536 c 0,43,44
 263 520 263 520 278 511.5 c 128,-1,45
 293 503 293 503 305 496 c 128,-1,46
 317 489 317 489 322 487 c 2,47,-1
 509 380 l 2,48,49
 572 345 572 345 607 293 c 0,50,51
 647 234 647 234 647 170 c 0,0,1
EndSplineSet
EndChar

StartChar: T
Encoding: 84 84 55
Width: 750
GlyphClass: 2
Flags: W
LayerCount: 2
Fore
SplineSet
-4 444 m 1,0,1
 -65 498 -65 498 -65 560 c 0,2,3
 -65 618 -65 618 -18 658 c 0,4,5
 32 701 32 701 112 701 c 2,6,-1
 623 701 l 2,7,8
 654 701 654 701 690 707 c 128,-1,9
 726 713 726 713 741 719 c 1,10,-1
 741 513 l 1,11,-1
 731 514 l 1,12,-1
 731 521 l 2,13,14
 731 602 731 602 671 635 c 0,15,16
 642 650 642 650 602 651 c 1,17,-1
 504 651 l 1,18,-1
 504 72 l 1,19,20
 505 46 505 46 523.5 28 c 128,-1,21
 542 10 542 10 568 10 c 2,22,-1
 581 10 l 1,23,-1
 581 0 l 1,24,-1
 222 0 l 1,25,-1
 222 10 l 1,26,-1
 235 10 l 2,27,28
 261 10 261 10 279.5 28 c 128,-1,29
 298 46 298 46 299 71 c 1,30,-1
 299 651 l 1,31,-1
 112 651 l 2,32,33
 56 651 56 651 19 624 c 0,34,35
 -24 593 -24 593 -24 546.5 c 128,-1,36
 -24 500 -24 500 7 449 c 1,37,-1
 -4 444 l 1,0,1
EndSplineSet
EndChar

StartChar: U
Encoding: 85 85 56
Width: 852
GlyphClass: 2
Flags: W
LayerCount: 2
Fore
SplineSet
930 923 m 0,0,1
 944 923 944 923 958 921 c 1,2,-1
 958 911 l 1,3,4
 868 900 868 900 822 826 c 128,-1,5
 776 752 776 752 776 630 c 2,6,-1
 776 257 l 1,7,8
 774 125 774 125 691.5 55.5 c 128,-1,9
 609 -14 609 -14 447 -14 c 128,-1,10
 285 -14 285 -14 192 58 c 128,-1,11
 99 130 99 130 99 250 c 0,12,13
 99 253 99 253 99 256 c 2,14,-1
 99 641 l 2,15,16
 99 662 99 662 83.5 676 c 128,-1,17
 68 690 68 690 46 690 c 2,18,-1
 30 690 l 1,19,-1
 30 700 l 1,20,-1
 373 700 l 1,21,-1
 373 690 l 1,22,-1
 357 690 l 2,23,24
 326 690 326 690 311 666 c 0,25,26
 305 655 305 655 304 643 c 1,27,-1
 304 260 l 2,28,29
 304 156 304 156 356.5 96.5 c 128,-1,30
 409 37 409 37 496 37 c 0,31,32
 497 37 497 37 497.5 37 c 128,-1,33
 498 37 498 37 499 37 c 0,34,35
 582 37 582 37 635.5 92.5 c 128,-1,36
 689 148 689 148 689 247 c 2,37,-1
 689 630 l 2,38,39
 689 754 689 754 761 843 c 0,40,41
 795 884 795 884 840.5 903.5 c 128,-1,42
 886 923 886 923 930 923 c 0,0,1
EndSplineSet
EndChar

StartChar: V
Encoding: 86 86 57
Width: 720
GlyphClass: 2
Flags: W
LayerCount: 2
Fore
SplineSet
760 894 m 128,-1,1
 796 922 796 922 842 936 c 128,-1,2
 888 950 888 950 917 950 c 128,-1,3
 946 950 946 950 966 947 c 1,4,-1
 966 937 l 1,5,6
 904 933 904 933 858 904 c 0,7,8
 807 871 807 871 785.5 843 c 128,-1,9
 764 815 764 815 751.5 798.5 c 128,-1,10
 739 782 739 782 728 760 c 1,11,12
 709 726 709 726 696 697 c 2,13,-1
 435 125 l 1,14,15
 382 13 382 13 378 -24 c 1,16,-1
 369 -24 l 1,17,-1
 52 635 l 1,18,19
 21 690 21 690 -32 690 c 2,20,-1
 -40 690 l 1,21,-1
 -40 700 l 1,22,-1
 339 700 l 1,23,-1
 339 690 l 1,24,-1
 330 690 l 2,25,26
 309 690 309 690 298.5 676.5 c 128,-1,27
 288 663 288 663 288 651 c 128,-1,28
 288 639 288 639 292 627 c 2,29,-1
 435 284 l 1,30,-1
 615 697 l 2,31,32
 645 766 645 766 684.5 816 c 128,-1,0
 724 866 724 866 760 894 c 128,-1,1
EndSplineSet
EndChar

StartChar: W
Encoding: 87 87 58
Width: 964
GlyphClass: 2
Flags: W
LayerCount: 2
Fore
SplineSet
1072 939 m 0,0,1
 1115 948 1115 948 1144 948 c 128,-1,2
 1173 948 1173 948 1198 945 c 1,3,-1
 1198 935 l 1,4,5
 995 920 995 920 926 694 c 2,6,-1
 740 89 l 1,7,8
 726 40 726 40 726 -22 c 1,9,-1
 716 -22 l 1,10,-1
 486 412 l 1,11,-1
 300 32 l 2,12,13
 271 -29 271 -29 243.5 -62 c 128,-1,14
 216 -95 216 -95 195.5 -115 c 128,-1,15
 175 -135 175 -135 154 -149 c 0,16,17
 97 -185 97 -185 52 -185 c 0,18,19
 28 -185 28 -185 1 -180 c 1,20,-1
 1 -170 l 1,21,22
 68 -158 68 -158 119 -105 c 0,23,24
 172 -49 172 -49 195 -7 c 0,25,26
 227 51 227 51 247 95 c 1,27,-1
 44 633 l 1,28,29
 30 662 30 662 6.5 676 c 128,-1,30
 -17 690 -17 690 -42 690 c 2,31,-1
 -50 690 l 1,32,-1
 -50 700 l 1,33,-1
 309 700 l 1,34,-1
 309 690 l 1,35,-1
 300 690 l 2,36,37
 270 690 270 690 260 662 c 1,38,39
 259 656 259 656 259 648 c 128,-1,40
 259 640 259 640 263 628 c 2,41,-1
 372 356 l 1,42,-1
 545 716 l 1,43,-1
 554 715 l 1,44,-1
 752 349 l 1,45,-1
 848 694 l 2,46,47
 872 781 872 781 925 845 c 0,48,49
 988 921 988 921 1072 939 c 0,0,1
EndSplineSet
EndChar

StartChar: X
Encoding: 88 88 59
Width: 773
GlyphClass: 2
Flags: W
LayerCount: 2
Fore
SplineSet
796 10 m 2,0,-1
 810 10 l 1,1,-1
 810 0 l 1,2,-1
 406 0 l 1,3,-1
 406 10 l 1,4,-1
 419 10 l 2,5,6
 440 10 440 10 453 31 c 0,7,8
 459 41 459 41 459 51 c 128,-1,9
 459 61 459 61 453 72 c 2,10,-1
 323 271 l 1,11,-1
 128 0 l 2,12,13
 16 -155 16 -155 -122 -155 c 0,14,15
 -148 -155 -148 -155 -174 -150 c 1,16,-1
 -174 -140 l 1,17,18
 -97 -131 -97 -131 -52 -94 c 0,19,20
 -28 -74 -28 -74 -11.5 -54.5 c 128,-1,21
 5 -35 5 -35 31 0 c 2,22,-1
 279 339 l 1,23,-1
 88 632 l 1,24,25
 71 656 71 656 44 673 c 128,-1,26
 17 690 17 690 -13 690 c 2,27,-1
 -27 690 l 1,28,-1
 -27 700 l 1,29,-1
 375 700 l 1,30,-1
 375 690 l 1,31,-1
 363 690 l 2,32,33
 341 690 341 690 329 669 c 1,34,35
 322 659 322 659 322 648.5 c 128,-1,36
 322 638 322 638 329 628 c 2,37,-1
 442 455 l 1,38,-1
 604 700 l 2,39,40
 651 770 651 770 720 820 c 0,41,42
 786 868 786 868 863 868 c 0,43,44
 876 868 876 868 888 866 c 1,45,-1
 888 856 l 1,46,47
 830 855 830 855 780 801 c 0,48,49
 742 760 742 760 701 700 c 2,50,-1
 489 383 l 1,51,-1
 695 68 l 2,52,53
 718 34 718 34 756 18 c 0,54,55
 776 10 776 10 796 10 c 2,0,-1
EndSplineSet
EndChar

StartChar: Y
Encoding: 89 89 60
Width: 699
GlyphClass: 2
Flags: W
LayerCount: 2
Fore
SplineSet
-29 761 m 0,0,1
 117 761 117 761 230 693 c 0,2,3
 363 612 363 612 418 461 c 1,4,5
 458 579 458 579 545 670 c 0,6,7
 587 713 587 713 634.5 736.5 c 128,-1,8
 682 760 682 760 726 760 c 0,9,10
 733 760 733 760 740 759 c 1,11,-1
 740 749 l 1,12,13
 694 747 694 747 643.5 700.5 c 128,-1,14
 593 654 593 654 554 587.5 c 128,-1,15
 515 521 515 521 486.5 449 c 128,-1,16
 458 377 458 377 451 322 c 1,17,-1
 451 73 l 2,18,19
 451 37 451 37 482 19 c 0,20,21
 497 10 497 10 515 10 c 2,22,-1
 527 10 l 1,23,-1
 528 0 l 1,24,-1
 169 0 l 1,25,-1
 169 10 l 1,26,-1
 182 10 l 2,27,28
 208 10 208 10 226.5 28.5 c 128,-1,29
 245 47 245 47 246 73 c 1,30,-1
 246 322 l 1,31,32
 224 427 224 427 170 531 c 0,33,34
 140 588 140 588 104 634 c 128,-1,35
 68 680 68 680 18 712.5 c 128,-1,36
 -32 745 -32 745 -85 749 c 1,37,-1
 -85 759 l 1,38,39
 -56 761 -56 761 -29 761 c 0,0,1
EndSplineSet
EndChar

StartChar: Z
Encoding: 90 90 61
Width: 659
GlyphClass: 2
Flags: W
LayerCount: 2
Fore
SplineSet
651.5 -89.5 m 128,-1,1
 728 -109 728 -109 811 -125 c 128,-1,2
 894 -141 894 -141 963 -141 c 128,-1,3
 1032 -141 1032 -141 1087 -120 c 1,4,-1
 1095 -127 l 1,5,6
 1044 -189 1044 -189 981 -220 c 0,7,8
 915 -253 915 -253 850.5 -253 c 128,-1,9
 786 -253 786 -253 716 -237.5 c 128,-1,10
 646 -222 646 -222 578 -192.5 c 128,-1,11
 510 -163 510 -163 435 -130.5 c 128,-1,12
 360 -98 360 -98 295 -68 c 0,13,14
 144 0 144 0 35 0 c 1,15,-1
 35 9 l 1,16,-1
 367 651 l 1,17,-1
 187 651 l 1,18,19
 106 650 106 650 74 590 c 0,20,21
 59 561 59 561 59 521 c 2,22,-1
 59 513 l 1,23,-1
 49 513 l 1,24,-1
 49 719 l 1,25,26
 64 713 64 713 101.5 707 c 128,-1,27
 139 701 139 701 154.5 701 c 128,-1,28
 170 701 170 701 170 701 c 1,29,-1
 515 701 l 2,30,31
 545 701 545 701 578.5 705 c 128,-1,32
 612 709 612 709 621 714 c 1,33,-1
 621 705 l 1,34,-1
 263 9 l 1,35,36
 344 -9 344 -9 459.5 -39.5 c 128,-1,0
 575 -70 575 -70 651.5 -89.5 c 128,-1,1
EndSplineSet
EndChar

StartChar: bracketleft
Encoding: 91 91 62
Width: 472
GlyphClass: 2
Flags: W
LayerCount: 2
Fore
SplineSet
120 -90 m 1,0,-1
 120 722 l 1,1,-1
 429 722 l 1,2,-1
 429 712 l 1,3,-1
 325 662 l 1,4,-1
 325 -30 l 1,5,-1
 432 -80 l 1,6,-1
 432 -90 l 1,7,-1
 120 -90 l 1,0,-1
EndSplineSet
EndChar

StartChar: backslash
Encoding: 92 92 63
Width: 439
GlyphClass: 2
Flags: W
LayerCount: 2
Fore
SplineSet
10 696 m 1,0,-1
 69 723 l 1,1,-1
 430 14 l 1,2,-1
 371 -14 l 1,3,-1
 10 696 l 1,0,-1
EndSplineSet
EndChar

StartChar: bracketright
Encoding: 93 93 64
Width: 362
GlyphClass: 2
Flags: W
LayerCount: 2
Fore
SplineSet
43 722 m 1,0,-1
 352 722 l 1,1,-1
 352 -90 l 1,2,-1
 40 -90 l 1,3,-1
 40 -80 l 1,4,-1
 147 -30 l 1,5,-1
 147 662 l 1,6,-1
 43 712 l 1,7,-1
 43 722 l 1,0,-1
EndSplineSet
EndChar

StartChar: asciicircum
Encoding: 94 94 65
Width: 572
GlyphClass: 2
Flags: W
LayerCount: 2
Fore
SplineSet
253 381 m 1,0,-1
 321 381 l 1,1,-1
 538 172 l 1,2,-1
 449 172 l 1,3,-1
 287 325 l 1,4,-1
 124 172 l 1,5,-1
 35 172 l 1,6,-1
 253 381 l 1,0,-1
EndSplineSet
EndChar

StartChar: underscore
Encoding: 95 95 66
Width: 500
GlyphClass: 2
Flags: W
LayerCount: 2
Fore
SplineSet
0 -110 m 1,0,-1
 0 -60 l 1,1,-1
 500 -60 l 1,2,-1
 500 -110 l 1,3,-1
 0 -110 l 1,0,-1
EndSplineSet
EndChar

StartChar: grave
Encoding: 96 96 67
Width: 600
GlyphClass: 2
Flags: W
LayerCount: 2
Fore
SplineSet
294 750 m 1,0,-1
 287 743 l 1,1,2
 234 749 234 749 169 776 c 128,-1,3
 104 803 104 803 54 836 c 1,4,5
 75 909 75 909 139 936 c 1,6,7
 182 899 182 899 228.5 846.5 c 128,-1,8
 275 794 275 794 294 750 c 1,0,-1
EndSplineSet
EndChar

StartChar: a
Encoding: 97 97 68
Width: 720
GlyphClass: 2
Flags: W
LayerCount: 2
Fore
SplineSet
752 10 m 2,0,-1
 760 10 l 1,1,-1
 760 0 l 1,2,-1
 381 0 l 1,3,-1
 381 10 l 1,4,-1
 390 10 l 2,5,6
 412 10 412 10 423 23.5 c 128,-1,7
 434 37 434 37 434 48.5 c 128,-1,8
 434 60 434 60 429 73 c 2,9,-1
 390 166 l 1,10,-1
 176 166 l 1,11,-1
 136 73 l 2,12,13
 131 60 131 60 131 52 c 128,-1,14
 131 44 131 44 134.5 34.5 c 128,-1,15
 138 25 138 25 149.5 17.5 c 128,-1,16
 161 10 161 10 174 10 c 2,17,-1
 183 10 l 1,18,-1
 183 0 l 1,19,-1
 -40 0 l 1,20,-1
 -40 10 l 1,21,-1
 -31 10 l 2,22,23
 -8 10 -8 10 14.5 23.5 c 128,-1,24
 37 37 37 37 52 64 c 1,25,-1
 285 575 l 1,26,27
 338 687 338 687 342 724 c 1,28,-1
 351 724 l 1,29,-1
 668 65 l 1,30,31
 700 10 700 10 752 10 c 2,0,-1
198 216 m 1,32,-1
 369 216 l 1,33,-1
 285 416 l 1,34,-1
 198 216 l 1,32,-1
EndSplineSet
EndChar

StartChar: b
Encoding: 98 98 69
Width: 730
GlyphClass: 2
Flags: W
LayerCount: 2
Fore
SplineSet
394 0 m 2,0,-1
 30 0 l 1,1,-1
 30 10 l 1,2,-1
 43 10 l 2,3,4
 79 10 79 10 98 41 c 0,5,6
 106 55 106 55 107 72 c 1,7,-1
 107 628 l 1,8,9
 106 664 106 664 75 682 c 0,10,11
 60 690 60 690 43 690 c 2,12,-1
 30 690 l 1,13,-1
 30 700 l 1,14,-1
 378 700 l 2,15,16
 656 700 656 700 656 526 c 0,17,18
 656 425 656 425 574 391 c 0,19,20
 551 382 551 382 525 381 c 1,21,22
 602 377 602 377 654.5 328.5 c 128,-1,23
 707 280 707 280 707 200 c 0,24,25
 707 100 707 100 622 50 c 128,-1,26
 537 0 537 0 394 0 c 2,0,-1
326 52 m 2,27,28
 391 52 391 52 431.5 91 c 128,-1,29
 472 130 472 130 472 209.5 c 128,-1,30
 472 289 472 289 440 329.5 c 128,-1,31
 408 370 408 370 346 370 c 1,32,-1
 346 379 l 1,33,34
 441 379 441 379 441 514.5 c 128,-1,35
 441 650 441 650 325 650 c 1,36,37
 325 650 325 650 325 650 c 1,38,-1
 312 650 l 1,39,-1
 312 52 l 1,40,-1
 325 52 l 2,41,42
 326 52 326 52 326 52 c 2,27,28
EndSplineSet
EndChar

StartChar: c
Encoding: 99 99 70
Width: 793
GlyphClass: 2
Flags: W
LayerCount: 2
Fore
SplineSet
35 351 m 0,0,1
 35 464 35 464 87 546 c 128,-1,2
 139 628 139 628 237.5 671 c 128,-1,3
 336 714 336 714 479 714 c 128,-1,4
 622 714 622 714 730 668 c 1,5,-1
 720 477 l 1,6,-1
 711 477 l 1,7,8
 682 578 682 578 627 621 c 128,-1,9
 572 664 572 664 490 664 c 0,10,11
 379 664 379 664 317 582 c 128,-1,12
 255 500 255 500 255 353.5 c 128,-1,13
 255 207 255 207 312.5 123 c 128,-1,14
 370 39 370 39 472 36 c 1,15,16
 590 36 590 36 643 92 c 0,17,18
 693 144 693 144 721 292 c 1,19,-1
 729 292 l 1,20,-1
 753 110 l 1,21,22
 679 -14 679 -14 473.5 -13.5 c 128,-1,23
 268 -13 268 -13 151.5 82.5 c 128,-1,24
 35 178 35 178 35 351 c 0,0,1
EndSplineSet
EndChar

StartChar: d
Encoding: 100 100 71
Width: 842
GlyphClass: 2
Flags: W
LayerCount: 2
Fore
SplineSet
702.5 607.5 m 128,-1,1
 808 515 808 515 808 350 c 128,-1,2
 808 185 808 185 702.5 92.5 c 128,-1,3
 597 0 597 0 409 0 c 2,4,-1
 30 0 l 1,5,-1
 30 10 l 1,6,-1
 43 10 l 2,7,8
 69 10 69 10 87.5 28.5 c 128,-1,9
 106 47 106 47 107 73 c 1,10,-1
 107 633 l 2,11,12
 107 657 107 657 87.5 673.5 c 128,-1,13
 68 690 68 690 43 690 c 2,14,-1
 31 690 l 1,15,-1
 30 700 l 1,16,-1
 409 700 l 2,17,0
 597 700 597 700 702.5 607.5 c 128,-1,1
312 650 m 1,18,-1
 312 50 l 1,19,-1
 389 50 l 2,20,21
 482 50 482 50 535 129.5 c 128,-1,22
 588 209 588 209 588 350 c 128,-1,23
 588 491 588 491 535 570.5 c 128,-1,24
 482 650 482 650 389 650 c 2,25,-1
 312 650 l 1,18,-1
EndSplineSet
EndChar

StartChar: e
Encoding: 101 101 72
Width: 666
GlyphClass: 2
Flags: W
LayerCount: 2
Fore
SplineSet
43 10 m 2,0,1
 69 10 69 10 87.5 28.5 c 128,-1,2
 106 47 106 47 107 73 c 1,3,-1
 107 627 l 1,4,5
 106 659 106 659 80 678 c 0,6,7
 64 690 64 690 43 690 c 2,8,-1
 30 690 l 1,9,-1
 30 700 l 1,10,-1
 473 700 l 2,11,12
 516 700 516 700 549.5 707 c 128,-1,13
 583 714 583 714 592 718 c 1,14,-1
 592 512 l 1,15,-1
 582 512 l 1,16,-1
 582 520 l 2,17,18
 582 600 582 600 524 632 c 0,19,20
 496 648 496 648 457 649 c 1,21,-1
 312 649 l 1,22,-1
 312 370 l 1,23,-1
 421 370 l 1,24,25
 469 371 469 371 499 401.5 c 128,-1,26
 529 432 529 432 529 480 c 2,27,-1
 529 484 l 1,28,-1
 539 484 l 1,29,-1
 539 206 l 1,30,-1
 529 206 l 1,31,-1
 529 211 l 2,32,33
 529 258 529 258 499 288.5 c 128,-1,34
 469 319 469 319 422 320 c 1,35,-1
 312 320 l 1,36,-1
 312 51 l 1,37,-1
 435 51 l 2,38,39
 508 51 508 51 564 99 c 128,-1,40
 620 147 620 147 643 232 c 1,41,-1
 653 232 l 1,42,-1
 615 0 l 1,43,-1
 30 0 l 1,44,-1
 30 10 l 1,45,-1
 43 10 l 2,0,1
EndSplineSet
EndChar

StartChar: f
Encoding: 102 102 73
Width: 631
GlyphClass: 2
Flags: W
LayerCount: 2
Fore
SplineSet
312 649 m 1,0,-1
 312 370 l 1,1,-1
 421 370 l 1,2,3
 469 371 469 371 499 401.5 c 128,-1,4
 529 432 529 432 529 479 c 2,5,-1
 529 484 l 1,6,-1
 539 484 l 1,7,-1
 539 206 l 1,8,-1
 529 206 l 1,9,-1
 529 211 l 2,10,11
 529 258 529 258 499 288.5 c 128,-1,12
 469 319 469 319 422 320 c 1,13,-1
 312 320 l 1,14,-1
 312 73 l 2,15,16
 312 47 312 47 331 28.5 c 128,-1,17
 350 10 350 10 376 10 c 2,18,-1
 389 10 l 1,19,-1
 389 0 l 1,20,-1
 30 0 l 1,21,-1
 30 10 l 1,22,-1
 43 10 l 2,23,24
 69 10 69 10 87.5 28.5 c 128,-1,25
 106 47 106 47 107 73 c 1,26,-1
 107 627 l 1,27,28
 106 653 106 653 87.5 671.5 c 128,-1,29
 69 690 69 690 43 690 c 2,30,-1
 30 690 l 1,31,-1
 30 700 l 1,32,-1
 473 700 l 2,33,34
 516 700 516 700 549 707 c 128,-1,35
 582 714 582 714 592 718 c 1,36,-1
 592 512 l 1,37,-1
 582 512 l 1,38,-1
 582 520 l 2,39,40
 582 600 582 600 524 632 c 0,41,42
 496 648 496 648 457 649 c 1,43,-1
 312 649 l 1,0,-1
EndSplineSet
EndChar

StartChar: g
Encoding: 103 103 74
Width: 861
GlyphClass: 2
Flags: W
LayerCount: 2
Fore
SplineSet
425 -14 m 0,0,1
 246 -14 246 -14 140.5 83.5 c 128,-1,2
 35 181 35 181 35 351.5 c 128,-1,3
 35 522 35 522 141 618 c 128,-1,4
 247 714 247 714 435 714 c 0,5,6
 516 714 516 714 602 700.5 c 128,-1,7
 688 687 688 687 733 668 c 1,8,-1
 723 477 l 1,9,-1
 714 477 l 1,10,11
 662 664 662 664 485 664 c 0,12,13
 255 664 255 664 255 342 c 0,14,15
 255 196 255 196 302.5 116 c 128,-1,16
 350 36 350 36 447 36 c 0,17,18
 500 36 500 36 539.5 64.5 c 128,-1,19
 579 93 579 93 579 143 c 2,20,-1
 580 280 l 2,21,22
 580 302 580 302 566.5 313.5 c 128,-1,23
 553 325 553 325 529 325 c 2,24,-1
 513 325 l 1,25,-1
 513 335 l 1,26,-1
 849 335 l 1,27,-1
 849 325 l 1,28,-1
 834 325 l 2,29,30
 809 325 809 325 796 313.5 c 128,-1,31
 783 302 783 302 784 280 c 1,32,-1
 784 115 l 1,33,34
 728 44 728 44 581 6 c 0,35,36
 505 -14 505 -14 425 -14 c 0,0,1
EndSplineSet
EndChar

StartChar: h
Encoding: 104 104 75
Width: 893
GlyphClass: 2
Flags: W
LayerCount: 2
Fore
SplineSet
517 10 m 2,0,1
 543 10 543 10 561.5 28 c 128,-1,2
 580 46 580 46 581 72 c 1,3,-1
 581 325 l 1,4,-1
 312 325 l 1,5,-1
 312 73 l 1,6,7
 313 36 313 36 344 18 c 0,8,9
 359 10 359 10 376 10 c 2,10,-1
 389 10 l 1,11,-1
 389 0 l 1,12,-1
 30 0 l 1,13,-1
 30 10 l 1,14,-1
 43 10 l 2,15,16
 69 10 69 10 87.5 28.5 c 128,-1,17
 106 47 106 47 107 73 c 1,18,-1
 107 628 l 1,19,20
 106 654 106 654 87.5 672 c 128,-1,21
 69 690 69 690 43 690 c 2,22,-1
 30 690 l 1,23,-1
 30 700 l 1,24,-1
 389 700 l 1,25,-1
 389 690 l 1,26,-1
 376 690 l 2,27,28
 350 690 350 690 331.5 672 c 128,-1,29
 313 654 313 654 312 628 c 1,30,-1
 312 375 l 1,31,-1
 581 375 l 1,32,-1
 581 628 l 1,33,34
 580 654 580 654 561.5 672 c 128,-1,35
 543 690 543 690 517 690 c 2,36,-1
 504 690 l 1,37,-1
 504 700 l 1,38,-1
 863 700 l 1,39,-1
 863 690 l 1,40,-1
 850 690 l 2,41,42
 814 690 814 690 795 659 c 1,43,44
 787 644 787 644 786 627 c 1,45,-1
 786 73 l 1,46,47
 787 47 787 47 805.5 28.5 c 128,-1,48
 824 10 824 10 850 10 c 2,49,-1
 863 10 l 1,50,-1
 863 0 l 1,51,-1
 504 0 l 1,52,-1
 504 10 l 1,53,-1
 517 10 l 2,0,1
EndSplineSet
EndChar

StartChar: i
Encoding: 105 105 76
Width: 418
GlyphClass: 2
Flags: W
LayerCount: 2
Fore
SplineSet
43 10 m 2,0,1
 69 10 69 10 87.5 28.5 c 128,-1,2
 106 47 106 47 107 73 c 1,3,-1
 107 628 l 1,4,5
 106 654 106 654 87.5 672 c 128,-1,6
 69 690 69 690 43 690 c 2,7,-1
 30 690 l 1,8,-1
 30 700 l 1,9,-1
 389 700 l 1,10,-1
 389 690 l 1,11,-1
 376 690 l 2,12,13
 350 690 350 690 331.5 672 c 128,-1,14
 313 654 313 654 312 628 c 1,15,-1
 312 73 l 2,16,17
 312 47 312 47 331 28.5 c 128,-1,18
 350 10 350 10 376 10 c 2,19,-1
 389 10 l 1,20,-1
 389 0 l 1,21,-1
 30 0 l 1,22,-1
 30 10 l 1,23,-1
 43 10 l 2,0,1
EndSplineSet
EndChar

StartChar: j
Encoding: 106 106 77
Width: 424
GlyphClass: 2
Flags: W
LayerCount: 2
Fore
SplineSet
381 690 m 2,0,1
 345 690 345 690 326 659 c 0,2,3
 318 645 318 645 317 627 c 1,4,-1
 317 50 l 2,5,6
 317 -32 317 -32 270.5 -94 c 128,-1,7
 224 -156 224 -156 150 -183 c 0,8,9
 97 -203 97 -203 40 -203 c 0,10,11
 18 -203 18 -203 -5 -200 c 1,12,-1
 -5 -191 l 1,13,14
 112 -138 112 -138 112 53 c 2,15,-1
 112 627 l 1,16,17
 111 653 111 653 92.5 671.5 c 128,-1,18
 74 690 74 690 48 690 c 2,19,-1
 35 690 l 1,20,-1
 35 700 l 1,21,-1
 394 700 l 1,22,-1
 394 690 l 1,23,-1
 381 690 l 2,0,1
EndSplineSet
EndChar

StartChar: k
Encoding: 107 107 78
Width: 821
GlyphClass: 2
Flags: W
LayerCount: 2
Fore
SplineSet
43 10 m 2,0,1
 69 10 69 10 87.5 28.5 c 128,-1,2
 106 47 106 47 107 73 c 1,3,-1
 107 628 l 1,4,5
 106 654 106 654 87.5 672 c 128,-1,6
 69 690 69 690 43 690 c 2,7,-1
 30 690 l 1,8,-1
 30 700 l 1,9,-1
 389 700 l 1,10,-1
 389 690 l 1,11,-1
 376 690 l 2,12,13
 350 690 350 690 331.5 672 c 128,-1,14
 313 654 313 654 312 628 c 1,15,-1
 312 73 l 2,16,17
 312 47 312 47 331 28.5 c 128,-1,18
 350 10 350 10 376 10 c 2,19,-1
 389 10 l 1,20,-1
 389 0 l 1,21,-1
 30 0 l 1,22,-1
 30 10 l 1,23,-1
 43 10 l 2,0,1
848 0 m 1,24,-1
 740 0 l 2,25,26
 556 0 556 0 483 100 c 0,27,28
 453 140 453 140 398.5 228.5 c 128,-1,29
 344 317 344 317 344 318 c 2,30,-1
 583 644 l 2,31,32
 590 654 590 654 590 662 c 128,-1,33
 590 670 590 670 587 676 c 0,34,35
 580 691 580 691 559 691 c 2,36,-1
 549 691 l 1,37,-1
 549 700 l 1,38,-1
 790 700 l 1,39,-1
 790 691 l 1,40,-1
 786 691 l 2,41,42
 719 691 719 691 676 642 c 1,43,-1
 507 438 l 1,44,-1
 741 86 l 2,45,46
 790 12 790 12 848 10 c 1,47,-1
 848 0 l 1,24,-1
EndSplineSet
EndChar

StartChar: l
Encoding: 108 108 79
Width: 652
GlyphClass: 2
Flags: W
LayerCount: 2
Fore
SplineSet
43 10 m 2,0,1
 69 10 69 10 87.5 28.5 c 128,-1,2
 106 47 106 47 107 73 c 1,3,-1
 107 627 l 1,4,5
 106 664 106 664 75 682 c 0,6,7
 60 690 60 690 43 690 c 2,8,-1
 30 690 l 1,9,-1
 30 700 l 1,10,-1
 389 700 l 1,11,-1
 389 690 l 1,12,-1
 376 690 l 2,13,14
 350 690 350 690 331 671.5 c 128,-1,15
 312 653 312 653 312 627 c 2,16,-1
 312 51 l 1,17,-1
 435 51 l 2,18,19
 508 51 508 51 564 99 c 128,-1,20
 620 147 620 147 643 232 c 1,21,-1
 653 232 l 1,22,-1
 615 0 l 1,23,-1
 30 0 l 1,24,-1
 30 10 l 1,25,-1
 43 10 l 2,0,1
EndSplineSet
EndChar

StartChar: m
Encoding: 109 109 80
Width: 968
GlyphClass: 2
Flags: W
LayerCount: 2
Fore
SplineSet
978 10 m 2,0,-1
 994 10 l 1,1,-1
 994 0 l 1,2,-1
 639 0 l 1,3,-1
 639 9 l 1,4,-1
 655 9 l 2,5,6
 671 9 671 9 683.5 22.5 c 128,-1,7
 696 36 696 36 694 52 c 2,8,-1
 656 344 l 1,9,-1
 486 92 l 2,10,11
 469 68 469 68 456 34 c 128,-1,12
 443 0 443 0 444 -24 c 1,13,-1
 435 -24 l 1,14,-1
 175 335 l 1,15,-1
 140 52 l 2,16,17
 138 36 138 36 150.5 22.5 c 128,-1,18
 163 9 163 9 179 9 c 2,19,-1
 195 9 l 1,20,-1
 195 0 l 1,21,-1
 -25 0 l 1,22,-1
 -25 10 l 1,23,-1
 -9 10 l 2,24,25
 19 10 19 10 39.5 27 c 128,-1,26
 60 44 60 44 64 73 c 2,27,-1
 152 714 l 1,28,-1
 161 714 l 1,29,-1
 497 255 l 1,30,-1
 805 714 l 1,31,-1
 814 714 l 1,32,-1
 905 73 l 2,33,34
 910 44 910 44 930 27 c 128,-1,35
 950 10 950 10 978 10 c 2,0,-1
EndSplineSet
EndChar

StartChar: n
Encoding: 110 110 81
Width: 881
GlyphClass: 2
Flags: W
LayerCount: 2
Fore
SplineSet
843 690 m 2,0,1
 818 690 818 690 800 672.5 c 128,-1,2
 782 655 782 655 781 630 c 1,3,-1
 781 114 l 2,4,5
 781 40 781 40 791 0 c 1,6,-1
 794 -14 l 1,7,-1
 785 -14 l 1,8,-1
 306 412 l 1,9,-1
 306 71 l 2,10,11
 306 35 306 35 337 18 c 0,12,13
 351 10 351 10 367 10 c 2,14,-1
 386 10 l 1,15,-1
 386 0 l 1,16,-1
 20 0 l 1,17,-1
 20 10 l 1,18,-1
 39 10 l 2,19,20
 64 10 64 10 82 27.5 c 128,-1,21
 100 45 100 45 100 71 c 2,22,-1
 100 590 l 2,23,24
 100 660 100 660 90 701 c 1,25,-1
 87 715 l 1,26,-1
 97 715 l 1,27,-1
 576 289 l 1,28,-1
 576 629 l 1,29,30
 575 655 575 655 557 672.5 c 128,-1,31
 539 690 539 690 514 690 c 2,32,-1
 495 690 l 1,33,-1
 495 700 l 1,34,-1
 861 700 l 1,35,-1
 861 690 l 1,36,-1
 843 690 l 2,0,1
EndSplineSet
EndChar

StartChar: o
Encoding: 111 111 82
Width: 900
GlyphClass: 2
Flags: W
LayerCount: 2
Fore
SplineSet
450 714 m 0,0,1
 579 714 579 714 672.5 671 c 128,-1,2
 766 628 766 628 816 545.5 c 128,-1,3
 866 463 866 463 866 350 c 0,4,5
 866 179 866 179 755 82.5 c 128,-1,6
 644 -14 644 -14 450 -14 c 128,-1,7
 256 -14 256 -14 145.5 82.5 c 128,-1,8
 35 179 35 179 35 350 c 128,-1,9
 35 521 35 521 145.5 617.5 c 128,-1,10
 256 714 256 714 450 714 c 0,0,1
450.5 36 m 128,-1,12
 542 36 542 36 593.5 119 c 128,-1,13
 645 202 645 202 645 350 c 128,-1,14
 645 498 645 498 593.5 581 c 128,-1,15
 542 664 542 664 450.5 664 c 128,-1,16
 359 664 359 664 307.5 581 c 128,-1,17
 256 498 256 498 256 350 c 128,-1,18
 256 202 256 202 307.5 119 c 128,-1,11
 359 36 359 36 450.5 36 c 128,-1,12
EndSplineSet
EndChar

StartChar: p
Encoding: 112 112 83
Width: 707
GlyphClass: 2
Flags: W
LayerCount: 2
Fore
SplineSet
693 495 m 0,0,1
 693 449 693 449 674.5 405.5 c 128,-1,2
 656 362 656 362 621 334 c 0,3,4
 558 283 558 283 487 283 c 0,5,6
 415 283 415 283 351 329 c 1,7,-1
 351 339 l 1,8,9
 387 345 387 345 405.5 358 c 128,-1,10
 424 371 424 371 435 383 c 0,11,12
 460 410 460 410 468.5 446 c 128,-1,13
 477 482 477 482 477 497 c 0,14,15
 477 576 477 576 443 613 c 128,-1,16
 409 650 409 650 352 650 c 2,17,-1
 317 650 l 1,18,-1
 317 73 l 1,19,20
 318 47 318 47 336.5 28.5 c 128,-1,21
 355 10 355 10 381 10 c 2,22,-1
 394 10 l 1,23,-1
 394 0 l 1,24,-1
 35 0 l 1,25,-1
 35 10 l 1,26,-1
 48 10 l 2,27,28
 84 10 84 10 103 41 c 0,29,30
 112 56 112 56 112 73 c 2,31,-1
 112 632 l 2,32,33
 112 656 112 656 92.5 673 c 128,-1,34
 73 690 73 690 48 690 c 2,35,-1
 36 690 l 1,36,-1
 35 700 l 1,37,-1
 416 700 l 2,38,39
 553 700 553 700 626 643 c 1,40,41
 693 592 693 592 693 495 c 0,0,1
EndSplineSet
EndChar

StartChar: q
Encoding: 113 113 84
Width: 912
GlyphClass: 2
Flags: W
LayerCount: 2
Fore
SplineSet
1269 -264 m 0,0,1
 1197 -306 1197 -306 1093 -306 c 0,2,3
 1057 -306 1057 -306 985 -289.5 c 128,-1,4
 913 -273 913 -273 843 -234.5 c 128,-1,5
 773 -196 773 -196 715 -155 c 128,-1,6
 657 -114 657 -114 621 -86 c 128,-1,7
 585 -58 585 -58 540 -36.5 c 128,-1,8
 495 -15 495 -15 453 -14 c 0,9,10
 260 -13 260 -13 150 83 c 128,-1,11
 40 179 40 179 40 350 c 128,-1,12
 40 521 40 521 150.5 617.5 c 128,-1,13
 261 714 261 714 455 714 c 0,14,15
 584 714 584 714 677.5 671 c 128,-1,16
 771 628 771 628 821 545.5 c 128,-1,17
 871 463 871 463 871 350 c 0,18,19
 871 178 871 178 760 82 c 0,20,21
 706 35 706 35 629 11 c 1,22,23
 713 -3 713 -3 776 -24.5 c 128,-1,24
 839 -46 839 -46 921 -76 c 0,25,26
 1056 -125 1056 -125 1170 -125 c 128,-1,27
 1284 -125 1284 -125 1369 -64 c 1,28,-1
 1376 -67 l 1,29,30
 1376 -131 1376 -131 1348.5 -182.5 c 128,-1,31
 1321 -234 1321 -234 1269 -264 c 0,0,1
261 350 m 128,-1,33
 261 202 261 202 312.5 119 c 128,-1,34
 364 36 364 36 455.5 36 c 128,-1,35
 547 36 547 36 598.5 119 c 128,-1,36
 650 202 650 202 650 350 c 128,-1,37
 650 498 650 498 598.5 581 c 128,-1,38
 547 664 547 664 455.5 664 c 128,-1,39
 364 664 364 664 312.5 581 c 128,-1,32
 261 498 261 498 261 350 c 128,-1,33
EndSplineSet
EndChar

StartChar: r
Encoding: 114 114 85
Width: 792
GlyphClass: 2
Flags: W
LayerCount: 2
Fore
SplineSet
675 590 m 0,0,1
 691 555 691 555 691 517.5 c 128,-1,2
 691 480 691 480 683 451.5 c 128,-1,3
 675 423 675 423 658 395 c 0,4,5
 621 335 621 335 531 321 c 1,6,7
 570 310 570 310 601 282 c 1,8,9
 634 254 634 254 663 204 c 0,10,11
 738 76 738 76 778 39 c 0,12,13
 808 11 808 11 854 10 c 1,14,-1
 854 0 l 1,15,-1
 729 0 l 2,16,17
 599 0 599 0 543 29 c 0,18,19
 463 70 463 70 429 170 c 0,20,21
 420 199 420 199 413.5 231 c 128,-1,22
 407 263 407 263 402.5 277.5 c 128,-1,23
 398 292 398 292 392 304.5 c 128,-1,24
 386 317 386 317 379 324 c 0,25,26
 367 336 367 336 351 342 c 1,27,-1
 351 352 l 1,28,-1
 367 352 l 2,29,30
 425 352 425 352 454 405 c 0,31,32
 469 433 469 433 472.5 465.5 c 128,-1,33
 476 498 476 498 476 506 c 128,-1,34
 476 514 476 514 476 516 c 0,35,36
 469 648 469 648 362 648 c 2,37,-1
 318 648 l 1,38,-1
 318 73 l 2,39,40
 318 47 318 47 337 28.5 c 128,-1,41
 356 10 356 10 382 10 c 2,42,-1
 394 10 l 1,43,-1
 394 0 l 1,44,-1
 35 0 l 1,45,-1
 35 10 l 1,46,-1
 48 10 l 2,47,48
 74 10 74 10 92.5 28 c 128,-1,49
 111 46 111 46 112 72 c 1,50,-1
 112 627 l 1,51,52
 111 664 111 664 80 682 c 0,53,54
 65 690 65 690 48 690 c 2,55,-1
 35 690 l 1,56,-1
 35 700 l 1,57,-1
 426 700 l 2,58,59
 622 700 622 700 675 590 c 0,0,1
EndSplineSet
EndChar

StartChar: s
Encoding: 115 115 86
Width: 645
GlyphClass: 2
Flags: W
LayerCount: 2
Fore
SplineSet
520 45.5 m 128,-1,1
 434 -14 434 -14 291 -14 c 0,2,3
 208 -14 208 -14 145 4.5 c 128,-1,4
 82 23 82 23 54 51 c 1,5,6
 45 73 45 73 45 98.5 c 128,-1,7
 45 124 45 124 49 148 c 0,8,9
 60 207 60 207 86 240 c 1,10,-1
 95 240 l 1,11,12
 94 234 94 234 94 227 c 0,13,14
 94 153 94 153 152.5 94.5 c 128,-1,15
 211 36 211 36 312 36 c 0,16,17
 380 36 380 36 416.5 64.5 c 128,-1,18
 453 93 453 93 453 129.5 c 128,-1,19
 453 166 453 166 428 192 c 128,-1,20
 403 218 403 218 347 244 c 2,21,-1
 184 320 l 1,22,23
 115 351 115 351 84 407 c 0,24,25
 59 451 59 451 59 504 c 0,26,27
 59 612 59 612 132 668 c 0,28,29
 193 714 193 714 294 714 c 0,30,31
 360 714 360 714 463 704 c 1,32,-1
 541 704 l 1,33,-1
 519 541 l 1,34,-1
 509 541 l 1,35,36
 509 596 509 596 466 630 c 128,-1,37
 423 664 423 664 356.5 664 c 128,-1,38
 290 664 290 664 253.5 641 c 128,-1,39
 217 618 217 618 214 580 c 0,40,41
 210 533 210 533 274 500 c 0,42,43
 285 494 285 494 303 487 c 1,44,-1
 490 400 l 2,45,46
 606 347 606 347 606 226 c 128,-1,0
 606 105 606 105 520 45.5 c 128,-1,1
EndSplineSet
EndChar

StartChar: t
Encoding: 116 116 87
Width: 698
GlyphClass: 2
Flags: W
LayerCount: 2
Fore
SplineSet
452 651 m 1,0,-1
 452 72 l 1,1,2
 453 46 453 46 471.5 28 c 128,-1,3
 490 10 490 10 516 10 c 2,4,-1
 529 10 l 1,5,-1
 529 0 l 1,6,-1
 170 0 l 1,7,-1
 170 10 l 1,8,-1
 183 10 l 2,9,10
 209 10 209 10 227.5 28 c 128,-1,11
 246 46 246 46 247 71 c 1,12,-1
 247 651 l 1,13,-1
 148 651 l 1,14,15
 88 650 88 650 54 615.5 c 128,-1,16
 20 581 20 581 20 521 c 2,17,-1
 20 514 l 1,18,-1
 10 513 l 1,19,-1
 10 719 l 1,20,21
 24 713 24 713 60.5 707 c 128,-1,22
 97 701 97 701 128 701 c 2,23,-1
 571 701 l 2,24,25
 602 701 602 701 638 707 c 128,-1,26
 674 713 674 713 689 719 c 1,27,-1
 689 513 l 1,28,-1
 679 514 l 1,29,-1
 679 521 l 2,30,31
 679 602 679 602 619 635 c 0,32,33
 590 650 590 650 550 651 c 1,34,-1
 452 651 l 1,0,-1
EndSplineSet
EndChar

StartChar: u
Encoding: 117 117 88
Width: 845
GlyphClass: 2
Flags: W
LayerCount: 2
Fore
SplineSet
825 690 m 1,0,-1
 809 690 l 2,1,2
 788 690 788 690 772.5 676.5 c 128,-1,3
 757 663 757 663 756 643 c 1,4,-1
 756 257 l 2,5,6
 756 130 756 130 677.5 58 c 128,-1,7
 599 -14 599 -14 457 -14 c 0,8,9
 277 -14 277 -14 188 56 c 128,-1,10
 99 126 99 126 99 256 c 2,11,-1
 99 640 l 2,12,13
 99 662 99 662 83.5 676 c 128,-1,14
 68 690 68 690 46 690 c 2,15,-1
 30 690 l 1,16,-1
 30 700 l 1,17,-1
 373 700 l 1,18,-1
 373 690 l 1,19,-1
 357 690 l 2,20,21
 335 690 335 690 320 676.5 c 128,-1,22
 305 663 305 663 304 642 c 1,23,-1
 304 260 l 2,24,25
 304 155 304 155 352 96 c 128,-1,26
 400 37 400 37 486 37 c 128,-1,27
 572 37 572 37 620.5 92.5 c 128,-1,28
 669 148 669 148 669 247 c 2,29,-1
 669 642 l 1,30,31
 668 663 668 663 653 676.5 c 128,-1,32
 638 690 638 690 616 690 c 2,33,-1
 600 690 l 1,34,-1
 600 700 l 1,35,-1
 825 700 l 1,36,-1
 825 690 l 1,0,-1
EndSplineSet
EndChar

StartChar: v
Encoding: 118 118 89
Width: 720
GlyphClass: 2
Flags: W
LayerCount: 2
Fore
SplineSet
760 690 m 1,0,-1
 751 690 l 2,1,2
 699 690 699 690 668 636 c 1,3,-1
 435 125 l 1,4,5
 382 13 382 13 378 -24 c 1,6,-1
 369 -24 l 1,7,-1
 52 635 l 1,8,9
 21 690 21 690 -32 690 c 2,10,-1
 -40 690 l 1,11,-1
 -40 700 l 1,12,-1
 339 700 l 1,13,-1
 339 690 l 1,14,-1
 330 690 l 2,15,16
 309 690 309 690 298.5 676.5 c 128,-1,17
 288 663 288 663 288 651 c 128,-1,18
 288 639 288 639 292 627 c 2,19,-1
 435 284 l 1,20,-1
 584 627 l 2,21,22
 590 640 590 640 590 651.5 c 128,-1,23
 590 663 590 663 579 676.5 c 128,-1,24
 568 690 568 690 546 690 c 2,25,-1
 537 690 l 1,26,-1
 537 700 l 1,27,-1
 760 700 l 1,28,-1
 760 690 l 1,0,-1
EndSplineSet
EndChar

StartChar: w
Encoding: 119 119 90
Width: 964
GlyphClass: 2
Flags: W
LayerCount: 2
Fore
SplineSet
1004 690 m 1,0,-1
 996 690 l 2,1,2
 961 690 961 690 933 666 c 0,3,4
 917 652 917 652 910 633 c 1,5,-1
 740 89 l 2,6,7
 738 81 738 81 735 68 c 2,8,-1
 728 37 l 1,9,10
 725 15 725 15 725 1 c 128,-1,11
 725 -13 725 -13 726 -22 c 1,12,-1
 716 -22 l 1,13,-1
 485 413 l 1,14,-1
 327 89 l 1,15,16
 301 33 301 33 300 -22 c 1,17,-1
 291 -22 l 1,18,-1
 44 633 l 1,19,20
 30 662 30 662 6.5 676 c 128,-1,21
 -17 690 -17 690 -42 690 c 2,22,-1
 -50 690 l 1,23,-1
 -50 700 l 1,24,-1
 309 700 l 1,25,-1
 309 690 l 1,26,-1
 300 690 l 2,27,28
 270 690 270 690 260 662 c 1,29,30
 259 656 259 656 259 648 c 128,-1,31
 259 640 259 640 263 628 c 2,32,-1
 372 356 l 1,33,-1
 545 716 l 1,34,-1
 554 715 l 1,35,-1
 753 347 l 1,36,-1
 833 628 l 1,37,38
 835 639 835 639 835 647.5 c 128,-1,39
 835 656 835 656 832 666 c 128,-1,40
 829 676 829 676 819 683 c 128,-1,41
 809 690 809 690 795 690 c 2,42,-1
 786 690 l 1,43,-1
 786 700 l 1,44,-1
 1004 700 l 1,45,-1
 1004 690 l 1,0,-1
EndSplineSet
EndChar

StartChar: x
Encoding: 120 120 91
Width: 773
GlyphClass: 2
Flags: W
LayerCount: 2
Fore
SplineSet
419 10 m 2,0,1
 440 10 440 10 453 31 c 0,2,3
 459 41 459 41 459 51 c 128,-1,4
 459 61 459 61 453 72 c 1,5,-1
 321 273 l 1,6,-1
 179 72 l 1,7,8
 162 42 162 42 189 20 c 0,9,10
 201 10 201 10 214 10 c 2,11,-1
 227 10 l 1,12,-1
 227 0 l 1,13,-1
 -33 0 l 1,14,-1
 -33 10 l 1,15,-1
 -19 10 l 2,16,17
 35 10 35 10 80 67 c 1,18,-1
 279 339 l 1,19,-1
 88 632 l 1,20,21
 71 656 71 656 44 673 c 128,-1,22
 17 690 17 690 -13 690 c 2,23,-1
 -27 690 l 1,24,-1
 -27 700 l 1,25,-1
 375 700 l 1,26,-1
 375 690 l 1,27,-1
 363 690 l 2,28,29
 341 690 341 690 329 669 c 1,30,31
 322 659 322 659 322 648.5 c 128,-1,32
 322 638 322 638 328 628 c 2,33,-1
 445 451 l 1,34,-1
 558 628 l 1,35,36
 574 658 574 658 548 680 c 0,37,38
 537 690 537 690 523 690 c 2,39,-1
 511 690 l 1,40,-1
 510 700 l 1,41,-1
 769 700 l 1,42,-1
 769 690 l 1,43,-1
 755 690 l 2,44,45
 697 690 697 690 656 632 c 1,46,-1
 489 383 l 1,47,-1
 695 68 l 2,48,49
 711 44 711 44 738.5 27 c 128,-1,50
 766 10 766 10 796 10 c 2,51,-1
 810 10 l 1,52,-1
 810 0 l 1,53,-1
 406 0 l 1,54,-1
 406 10 l 1,55,-1
 419 10 l 2,0,1
EndSplineSet
EndChar

StartChar: y
Encoding: 121 121 92
Width: 729
GlyphClass: 2
Flags: W
LayerCount: 2
Fore
SplineSet
775 690 m 1,0,-1
 761 690 l 2,1,2
 731 690 731 690 703.5 673 c 128,-1,3
 676 656 676 656 660 631 c 2,4,-1
 464 322 l 1,5,-1
 464 73 l 2,6,7
 464 47 464 47 482.5 28.5 c 128,-1,8
 501 10 501 10 528 10 c 2,9,-1
 540 10 l 1,10,-1
 540 0 l 1,11,-1
 182 0 l 1,12,-1
 182 10 l 1,13,-1
 195 10 l 2,14,15
 221 10 221 10 239.5 28 c 128,-1,16
 258 46 258 46 259 72 c 1,17,-1
 259 322 l 1,18,-1
 68 633 l 2,19,20
 43 672 43 672 -1 685 c 0,21,22
 -16 690 -16 690 -31 690 c 2,23,-1
 -45 690 l 1,24,-1
 -45 700 l 1,25,-1
 341 700 l 1,26,-1
 341 690 l 1,27,-1
 329 690 l 2,28,29
 307 690 307 690 295 670 c 0,30,31
 288 659 288 659 288 648.5 c 128,-1,32
 288 638 288 638 294 628 c 2,33,-1
 431 381 l 1,34,-1
 573 628 l 2,35,36
 579 638 579 638 579 648 c 128,-1,37
 579 658 579 658 572 669 c 0,38,39
 559 690 559 690 538 690 c 2,40,-1
 526 690 l 1,41,-1
 526 700 l 1,42,-1
 775 700 l 1,43,-1
 775 690 l 1,0,-1
EndSplineSet
EndChar

StartChar: z
Encoding: 122 122 93
Width: 667
GlyphClass: 2
Flags: W
LayerCount: 2
Fore
SplineSet
49 719 m 1,0,1
 64 713 64 713 101.5 707 c 128,-1,2
 139 701 139 701 154.5 701 c 128,-1,3
 170 701 170 701 170 701 c 1,4,-1
 515 701 l 2,5,6
 557 701 557 701 586 706 c 128,-1,7
 615 711 615 711 621 714 c 1,8,-1
 621 705 l 1,9,-1
 285 50 l 1,10,-1
 426 50 l 2,11,12
 499 50 499 50 555 98.5 c 128,-1,13
 611 147 611 147 634 232 c 1,14,-1
 644 232 l 1,15,-1
 606 0 l 1,16,-1
 35 0 l 1,17,-1
 35 9 l 1,18,-1
 367 651 l 1,19,-1
 187 651 l 1,20,21
 127 650 127 650 93 615.5 c 128,-1,22
 59 581 59 581 59 521 c 2,23,-1
 59 513 l 1,24,-1
 49 513 l 1,25,-1
 49 719 l 1,0,1
EndSplineSet
EndChar

StartChar: braceleft
Encoding: 123 123 94
Width: 445
GlyphClass: 2
Flags: W
LayerCount: 2
Fore
SplineSet
0 458 m 1,1,2
 0 458 0 458 8 461 c 1,3,4
 17 405 17 405 50 383 c 0,5,6
 68 371 68 371 84.5 371 c 128,-1,7
 101 371 101 371 118.5 380 c 128,-1,8
 136 389 136 389 145.5 413 c 128,-1,9
 155 437 155 437 155 461 c 1,10,-1
 149 564 l 2,11,12
 149 567 149 567 149 570 c 0,13,14
 149 625 149 625 165.5 671 c 128,-1,15
 182 717 182 717 211 745 c 0,16,17
 275 809 275 809 364 809 c 0,18,19
 441 809 441 809 496 768 c 1,20,-1
 491 761 l 1,21,22
 459 769 459 769 441.5 769 c 128,-1,23
 424 769 424 769 413 766 c 0,24,25
 384 756 384 756 374 735 c 0,26,27
 368 723 368 723 363.5 707 c 128,-1,28
 359 691 359 691 356 609 c 0,29,30
 350 454 350 454 292 398 c 0,31,32
 230 339 230 339 121 339 c 0,33,0
 16 339 16 339 0 458 c 1,1,2
491 -131 m 1,34,-1
 496 -138 l 1,35,36
 441 -179 441 -179 364 -179 c 0,37,38
 275 -179 275 -179 211 -115 c 0,39,40
 182 -87 182 -87 165.5 -41 c 128,-1,41
 149 5 149 5 149 59 c 1,42,-1
 154 158 l 2,43,44
 154 174 154 174 152 192 c 0,45,46
 148 234 148 234 116 250 c 1,47,48
 101 259 101 259 84.5 259 c 128,-1,49
 68 259 68 259 50 247 c 0,50,51
 17 225 17 225 8 168 c 1,52,-1
 0 171 l 1,53,54
 5 208 5 208 18.5 233.5 c 128,-1,55
 32 259 32 259 48 270.5 c 128,-1,56
 64 282 64 282 85.5 286.5 c 128,-1,57
 107 291 107 291 115 291 c 128,-1,58
 123 291 123 291 125 291 c 0,59,60
 234 287 234 287 292 232 c 0,61,62
 319 206 319 206 334 163 c 128,-1,63
 349 120 349 120 352 81 c 128,-1,64
 355 42 355 42 356 16.5 c 128,-1,65
 357 -9 357 -9 357.5 -25 c 128,-1,66
 358 -41 358 -41 361 -61.5 c 128,-1,67
 364 -82 364 -82 369 -94 c 128,-1,68
 374 -106 374 -106 383.5 -118 c 128,-1,69
 393 -130 393 -130 406.5 -134 c 128,-1,70
 420 -138 420 -138 441 -138 c 128,-1,71
 462 -138 462 -138 491 -131 c 1,34,-1
EndSplineSet
EndChar

StartChar: bar
Encoding: 124 124 95
Width: 265
GlyphClass: 2
Flags: W
LayerCount: 2
Fore
SplineSet
100 -180 m 1,0,-1
 100 700 l 1,1,-1
 165 700 l 1,2,-1
 165 -180 l 1,3,-1
 100 -180 l 1,0,-1
EndSplineSet
EndChar

StartChar: braceright
Encoding: 125 125 96
Width: 445
GlyphClass: 2
Flags: W
LayerCount: 2
Fore
SplineSet
292 472 m 2,0,1
 292 456 292 456 294 438 c 0,2,3
 298 396 298 396 329 379 c 0,4,5
 345 371 345 371 361.5 371 c 128,-1,6
 378 371 378 371 396 383 c 0,7,8
 428 405 428 405 438 461 c 1,9,-1
 446 458 l 1,10,11
 437 395 437 395 408 369 c 0,12,13
 394 357 394 357 377 348 c 128,-1,14
 360 339 360 339 322 339 c 0,15,16
 215 339 215 339 153 398 c 0,17,18
 127 423 127 423 111.5 466 c 128,-1,19
 96 509 96 509 93 552.5 c 128,-1,20
 90 596 90 596 88 659 c 0,21,22
 87 694 87 694 77 724 c 0,23,24
 55 787 55 787 -45 761 c 1,25,-1
 -50 768 l 1,26,27
 5 809 5 809 82 809 c 0,28,29
 170 809 170 809 235 745 c 0,30,31
 263 717 263 717 280 671 c 128,-1,32
 297 625 297 625 297 570 c 1,33,-1
 292 472 l 2,0,1
446 171 m 1,34,-1
 438 168 l 1,35,36
 433 197 433 197 421 218 c 0,37,38
 398 259 398 259 357 259 c 0,39,40
 326 259 326 259 304 226 c 0,41,42
 292 207 292 207 292 158 c 1,43,-1
 297 59 l 1,44,45
 297 5 297 5 280 -41 c 128,-1,46
 263 -87 263 -87 235 -115 c 0,47,48
 170 -179 170 -179 82 -179 c 0,49,50
 5 -179 5 -179 -50 -138 c 1,51,-1
 -45 -131 l 1,52,53
 -16 -138 -16 -138 5 -138 c 128,-1,54
 26 -138 26 -138 39 -134 c 0,55,56
 64 -127 64 -127 79 -88 c 0,57,58
 86 -71 86 -71 89 16 c 0,59,60
 95 176 95 176 153 232 c 1,61,62
 216 291 216 291 324 291 c 0,63,64
 430 291 430 291 446 171 c 1,34,-1
EndSplineSet
EndChar

StartChar: asciitilde
Encoding: 126 126 97
Width: 494
GlyphClass: 2
Flags: W
LayerCount: 2
Fore
SplineSet
461 363 m 1,0,1
 467 336 467 336 467 319 c 128,-1,2
 467 302 467 302 463.5 282 c 128,-1,3
 460 262 460 262 441 242 c 0,4,5
 404 204 404 204 346 204 c 0,6,7
 307 204 307 204 257 238 c 0,8,9
 235 252 235 252 215 267 c 0,10,11
 164 303 164 303 138 303 c 128,-1,12
 112 303 112 303 99 281 c 0,13,14
 92 268 92 268 92 249.5 c 128,-1,15
 92 231 92 231 97 209 c 1,16,-1
 32 209 l 1,17,18
 27 232 27 232 27 253 c 0,19,20
 27 296 27 296 50 324 c 0,21,22
 85 368 85 368 142 368 c 0,23,24
 166 368 166 368 197.5 353 c 128,-1,25
 229 338 229 338 253 319 c 1,26,27
 321 269 321 269 350 269 c 128,-1,28
 379 269 379 269 395 292 c 0,29,30
 403 304 403 304 403 321.5 c 128,-1,31
 403 339 403 339 393 363 c 1,32,-1
 461 363 l 1,0,1
EndSplineSet
EndChar

StartChar: exclamdown
Encoding: 161 161 98
Width: 295
GlyphClass: 2
Flags: W
LayerCount: 2
Fore
SplineSet
149.5 716 m 128,-1,1
 187 716 187 716 213.5 689.5 c 128,-1,2
 240 663 240 663 240 625.5 c 128,-1,3
 240 588 240 588 213.5 562 c 128,-1,4
 187 536 187 536 149.5 536 c 128,-1,5
 112 536 112 536 86 562 c 128,-1,6
 60 588 60 588 60 625.5 c 128,-1,7
 60 663 60 663 86 689.5 c 128,-1,0
 112 716 112 716 149.5 716 c 128,-1,1
68 339 m 1,8,-1
 113 472 l 1,9,-1
 183 472 l 1,10,-1
 228 339 l 1,11,-1
 250 0 l 1,12,-1
 45 0 l 1,13,-1
 68 339 l 1,8,-1
EndSplineSet
EndChar

StartChar: cent
Encoding: 162 162 99
Width: 578
GlyphClass: 2
Flags: W
LayerCount: 2
Fore
SplineSet
95.5 158.5 m 128,-1,1
 15 229 15 229 15 353 c 128,-1,2
 15 477 15 477 106 547 c 128,-1,3
 197 617 197 617 361 617 c 1,4,-1
 368 701 l 1,5,-1
 415 700 l 1,6,-1
 408 615 l 1,7,8
 488 608 488 608 542 586 c 1,9,-1
 531 439 l 1,10,-1
 525 439 l 1,11,12
 491 555 491 555 405 571 c 1,13,-1
 368 121 l 1,14,15
 423 123 423 123 445 137 c 128,-1,16
 467 151 467 151 478 163.5 c 128,-1,17
 489 176 489 176 498 198 c 0,18,19
 514 234 514 234 528 304 c 1,20,-1
 534 304 l 1,21,-1
 557 166 l 1,22,23
 507 81 507 81 364 78 c 1,24,-1
 357 -9 l 1,25,-1
 311 -6 l 1,26,-1
 318 79 l 1,27,0
 176 88 176 88 95.5 158.5 c 128,-1,1
322 125 m 1,28,-1
 358 573 l 1,29,30
 201 566 201 566 202 351 c 1,31,32
 201 154 201 154 322 125 c 1,28,-1
EndSplineSet
EndChar

StartChar: sterling
Encoding: 163 163 100
Width: 620
GlyphClass: 2
Flags: W
LayerCount: 2
Fore
SplineSet
571 24 m 1,0,1
 525 3 525 3 468 -3.5 c 128,-1,2
 411 -10 411 -10 384 -10 c 0,3,4
 337 -10 337 -10 257.5 7 c 128,-1,5
 178 24 178 24 159 24 c 128,-1,6
 140 24 140 24 129.5 23.5 c 128,-1,7
 119 23 119 23 83 10.5 c 128,-1,8
 47 -2 47 -2 40 -10 c 1,9,-1
 30 -10 l 1,10,-1
 30 0 l 1,11,12
 86 110 86 110 102 205 c 0,13,14
 110 258 110 258 112 319 c 1,15,-1
 30 319 l 1,16,-1
 48 375 l 1,17,-1
 112 375 l 1,18,19
 112 381 112 381 112 387 c 0,20,21
 112 698 112 698 388 714 c 0,22,23
 403 715 403 715 438 715 c 128,-1,24
 473 715 473 715 520.5 700.5 c 128,-1,25
 568 686 568 686 591 657 c 1,26,-1
 543 515 l 1,27,-1
 533 515 l 1,28,29
 530 594 530 594 505.5 629 c 128,-1,30
 481 664 481 664 429 664 c 0,31,32
 325 664 325 664 317 527 c 0,33,34
 315 496 315 496 315 458.5 c 128,-1,35
 315 421 315 421 317 375 c 1,36,-1
 498 375 l 1,37,-1
 477 319 l 1,38,-1
 319 319 l 1,39,40
 318 198 318 198 279 144 c 0,41,42
 245 97 245 97 183 79 c 1,43,44
 194 82 194 82 204.5 82 c 128,-1,45
 215 82 215 82 228.5 81.5 c 128,-1,46
 242 81 242 81 256 79 c 128,-1,47
 270 77 270 77 296 73 c 0,48,49
 341 67 341 67 367 67 c 128,-1,50
 393 67 393 67 423.5 72.5 c 128,-1,51
 454 78 454 78 489 95 c 0,52,53
 562 131 562 131 606 219 c 1,54,-1
 616 219 l 1,55,-1
 571 24 l 1,0,1
EndSplineSet
EndChar

StartChar: currency
Encoding: 164 164 101
Width: 541
GlyphClass: 2
Flags: W
LayerCount: 2
Fore
SplineSet
410 193 m 1,0,1
 350 139 350 139 270 139 c 128,-1,2
 190 139 190 139 130 191 c 1,3,-1
 71 132 l 1,4,-1
 50 154 l 1,5,-1
 109 212 l 1,6,7
 56 272 56 272 56 352.5 c 128,-1,8
 56 433 56 433 110 493 c 1,9,-1
 50 553 l 1,10,-1
 71 574 l 1,11,-1
 131 514 l 1,12,13
 191 565 191 565 270 565 c 128,-1,14
 349 565 349 565 409 513 c 1,15,-1
 470 574 l 1,16,-1
 492 553 l 1,17,-1
 430 492 l 1,18,19
 482 432 482 432 482 352.5 c 128,-1,20
 482 273 482 273 431 214 c 1,21,-1
 492 154 l 1,22,-1
 470 132 l 1,23,-1
 410 193 l 1,0,1
269.5 169 m 128,-1,25
 345 169 345 169 398.5 222.5 c 128,-1,26
 452 276 452 276 452 352 c 128,-1,27
 452 428 452 428 398.5 481.5 c 128,-1,28
 345 535 345 535 269.5 535 c 128,-1,29
 194 535 194 535 140 481.5 c 128,-1,30
 86 428 86 428 86 352 c 128,-1,31
 86 276 86 276 140 222.5 c 128,-1,24
 194 169 194 169 269.5 169 c 128,-1,25
EndSplineSet
EndChar

StartChar: yen
Encoding: 165 165 102
Width: 729
GlyphClass: 2
Flags: W
LayerCount: 2
Fore
SplineSet
775 690 m 1,0,-1
 761 690 l 2,1,2
 731 690 731 690 703.5 673 c 128,-1,3
 676 656 676 656 660 631 c 2,4,-1
 529 425 l 1,5,-1
 623 425 l 1,6,-1
 623 375 l 1,7,-1
 497 375 l 1,8,-1
 464 322 l 1,9,-1
 464 315 l 1,10,-1
 623 315 l 1,11,-1
 623 265 l 1,12,-1
 464 265 l 1,13,-1
 464 73 l 2,14,15
 464 47 464 47 482.5 28.5 c 128,-1,16
 501 10 501 10 528 10 c 2,17,-1
 540 10 l 1,18,-1
 540 0 l 1,19,-1
 182 0 l 1,20,-1
 182 10 l 1,21,-1
 195 10 l 2,22,23
 221 10 221 10 239.5 28 c 128,-1,24
 258 46 258 46 259 72 c 1,25,-1
 259 265 l 1,26,-1
 97 265 l 1,27,-1
 97 315 l 1,28,-1
 259 315 l 1,29,-1
 259 322 l 1,30,-1
 226 375 l 1,31,-1
 97 375 l 1,32,-1
 97 425 l 1,33,-1
 196 425 l 1,34,-1
 68 633 l 2,35,36
 43 672 43 672 -1 685 c 0,37,38
 -16 690 -16 690 -31 690 c 2,39,-1
 -45 690 l 1,40,-1
 -45 700 l 1,41,-1
 341 700 l 1,42,-1
 341 690 l 1,43,-1
 329 690 l 2,44,45
 307 690 307 690 295 670 c 0,46,47
 288 659 288 659 288 648.5 c 128,-1,48
 288 638 288 638 294 628 c 2,49,-1
 431 381 l 1,50,-1
 573 628 l 2,51,52
 579 638 579 638 579 648 c 128,-1,53
 579 658 579 658 572 669 c 0,54,55
 559 690 559 690 538 690 c 2,56,-1
 526 690 l 1,57,-1
 526 700 l 1,58,-1
 775 700 l 1,59,-1
 775 690 l 1,0,-1
EndSplineSet
EndChar

StartChar: brokenbar
Encoding: 166 166 103
Width: 265
GlyphClass: 2
Flags: W
LayerCount: 2
Fore
SplineSet
100 350 m 1,0,-1
 100 700 l 1,1,-1
 165 700 l 1,2,-1
 165 350 l 1,3,-1
 100 350 l 1,0,-1
100 -180 m 1,4,-1
 100 170 l 1,5,-1
 165 170 l 1,6,-1
 165 -180 l 1,7,-1
 100 -180 l 1,4,-1
EndSplineSet
EndChar

StartChar: section
Encoding: 167 167 104
Width: 536
GlyphClass: 2
Flags: W
LayerCount: 2
Fore
SplineSet
331 716 m 0,0,1
 415 716 415 716 461 678 c 1,2,3
 488 654 488 654 488 632.5 c 128,-1,4
 488 611 488 611 474 591 c 1,5,6
 454 559 454 559 427 559 c 0,7,8
 410 559 410 559 385 577.5 c 128,-1,9
 360 596 360 596 344 612 c 0,10,11
 311 646 311 646 279 655 c 0,12,13
 275 656 275 656 267.5 656 c 128,-1,14
 260 656 260 656 247 646.5 c 128,-1,15
 234 637 234 637 234 622.5 c 128,-1,16
 234 608 234 608 241.5 592.5 c 128,-1,17
 249 577 249 577 261.5 560 c 128,-1,18
 274 543 274 543 292 523.5 c 128,-1,19
 310 504 310 504 325.5 488 c 128,-1,20
 341 472 341 472 359 455 c 0,21,22
 433 380 433 380 469 301 c 0,23,24
 512 206 512 206 512 125 c 0,25,26
 512 12 512 12 447 -65 c 0,27,28
 410 -108 410 -108 351.5 -133.5 c 128,-1,29
 293 -159 293 -159 228.5 -159 c 128,-1,30
 164 -159 164 -159 117 -141 c 0,31,32
 44 -113 44 -113 44 -65 c 0,33,34
 44 -50 44 -50 53 -32 c 1,35,36
 75 4 75 4 104 4 c 0,37,38
 123 4 123 4 151 -15 c 128,-1,39
 179 -34 179 -34 197 -51 c 0,40,41
 235 -86 235 -86 269 -95 c 0,42,43
 273 -96 273 -96 281 -96 c 128,-1,44
 289 -96 289 -96 302 -85.5 c 128,-1,45
 315 -75 315 -75 315 -60 c 128,-1,46
 315 -45 315 -45 295.5 -18 c 128,-1,47
 276 9 276 9 219.5 63.5 c 128,-1,48
 163 118 163 118 145 136 c 0,49,50
 93 187 93 187 64 245 c 0,51,52
 26 319 26 319 26 399 c 0,53,54
 26 545 26 545 137 644 c 0,55,56
 217 716 217 716 331 716 c 0,0,1
145 583 m 1,57,58
 119 526 119 526 119 468 c 0,59,60
 119 430 119 430 148 375 c 0,61,62
 164 343 164 343 193 312.5 c 128,-1,63
 222 282 222 282 250 253.5 c 128,-1,64
 278 225 278 225 295 206.5 c 128,-1,65
 312 188 312 188 337 156 c 128,-1,66
 362 124 362 124 374 99 c 0,67,68
 397 51 397 51 397 5 c 0,69,70
 397 -8 397 -8 395 -21 c 1,71,72
 418 26 418 26 418 77 c 0,73,74
 418 156 418 156 322 264 c 0,75,76
 308 279 308 279 279 310 c 128,-1,77
 250 341 250 341 236 357 c 128,-1,78
 222 373 222 373 202 398 c 128,-1,79
 182 423 182 423 174 439 c 0,80,81
 151 488 151 488 148 518.5 c 128,-1,82
 145 549 145 549 145 564.5 c 128,-1,83
 145 580 145 580 145 583 c 1,57,58
EndSplineSet
EndChar

StartChar: dieresis
Encoding: 168 168 105
Width: 600
GlyphClass: 2
Flags: W
LayerCount: 2
Fore
SplineSet
149.5 665 m 128,-1,1
 119 665 119 665 97.5 687 c 128,-1,2
 76 709 76 709 76 739.5 c 128,-1,3
 76 770 76 770 97.5 791.5 c 128,-1,4
 119 813 119 813 149.5 813 c 128,-1,5
 180 813 180 813 201.5 791.5 c 128,-1,6
 223 770 223 770 223 739.5 c 128,-1,7
 223 709 223 709 201.5 687 c 128,-1,0
 180 665 180 665 149.5 665 c 128,-1,1
411.5 665 m 128,-1,9
 381 665 381 665 359.5 687 c 128,-1,10
 338 709 338 709 338 739.5 c 128,-1,11
 338 770 338 770 359.5 791.5 c 128,-1,12
 381 813 381 813 411.5 813 c 128,-1,13
 442 813 442 813 463.5 791.5 c 128,-1,14
 485 770 485 770 485 739.5 c 128,-1,15
 485 709 485 709 463.5 687 c 128,-1,8
 442 665 442 665 411.5 665 c 128,-1,9
EndSplineSet
EndChar

StartChar: copyright
Encoding: 169 169 106
Width: 848
GlyphClass: 2
Flags: W
LayerCount: 2
Fore
SplineSet
424 714 m 128,-1,1
 575 714 575 714 681.5 607.5 c 128,-1,2
 788 501 788 501 788 350 c 128,-1,3
 788 199 788 199 681.5 92.5 c 128,-1,4
 575 -14 575 -14 424 -14 c 128,-1,5
 273 -14 273 -14 166.5 92.5 c 128,-1,6
 60 199 60 199 60 350 c 128,-1,7
 60 501 60 501 166.5 607.5 c 128,-1,0
 273 714 273 714 424 714 c 128,-1,1
644.5 570.5 m 128,-1,9
 553 662 553 662 424 662 c 128,-1,10
 295 662 295 662 203.5 570.5 c 128,-1,11
 112 479 112 479 112 350 c 128,-1,12
 112 221 112 221 203.5 129.5 c 128,-1,13
 295 38 295 38 424 38 c 128,-1,14
 553 38 553 38 644.5 129.5 c 128,-1,15
 736 221 736 221 736 350 c 256,16,8
 736 479 736 479 644.5 570.5 c 128,-1,9
353.5 217 m 128,-1,18
 386 169 386 169 449 169 c 128,-1,19
 512 169 512 169 555 209.5 c 128,-1,20
 598 250 598 250 610 326 c 1,21,-1
 616 326 l 1,22,-1
 639 218 l 1,23,24
 561 127 561 127 434 127 c 1,25,26
 326 128 326 128 255.5 191.5 c 128,-1,27
 185 255 185 255 185 350.5 c 128,-1,28
 185 446 185 446 256 509.5 c 128,-1,29
 327 573 327 573 436 573 c 0,30,31
 482 573 482 573 532 561.5 c 128,-1,32
 582 550 582 550 617 530 c 1,33,-1
 611 410 l 1,34,-1
 605 410 l 1,35,36
 553 532 553 532 442 532 c 0,37,38
 385 532 385 532 353 484 c 128,-1,39
 321 436 321 436 321 350.5 c 128,-1,17
 321 265 321 265 353.5 217 c 128,-1,18
EndSplineSet
EndChar

StartChar: ordfeminine
Encoding: 170 170 107
Width: 390
GlyphClass: 2
Flags: W
LayerCount: 2
Fore
SplineSet
391 381 m 2,0,-1
 395 381 l 1,1,-1
 395 377 l 1,2,-1
 190 377 l 1,3,-1
 190 381 l 1,4,-1
 195 381 l 2,5,6
 205 381 205 381 211.5 388 c 128,-1,7
 218 395 218 395 215 406 c 1,8,-1
 199 439 l 1,9,-1
 99 439 l 1,10,-1
 84 409 l 2,11,12
 78 397 78 397 85 389 c 128,-1,13
 92 381 92 381 103 381 c 2,14,-1
 108 381 l 1,15,-1
 108 377 l 1,16,-1
 -5 377 l 1,17,-1
 -5 381 l 1,18,-1
 -1 381 l 2,19,20
 25 381 25 381 40 404 c 1,21,-1
 155 635 l 1,22,23
 183 698 183 698 185 710 c 1,24,-1
 189 710 l 1,25,-1
 351 404 l 1,26,27
 367 381 367 381 391 381 c 2,0,-1
111 465 m 1,28,-1
 186 465 l 1,29,-1
 149 542 l 1,30,-1
 111 465 l 1,28,-1
EndSplineSet
EndChar

StartChar: guillemotleft
Encoding: 171 171 108
Width: 551
GlyphClass: 2
Flags: W
LayerCount: 2
Fore
SplineSet
283 485 m 1,0,1
 258 440 258 440 237.5 402 c 128,-1,2
 217 364 217 364 195 292 c 1,3,4
 220 210 220 210 284 95 c 1,5,-1
 275 88 l 1,6,7
 174 206 174 206 40 292 c 1,8,9
 112 336 112 336 168.5 380.5 c 128,-1,10
 225 425 225 425 275 490 c 1,11,-1
 283 485 l 1,0,1
491 485 m 1,12,13
 466 440 466 440 445.5 402 c 128,-1,14
 425 364 425 364 403 292 c 1,15,16
 428 210 428 210 492 95 c 1,17,-1
 483 88 l 1,18,19
 382 206 382 206 248 292 c 1,20,21
 320 336 320 336 376.5 380.5 c 128,-1,22
 433 425 433 425 483 490 c 1,23,-1
 491 485 l 1,12,13
EndSplineSet
EndChar

StartChar: logicalnot
Encoding: 172 172 109
Width: 600
GlyphClass: 2
Flags: W
LayerCount: 2
Fore
SplineSet
40 407 m 1,0,-1
 562 407 l 1,1,-1
 562 195 l 1,2,-1
 497 195 l 1,3,-1
 497 342 l 1,4,-1
 40 342 l 1,5,-1
 40 407 l 1,0,-1
EndSplineSet
EndChar

StartChar: softhyphen
Encoding: 173 173 110
Width: 380
GlyphClass: 2
Flags: W
LayerCount: 2
Fore
SplineSet
30 292 m 1,0,-1
 40 332 l 1,1,-1
 340 332 l 1,2,-1
 350 292 l 1,3,-1
 340 251 l 1,4,-1
 40 251 l 1,5,-1
 30 292 l 1,0,-1
EndSplineSet
EndChar

StartChar: registered
Encoding: 174 174 111
Width: 245
GlyphClass: 2
Flags: W
LayerCount: 2
Fore
SplineSet
123 701 m 128,-1,1
 170 701 170 701 203 668 c 128,-1,2
 236 635 236 635 236 588 c 128,-1,3
 236 541 236 541 203 508 c 128,-1,4
 170 475 170 475 123 475 c 128,-1,5
 76 475 76 475 43 508 c 128,-1,6
 10 541 10 541 10 588 c 128,-1,7
 10 635 10 635 43 668 c 128,-1,0
 76 701 76 701 123 701 c 128,-1,1
122.5 499 m 128,-1,9
 161 499 161 499 186.5 524.5 c 128,-1,10
 212 550 212 550 212 588 c 128,-1,11
 212 626 212 626 186.5 651.5 c 128,-1,12
 161 677 161 677 122.5 677 c 128,-1,13
 84 677 84 677 59 651.5 c 128,-1,14
 34 626 34 626 34 588 c 128,-1,15
 34 550 34 550 59 524.5 c 128,-1,8
 84 499 84 499 122.5 499 c 128,-1,9
170 617 m 0,16,17
 170 588 170 588 139 584 c 1,18,19
 150 582 150 582 164.5 559 c 128,-1,20
 179 536 179 536 190 532 c 1,21,-1
 190 530 l 1,22,-1
 171 530 l 2,23,24
 155 530 155 530 149 534.5 c 128,-1,25
 143 539 143 539 140 540.5 c 128,-1,26
 137 542 137 542 133.5 548.5 c 128,-1,27
 130 555 130 555 129 556.5 c 128,-1,28
 128 558 128 558 124 566 c 0,29,30
 115 588 115 588 112 588 c 1,31,-1
 112 590 l 1,32,-1
 122 590 l 1,33,34
 139 591 139 591 138 616 c 128,-1,35
 137 641 137 641 117 640 c 1,36,-1
 107 640 l 1,37,-1
 107 543 l 2,38,39
 107 532 107 532 117 532 c 2,40,-1
 120 532 l 1,41,-1
 120 530 l 1,42,-1
 63 530 l 1,43,-1
 63 532 l 1,44,-1
 65 532 l 2,45,46
 75 532 75 532 76 542 c 1,47,-1
 76 637 l 1,48,49
 75 648 75 648 65 648 c 2,50,-1
 63 648 l 1,51,-1
 63 650 l 1,52,-1
 126 650 l 2,53,54
 156 650 156 650 166 631 c 0,55,56
 170 625 170 625 170 617 c 0,16,17
EndSplineSet
EndChar

StartChar: macron
Encoding: 175 175 112
Width: 600
GlyphClass: 2
Flags: W
LayerCount: 2
Fore
SplineSet
150 703 m 1,0,-1
 150 788 l 1,1,-1
 440 788 l 1,2,-1
 440 703 l 1,3,-1
 150 703 l 1,0,-1
EndSplineSet
EndChar

StartChar: degree
Encoding: 176 176 113
Width: 237
GlyphClass: 2
Flags: W
LayerCount: 2
Fore
SplineSet
118.5 664 m 128,-1,1
 159 664 159 664 188 635.5 c 128,-1,2
 217 607 217 607 217 566 c 128,-1,3
 217 525 217 525 188 496 c 128,-1,4
 159 467 159 467 118.5 467 c 128,-1,5
 78 467 78 467 49 496 c 128,-1,6
 20 525 20 525 20 566 c 128,-1,7
 20 607 20 607 49 635.5 c 128,-1,0
 78 664 78 664 118.5 664 c 128,-1,1
118.5 606 m 128,-1,9
 102 606 102 606 90 594.5 c 128,-1,10
 78 583 78 583 78 566 c 128,-1,11
 78 549 78 549 90 537.5 c 128,-1,12
 102 526 102 526 118.5 526 c 128,-1,13
 135 526 135 526 147 537.5 c 128,-1,14
 159 549 159 549 159 566 c 128,-1,15
 159 583 159 583 147 594.5 c 128,-1,8
 135 606 135 606 118.5 606 c 128,-1,9
EndSplineSet
EndChar

StartChar: plusminus
Encoding: 177 177 114
Width: 481
GlyphClass: 2
Flags: W
LayerCount: 2
Fore
SplineSet
273 412 m 1,0,-1
 442 412 l 1,1,-1
 442 347 l 1,2,-1
 273 347 l 1,3,-1
 273 179 l 1,4,-1
 208 179 l 1,5,-1
 208 347 l 1,6,-1
 40 347 l 1,7,-1
 40 412 l 1,8,-1
 208 412 l 1,9,-1
 208 581 l 1,10,-1
 273 581 l 1,11,-1
 273 412 l 1,0,-1
40 50 m 1,12,-1
 40 115 l 1,13,-1
 442 115 l 1,14,-1
 442 50 l 1,15,-1
 40 50 l 1,12,-1
EndSplineSet
EndChar

StartChar: twosuperior
Encoding: 178 178 115
Width: 419
GlyphClass: 2
Flags: W
LayerCount: 2
Fore
SplineSet
156 687 m 0,0,1
 85 687 85 687 85 559 c 1,2,-1
 79 559 l 1,3,-1
 30 674 l 1,4,5
 84 719 84 719 193 719 c 0,6,7
 295 719 295 719 341 667 c 0,8,9
 364 642 364 642 364 609.5 c 128,-1,10
 364 577 364 577 348.5 548.5 c 128,-1,11
 333 520 333 520 308 498 c 0,12,13
 261 456 261 456 212 434 c 1,14,-1
 305 434 l 2,15,16
 356 434 356 434 384 496 c 1,17,-1
 389 496 l 1,18,-1
 348 308 l 1,19,-1
 38 308 l 1,20,-1
 38 313 l 1,21,22
 50 330 50 330 73.5 361 c 128,-1,23
 97 392 97 392 109.5 409.5 c 128,-1,24
 122 427 122 427 141 454 c 128,-1,25
 160 481 160 481 170.5 500 c 128,-1,26
 181 519 181 519 192 542 c 0,27,28
 212 585 212 585 212 620.5 c 128,-1,29
 212 656 212 656 196 671.5 c 128,-1,30
 180 687 180 687 156 687 c 0,0,1
EndSplineSet
EndChar

StartChar: threesuperior
Encoding: 179 179 116
Width: 373
GlyphClass: 2
Flags: W
LayerCount: 2
Fore
SplineSet
168 714 m 0,0,1
 297 714 297 714 320 646 c 0,2,3
 325 632 325 632 325 617 c 0,4,5
 325 581 325 581 304.5 562.5 c 128,-1,6
 284 544 284 544 254 543 c 1,7,8
 343 524 343 524 343 435 c 0,9,10
 343 383 343 383 311 347 c 0,11,12
 260 290 260 290 163 290 c 0,13,14
 87 290 87 290 27 323 c 1,15,-1
 28 328 l 1,16,17
 32 328 32 328 35 328 c 0,18,19
 101 328 101 328 148.5 358.5 c 128,-1,20
 196 389 196 389 196 440.5 c 128,-1,21
 196 492 196 492 166 514.5 c 128,-1,22
 136 537 136 537 100 538 c 1,23,-1
 101 543 l 1,24,25
 103 543 103 543 106 543 c 0,26,27
 140 543 140 543 163 568.5 c 128,-1,28
 186 594 186 594 186 625 c 0,29,30
 186 663 186 663 162 676 c 0,31,32
 148 684 148 684 136 684 c 0,33,34
 90 684 90 684 76 652 c 0,35,36
 65 627 65 627 65 576 c 0,37,38
 65 571 65 571 65 565 c 1,39,-1
 60 565 l 1,40,-1
 20 676 l 1,41,42
 70 714 70 714 168 714 c 0,0,1
EndSplineSet
EndChar

StartChar: acute
Encoding: 180 180 117
Width: 600
GlyphClass: 2
Flags: W
LayerCount: 2
Fore
SplineSet
211 743 m 1,0,-1
 204 750 l 1,1,2
 223 794 223 794 269 846.5 c 128,-1,3
 315 899 315 899 358 936 c 1,4,5
 422 909 422 909 444 836 c 1,6,7
 394 803 394 803 328.5 776 c 128,-1,8
 263 749 263 749 211 743 c 1,0,-1
EndSplineSet
EndChar

StartChar: paragraph
Encoding: 182 182 118
Width: 540
GlyphClass: 2
Flags: W
LayerCount: 2
Fore
SplineSet
432 147 m 2,0,1
 432 92 432 92 413.5 50.5 c 128,-1,2
 395 9 395 9 364 -13 c 1,3,-1
 355 -5 l 1,4,5
 380 37 380 37 381 85 c 0,6,7
 382 100 382 100 382 145 c 2,8,-1
 382 650 l 1,9,-1
 299 650 l 1,10,-1
 299 0 l 2,11,12
 299 -91 299 -91 256 -149 c 0,13,14
 232 -182 232 -182 193 -199 c 1,15,-1
 186 -190 l 1,16,17
 227 -148 227 -148 237 -114.5 c 128,-1,18
 247 -81 247 -81 247 -47 c 128,-1,19
 247 -13 247 -13 246 0 c 1,20,-1
 246 333 l 1,21,22
 161 333 161 333 105.5 383 c 128,-1,23
 50 433 50 433 50 516 c 128,-1,24
 50 599 50 599 106.5 649.5 c 128,-1,25
 163 700 163 700 246 700 c 2,26,-1
 428 700 l 1,27,28
 428 700 428 700 435 700 c 128,-1,29
 442 700 442 700 444 700 c 128,-1,30
 446 700 446 700 452.5 700.5 c 128,-1,31
 459 701 459 701 463 702.5 c 128,-1,32
 467 704 467 704 473.5 705.5 c 128,-1,33
 480 707 480 707 485.5 710.5 c 128,-1,34
 491 714 491 714 497 718 c 0,35,36
 509 726 509 726 523 743 c 1,37,-1
 530 737 l 1,38,39
 523 695 523 695 480 667 c 0,40,41
 458 653 458 653 432 651 c 1,42,-1
 432 147 l 2,0,1
EndSplineSet
EndChar

StartChar: periodcentered
Encoding: 183 183 119
Width: 250
GlyphClass: 2
Flags: W
LayerCount: 2
Fore
SplineSet
125 411 m 128,-1,1
 161 411 161 411 195 385.5 c 128,-1,2
 229 360 229 360 245 321 c 1,3,4
 229 282 229 282 195 256.5 c 128,-1,5
 161 231 161 231 125 231 c 128,-1,6
 89 231 89 231 55 256.5 c 128,-1,7
 21 282 21 282 5 321 c 1,8,9
 21 360 21 360 55 385.5 c 128,-1,0
 89 411 89 411 125 411 c 128,-1,1
145 368 m 0,10,11
 135 372 135 372 120 372 c 128,-1,12
 105 372 105 372 85.5 357.5 c 128,-1,13
 66 343 66 343 57 321 c 1,14,15
 71 287 71 287 105 274 c 0,16,17
 115 270 115 270 130 270 c 128,-1,18
 145 270 145 270 164.5 284.5 c 128,-1,19
 184 299 184 299 193 321 c 1,20,21
 179 355 179 355 145 368 c 0,10,11
EndSplineSet
EndChar

StartChar: cedilla
Encoding: 184 184 120
Width: 600
GlyphClass: 2
Flags: W
LayerCount: 2
Fore
SplineSet
284 -48 m 1,0,1
 298 -43 298 -43 308 -43 c 128,-1,2
 318 -43 318 -43 328.5 -43 c 128,-1,3
 339 -43 339 -43 359 -48.5 c 128,-1,4
 379 -54 379 -54 391 -69 c 128,-1,5
 403 -84 403 -84 403 -96 c 0,6,7
 403 -142 403 -142 371 -169 c 0,8,9
 330 -205 330 -205 271 -205 c 0,10,11
 244 -205 244 -205 214 -196 c 1,12,-1
 215 -186 l 1,13,14
 252 -186 252 -186 285.5 -165.5 c 128,-1,15
 319 -145 319 -145 319 -105 c 0,16,17
 319 -89 319 -89 303 -77 c 0,18,19
 287 -66 287 -66 264 -66 c 128,-1,20
 241 -66 241 -66 222 -72 c 1,21,-1
 217 -62 l 1,22,-1
 265 1 l 1,23,-1
 327 1 l 1,24,-1
 284 -48 l 1,0,1
EndSplineSet
EndChar

StartChar: onesuperior
Encoding: 185 185 121
Width: 292
GlyphClass: 2
Flags: W
LayerCount: 2
Fore
SplineSet
262 314 m 1,0,-1
 262 308 l 1,1,-1
 34 308 l 1,2,-1
 34 314 l 1,3,-1
 45 314 l 2,4,5
 58 314 58 314 66.5 322.5 c 128,-1,6
 75 331 75 331 75 343 c 2,7,-1
 75 632 l 2,8,9
 75 649 75 649 68 662 c 128,-1,10
 61 675 61 675 34 675 c 2,11,-1
 30 675 l 1,12,-1
 30 680 l 1,13,14
 62 681 62 681 123.5 690.5 c 128,-1,15
 185 700 185 700 216 715 c 1,16,-1
 221 715 l 1,17,-1
 221 343 l 2,18,19
 221 331 221 331 230 322.5 c 128,-1,20
 239 314 239 314 251 314 c 2,21,-1
 262 314 l 1,0,-1
EndSplineSet
EndChar

StartChar: ordmasculine
Encoding: 186 186 122
Width: 400
GlyphClass: 2
Flags: W
LayerCount: 2
Fore
SplineSet
66 667 m 128,-1,1
 112 710 112 710 200 710 c 128,-1,2
 288 710 288 710 334 667 c 128,-1,3
 380 624 380 624 380 543.5 c 128,-1,4
 380 463 380 463 334 420 c 128,-1,5
 288 377 288 377 200 377 c 128,-1,6
 112 377 112 377 66 420 c 128,-1,7
 20 463 20 463 20 543.5 c 128,-1,0
 20 624 20 624 66 667 c 128,-1,1
200 403 m 0,8,9
 231 403 231 403 245 438 c 128,-1,10
 259 473 259 473 259 525.5 c 128,-1,11
 259 578 259 578 256 603.5 c 128,-1,12
 253 629 253 629 246 647 c 0,13,14
 232 684 232 684 200 684 c 0,15,16
 140 684 140 684 140 543.5 c 128,-1,17
 140 403 140 403 200 403 c 0,8,9
EndSplineSet
EndChar

StartChar: guillemotright
Encoding: 187 187 123
Width: 551
GlyphClass: 2
Flags: W
LayerCount: 2
Fore
SplineSet
268 95 m 1,0,1
 293 140 293 140 313.5 179 c 128,-1,2
 334 218 334 218 357 292 c 1,3,4
 332 371 332 371 269 485 c 1,5,-1
 277 490 l 1,6,7
 312 445 312 445 356 405.5 c 128,-1,8
 400 366 400 366 432.5 343 c 128,-1,9
 465 320 465 320 512 292 c 1,10,11
 377 206 377 206 277 88 c 1,12,-1
 268 95 l 1,0,1
60 95 m 1,13,14
 80 130 80 130 87 143 c 0,15,16
 126 216 126 216 149 292 c 1,17,18
 139 322 139 322 126.5 356 c 128,-1,19
 114 390 114 390 61 485 c 1,20,-1
 69 490 l 1,21,22
 119 425 119 425 175.5 380.5 c 128,-1,23
 232 336 232 336 304 292 c 1,24,25
 169 206 169 206 69 88 c 1,26,-1
 60 95 l 1,13,14
EndSplineSet
EndChar

StartChar: onequarter
Encoding: 188 188 124
Width: 769
GlyphClass: 2
Flags: W
LayerCount: 2
Fore
SplineSet
597 723 m 1,0,-1
 644 691 l 1,1,-1
 167 -20 l 1,2,-1
 119 11 l 1,3,-1
 597 723 l 1,0,-1
65 632 m 2,4,5
 65 675 65 675 24 675 c 2,6,-1
 20 675 l 1,7,-1
 20 680 l 1,8,9
 52 681 52 681 113.5 690.5 c 128,-1,10
 175 700 175 700 206 715 c 1,11,-1
 211 715 l 1,12,-1
 211 343 l 2,13,14
 211 331 211 331 220 322.5 c 128,-1,15
 229 314 229 314 241 314 c 2,16,-1
 253 314 l 1,17,-1
 253 308 l 1,18,-1
 24 308 l 1,19,-1
 24 314 l 1,20,-1
 35 314 l 2,21,22
 48 314 48 314 56.5 322.5 c 128,-1,23
 65 331 65 331 65 343 c 2,24,-1
 65 632 l 2,4,5
667 92 m 1,25,-1
 667 38 l 2,26,27
 667 25 667 25 677 15.5 c 128,-1,28
 687 6 687 6 700 6 c 2,29,-1
 707 6 l 1,30,-1
 707 0 l 1,31,-1
 483 0 l 1,32,-1
 483 6 l 1,33,-1
 490 6 l 2,34,35
 503 6 503 6 513 15 c 128,-1,36
 523 24 523 24 523 37 c 2,37,-1
 523 92 l 1,38,-1
 329 92 l 1,39,-1
 329 98 l 1,40,-1
 661 408 l 1,41,-1
 667 408 l 1,42,-1
 667 164 l 1,43,-1
 693 164 l 2,44,45
 722 164 722 164 734 192 c 1,46,-1
 740 192 l 1,47,-1
 719 92 l 1,48,-1
 667 92 l 1,25,-1
523 165 m 1,49,-1
 523 231 l 1,50,-1
 448 165 l 1,51,-1
 523 165 l 1,49,-1
EndSplineSet
EndChar

StartChar: onehalf
Encoding: 189 189 125
Width: 850
GlyphClass: 2
Flags: W
LayerCount: 2
Fore
SplineSet
575 723 m 1,0,-1
 622 691 l 1,1,-1
 145 -20 l 1,2,-1
 97 11 l 1,3,-1
 575 723 l 1,0,-1
24 675 m 2,4,-1
 20 675 l 1,5,-1
 20 680 l 1,6,7
 52 681 52 681 113.5 690.5 c 128,-1,8
 175 700 175 700 206 715 c 1,9,-1
 211 715 l 1,10,-1
 211 343 l 2,11,12
 211 331 211 331 220 322.5 c 128,-1,13
 229 314 229 314 241 314 c 2,14,-1
 252 314 l 1,15,-1
 252 308 l 1,16,-1
 24 308 l 1,17,-1
 24 314 l 1,18,-1
 35 314 l 2,19,20
 48 314 48 314 56.5 322.5 c 128,-1,21
 65 331 65 331 65 343 c 2,22,-1
 65 632 l 2,23,24
 65 675 65 675 24 675 c 2,4,-1
577 380 m 0,25,26
 506 380 506 380 505 251 c 1,27,-1
 500 251 l 1,28,-1
 451 366 l 1,29,30
 505 412 505 412 614 412 c 0,31,32
 687 412 687 412 736 381.5 c 128,-1,33
 785 351 785 351 785 299 c 0,34,35
 785 221 785 221 680 152 c 0,36,37
 656 137 656 137 633 126 c 1,38,-1
 726 126 l 2,39,40
 777 126 777 126 805 188 c 1,41,-1
 810 188 l 1,42,-1
 769 0 l 1,43,-1
 459 0 l 1,44,-1
 459 5 l 1,45,46
 471 21 471 21 500 60 c 128,-1,47
 529 99 529 99 542 117 c 128,-1,48
 555 135 555 135 576.5 168 c 128,-1,49
 598 201 598 201 608 221 c 0,50,51
 633 277 633 277 633 312.5 c 128,-1,52
 633 348 633 348 616.5 364 c 128,-1,53
 600 380 600 380 577 380 c 0,25,26
EndSplineSet
EndChar

StartChar: threequarters
Encoding: 190 190 126
Width: 839
GlyphClass: 2
Flags: W
LayerCount: 2
Fore
SplineSet
666 723 m 1,0,-1
 713 691 l 1,1,-1
 236 -20 l 1,2,-1
 188 11 l 1,3,-1
 666 723 l 1,0,-1
289.5 689 m 128,-1,5
 329 664 329 664 329 622.5 c 128,-1,6
 329 581 329 581 308.5 562.5 c 128,-1,7
 288 544 288 544 259 543 c 1,8,9
 348 524 348 524 348 435 c 0,10,11
 348 383 348 383 316 347 c 0,12,13
 264 290 264 290 167 290 c 0,14,15
 92 290 92 290 32 323 c 1,16,-1
 33 328 l 1,17,18
 36 328 36 328 40 328 c 0,19,20
 106 328 106 328 153.5 358.5 c 128,-1,21
 201 389 201 389 201 440.5 c 128,-1,22
 201 492 201 492 171 514.5 c 128,-1,23
 141 537 141 537 105 538 c 1,24,-1
 106 543 l 1,25,26
 108 543 108 543 110 543 c 0,27,28
 145 543 145 543 167.5 568.5 c 128,-1,29
 190 594 190 594 190 625 c 0,30,31
 190 663 190 663 167 676 c 0,32,33
 152 684 152 684 141 684 c 0,34,35
 95 684 95 684 80 652 c 1,36,37
 70 627 70 627 70 576 c 0,38,39
 70 571 70 571 70 565 c 1,40,-1
 64 565 l 1,41,-1
 25 676 l 1,42,43
 75 714 75 714 162.5 714 c 128,-1,4
 250 714 250 714 289.5 689 c 128,-1,5
747 92 m 1,44,-1
 747 38 l 2,45,46
 747 20 747 20 764 10 c 0,47,48
 771 6 771 6 780 6 c 2,49,-1
 787 6 l 1,50,-1
 787 0 l 1,51,-1
 563 0 l 1,52,-1
 563 6 l 1,53,-1
 570 6 l 2,54,55
 583 6 583 6 592.5 15 c 128,-1,56
 602 24 602 24 603 37 c 1,57,-1
 603 92 l 1,58,-1
 409 92 l 1,59,-1
 409 98 l 1,60,-1
 741 409 l 1,61,-1
 747 409 l 1,62,-1
 747 165 l 1,63,-1
 773 165 l 2,64,65
 802 165 802 165 814 192 c 1,66,-1
 820 192 l 1,67,-1
 799 92 l 1,68,-1
 747 92 l 1,44,-1
603 165 m 1,69,-1
 603 231 l 1,70,-1
 528 165 l 1,71,-1
 603 165 l 1,69,-1
EndSplineSet
EndChar

StartChar: questiondown
Encoding: 191 191 127
Width: 523
GlyphClass: 2
Flags: W
LayerCount: 2
Fore
SplineSet
204 687.5 m 128,-1,1
 230 714 230 714 267.5 714 c 128,-1,2
 305 714 305 714 331.5 687.5 c 128,-1,3
 358 661 358 661 358 624 c 128,-1,4
 358 587 358 587 331.5 560.5 c 128,-1,5
 305 534 305 534 267.5 534 c 128,-1,6
 230 534 230 534 204 560.5 c 128,-1,7
 178 587 178 587 178 624 c 256,8,0
 178 661 178 661 204 687.5 c 128,-1,1
245 161 m 0,9,10
 245 36 245 36 336 36 c 0,11,12
 433 36 433 36 433 190 c 1,13,-1
 443 190 l 1,14,-1
 493 75 l 1,15,16
 470 35 470 35 411.5 10.5 c 128,-1,17
 353 -14 353 -14 272 -14 c 0,18,19
 155 -14 155 -14 92.5 32 c 128,-1,20
 30 78 30 78 30 163 c 0,21,22
 30 221 30 221 62.5 262 c 128,-1,23
 95 303 95 303 177 363 c 0,24,25
 229 401 229 401 235 422 c 0,26,27
 243 449 243 449 228 479 c 1,28,-1
 237 485 l 1,29,30
 302 468 302 468 327 419 c 0,31,32
 338 398 338 398 338 382.5 c 128,-1,33
 338 367 338 367 336.5 353 c 128,-1,34
 335 339 335 339 324 320.5 c 128,-1,35
 313 302 313 302 300 288 c 128,-1,36
 287 274 287 274 274 258 c 0,37,38
 245 222 245 222 245 161 c 0,9,10
EndSplineSet
EndChar

StartChar: Agrave
Encoding: 192 192 128
Width: 702
GlyphClass: 2
Flags: W
LayerCount: 2
Fore
SplineSet
356 791 m 1,0,-1
 349 784 l 1,1,2
 296 790 296 790 231 817 c 128,-1,3
 166 844 166 844 116 877 c 1,4,5
 137 950 137 950 201 977 c 1,6,7
 244 940 244 940 290.5 887.5 c 128,-1,8
 337 835 337 835 356 791 c 1,0,-1
978 -171 m 1,9,10
 901 -216 901 -216 821 -216 c 128,-1,11
 741 -216 741 -216 669.5 -186 c 128,-1,12
 598 -156 598 -156 529.5 -82 c 128,-1,13
 461 -8 461 -8 417 100 c 2,14,-1
 390 166 l 1,15,-1
 176 166 l 1,16,-1
 136 73 l 2,17,18
 131 60 131 60 131 52 c 128,-1,19
 131 44 131 44 134.5 34.5 c 128,-1,20
 138 25 138 25 149.5 17.5 c 128,-1,21
 161 10 161 10 174 10 c 2,22,-1
 183 10 l 1,23,-1
 183 0 l 1,24,-1
 -40 0 l 1,25,-1
 -40 10 l 1,26,-1
 -31 10 l 2,27,28
 -8 10 -8 10 14.5 23.5 c 128,-1,29
 37 37 37 37 52 64 c 1,30,-1
 256 512 l 1,31,32
 226 595 226 595 206.5 623.5 c 128,-1,33
 187 652 187 652 174 667 c 0,34,35
 150 695 150 695 114 708 c 0,36,37
 100 713 100 713 81 713 c 128,-1,38
 62 713 62 713 38 704 c 1,39,-1
 36 714 l 1,40,41
 115 761 115 761 190 761 c 0,42,43
 263 761 263 761 328 711 c 0,44,45
 407 650 407 650 463 522 c 2,46,-1
 623 155 l 2,47,48
 667 54 667 54 688 19.5 c 128,-1,49
 709 -15 709 -15 725.5 -39.5 c 128,-1,50
 742 -64 742 -64 758 -82 c 128,-1,51
 774 -100 774 -100 793 -117 c 0,52,53
 826 -147 826 -147 876 -162 c 0,54,55
 897 -169 897 -169 922.5 -169 c 128,-1,56
 948 -169 948 -169 976 -161 c 1,57,-1
 978 -171 l 1,9,10
198 216 m 1,58,-1
 370 216 l 1,59,-1
 307 371 l 2,60,61
 299 389 299 389 288 422 c 1,62,-1
 198 216 l 1,58,-1
EndSplineSet
EndChar

StartChar: Aacute
Encoding: 193 193 129
Width: 702
GlyphClass: 2
Flags: W
LayerCount: 2
Fore
SplineSet
312 781 m 1,0,-1
 305 788 l 1,1,2
 324 832 324 832 370 884.5 c 128,-1,3
 416 937 416 937 460 974 c 1,4,5
 524 947 524 947 545 874 c 1,6,7
 495 841 495 841 430 814 c 128,-1,8
 365 787 365 787 312 781 c 1,0,-1
978 -171 m 1,9,10
 901 -216 901 -216 821 -216 c 128,-1,11
 741 -216 741 -216 669.5 -186 c 128,-1,12
 598 -156 598 -156 529.5 -81.5 c 128,-1,13
 461 -7 461 -7 417 100 c 2,14,-1
 390 166 l 1,15,-1
 176 166 l 1,16,-1
 136 73 l 2,17,18
 131 60 131 60 131 52 c 128,-1,19
 131 44 131 44 134.5 34.5 c 128,-1,20
 138 25 138 25 149.5 17.5 c 128,-1,21
 161 10 161 10 174 10 c 2,22,-1
 183 10 l 1,23,-1
 183 0 l 1,24,-1
 -40 0 l 1,25,-1
 -40 10 l 1,26,-1
 -31 10 l 2,27,28
 -8 10 -8 10 14.5 23.5 c 128,-1,29
 37 37 37 37 52 64 c 1,30,-1
 256 512 l 1,31,32
 226 595 226 595 206.5 623.5 c 128,-1,33
 187 652 187 652 174 667 c 0,34,35
 150 695 150 695 114 708 c 0,36,37
 100 713 100 713 81 713 c 128,-1,38
 62 713 62 713 38 704 c 1,39,-1
 36 714 l 1,40,41
 115 761 115 761 190 761 c 0,42,43
 263 761 263 761 328 711 c 0,44,45
 407 650 407 650 463 522 c 2,46,-1
 623 155 l 2,47,48
 667 54 667 54 688 19.5 c 128,-1,49
 709 -15 709 -15 725.5 -39.5 c 128,-1,50
 742 -64 742 -64 758 -82 c 128,-1,51
 774 -100 774 -100 793 -117 c 0,52,53
 826 -147 826 -147 876 -162 c 0,54,55
 897 -169 897 -169 922.5 -169 c 128,-1,56
 948 -169 948 -169 976 -161 c 1,57,-1
 978 -171 l 1,9,10
198 216 m 1,58,-1
 370 216 l 1,59,-1
 307 371 l 2,60,61
 299 389 299 389 288 422 c 1,62,-1
 198 216 l 1,58,-1
EndSplineSet
EndChar

StartChar: Acircumflex
Encoding: 194 194 130
Width: 702
GlyphClass: 2
Flags: W
LayerCount: 2
Fore
SplineSet
322 952 m 1,0,-1
 333 952 l 1,1,-1
 512 776 l 1,2,-1
 505 768 l 1,3,-1
 327 833 l 1,4,-1
 160 768 l 1,5,-1
 153 776 l 1,6,-1
 322 952 l 1,0,-1
978 -171 m 1,7,8
 901 -216 901 -216 821 -216 c 128,-1,9
 741 -216 741 -216 669.5 -186 c 128,-1,10
 598 -156 598 -156 529.5 -81.5 c 128,-1,11
 461 -7 461 -7 417 100 c 2,12,-1
 390 166 l 1,13,-1
 176 166 l 1,14,-1
 136 73 l 2,15,16
 131 60 131 60 131 52 c 128,-1,17
 131 44 131 44 134.5 34.5 c 128,-1,18
 138 25 138 25 149.5 17.5 c 128,-1,19
 161 10 161 10 175 10 c 2,20,-1
 183 10 l 1,21,-1
 183 0 l 1,22,-1
 -40 0 l 1,23,-1
 -40 10 l 1,24,-1
 -31 10 l 2,25,26
 -8 10 -8 10 14.5 23.5 c 128,-1,27
 37 37 37 37 52 64 c 1,28,-1
 256 512 l 1,29,30
 226 595 226 595 206.5 623.5 c 128,-1,31
 187 652 187 652 174 667 c 0,32,33
 150 695 150 695 114 708 c 0,34,35
 100 713 100 713 81 713 c 128,-1,36
 62 713 62 713 38 704 c 1,37,-1
 36 714 l 1,38,39
 116 761 116 761 189 761 c 0,40,41
 297 761 297 761 384 655 c 0,42,43
 428 600 428 600 463 522 c 2,44,-1
 623 155 l 2,45,46
 667 54 667 54 688 19.5 c 128,-1,47
 709 -15 709 -15 725.5 -39.5 c 128,-1,48
 742 -64 742 -64 758 -82 c 128,-1,49
 774 -100 774 -100 793 -117 c 0,50,51
 826 -147 826 -147 876 -162 c 0,52,53
 897 -169 897 -169 922.5 -169 c 128,-1,54
 948 -169 948 -169 976 -161 c 1,55,-1
 978 -171 l 1,7,8
198 216 m 1,56,-1
 370 216 l 1,57,-1
 307 371 l 2,58,59
 299 389 299 389 288 422 c 1,60,-1
 198 216 l 1,56,-1
EndSplineSet
EndChar

StartChar: Atilde
Encoding: 195 195 131
Width: 702
GlyphClass: 2
Flags: W
LayerCount: 2
Fore
SplineSet
524 939 m 1,0,-1
 536 939 l 1,1,2
 542 922 542 922 542 902.5 c 128,-1,3
 542 883 542 883 534 864 c 0,4,5
 512 814 512 814 473 796 c 0,6,7
 449 784 449 784 417.5 784 c 128,-1,8
 386 784 386 784 337 809 c 0,9,10
 287 834 287 834 269.5 836.5 c 128,-1,11
 252 839 252 839 237 839 c 128,-1,12
 222 839 222 839 198 823 c 128,-1,13
 174 807 174 807 166 787 c 1,14,-1
 154 787 l 1,15,16
 150 801 150 801 150 816 c 0,17,18
 150 876 150 876 195 919 c 0,19,20
 226 949 226 949 263.5 949 c 128,-1,21
 301 949 301 949 355 922 c 128,-1,22
 409 895 409 895 454 895 c 0,23,24
 469 895 469 895 493.5 909.5 c 128,-1,25
 518 924 518 924 524 939 c 1,0,-1
978 -171 m 1,26,27
 901 -216 901 -216 821 -216 c 128,-1,28
 741 -216 741 -216 669.5 -186 c 128,-1,29
 598 -156 598 -156 529.5 -82 c 128,-1,30
 461 -8 461 -8 417 100 c 2,31,-1
 390 166 l 1,32,-1
 176 166 l 1,33,-1
 136 73 l 2,34,35
 130 60 130 60 130 48.5 c 128,-1,36
 130 37 130 37 141 23.5 c 128,-1,37
 152 10 152 10 174 10 c 2,38,-1
 183 10 l 1,39,-1
 183 0 l 1,40,-1
 -40 0 l 1,41,-1
 -40 10 l 1,42,-1
 -31 10 l 2,43,44
 -8 10 -8 10 14.5 23.5 c 128,-1,45
 37 37 37 37 52 64 c 1,46,-1
 256 512 l 1,47,48
 226 595 226 595 206.5 623.5 c 128,-1,49
 187 652 187 652 174 667 c 0,50,51
 150 695 150 695 114 708 c 0,52,53
 100 713 100 713 81 713 c 128,-1,54
 62 713 62 713 38 704 c 1,55,-1
 36 714 l 1,56,57
 115 761 115 761 190 761 c 0,58,59
 263 761 263 761 328 711 c 0,60,61
 407 650 407 650 463 522 c 2,62,-1
 623 155 l 2,63,64
 667 54 667 54 688 19.5 c 128,-1,65
 709 -15 709 -15 725.5 -39.5 c 128,-1,66
 742 -64 742 -64 758 -82 c 128,-1,67
 774 -100 774 -100 793 -117 c 0,68,69
 826 -147 826 -147 876 -162 c 0,70,71
 897 -169 897 -169 922.5 -169 c 128,-1,72
 948 -169 948 -169 976 -161 c 1,73,-1
 978 -171 l 1,26,27
198 216 m 1,74,-1
 370 216 l 1,75,-1
 307 371 l 2,76,77
 299 389 299 389 288 422 c 1,78,-1
 198 216 l 1,74,-1
EndSplineSet
EndChar

StartChar: Adieresis
Encoding: 196 196 132
Width: 702
GlyphClass: 2
Flags: W
LayerCount: 2
Fore
SplineSet
193.5 775 m 128,-1,1
 163 775 163 775 141.5 797 c 128,-1,2
 120 819 120 819 120 849.5 c 128,-1,3
 120 880 120 880 141.5 901.5 c 128,-1,4
 163 923 163 923 193.5 923 c 128,-1,5
 224 923 224 923 246 901.5 c 128,-1,6
 268 880 268 880 268 849.5 c 128,-1,7
 268 819 268 819 246 797 c 128,-1,0
 224 775 224 775 193.5 775 c 128,-1,1
456.5 775 m 128,-1,9
 426 775 426 775 404.5 797 c 128,-1,10
 383 819 383 819 383 849.5 c 128,-1,11
 383 880 383 880 404.5 901.5 c 128,-1,12
 426 923 426 923 456.5 923 c 128,-1,13
 487 923 487 923 508.5 901.5 c 128,-1,14
 530 880 530 880 530 849.5 c 128,-1,15
 530 819 530 819 508.5 797 c 128,-1,8
 487 775 487 775 456.5 775 c 128,-1,9
978 -171 m 1,16,17
 901 -216 901 -216 821 -216 c 128,-1,18
 741 -216 741 -216 669.5 -186 c 128,-1,19
 598 -156 598 -156 529.5 -81.5 c 128,-1,20
 461 -7 461 -7 417 100 c 2,21,-1
 390 166 l 1,22,-1
 176 166 l 1,23,-1
 136 73 l 2,24,25
 131 60 131 60 131 52 c 128,-1,26
 131 44 131 44 134.5 34.5 c 128,-1,27
 138 25 138 25 149.5 17.5 c 128,-1,28
 161 10 161 10 174 10 c 2,29,-1
 183 10 l 1,30,-1
 183 0 l 1,31,-1
 -40 0 l 1,32,-1
 -40 10 l 1,33,-1
 -31 10 l 2,34,35
 -8 10 -8 10 14.5 23.5 c 128,-1,36
 37 37 37 37 52 64 c 1,37,-1
 256 512 l 1,38,39
 226 595 226 595 206.5 623.5 c 128,-1,40
 187 652 187 652 174 667 c 0,41,42
 150 695 150 695 114 708 c 0,43,44
 100 713 100 713 81 713 c 128,-1,45
 62 713 62 713 38 704 c 1,46,-1
 36 714 l 1,47,48
 116 761 116 761 189 761 c 0,49,50
 297 761 297 761 384 655 c 0,51,52
 428 600 428 600 463 522 c 2,53,-1
 623 155 l 2,54,55
 667 54 667 54 688 19.5 c 128,-1,56
 709 -15 709 -15 725.5 -39.5 c 128,-1,57
 742 -64 742 -64 758 -82 c 128,-1,58
 774 -100 774 -100 793 -117 c 0,59,60
 826 -147 826 -147 876 -162 c 0,61,62
 897 -169 897 -169 922.5 -169 c 128,-1,63
 948 -169 948 -169 976 -161 c 1,64,-1
 978 -171 l 1,16,17
198 216 m 1,65,-1
 370 216 l 1,66,-1
 307 371 l 2,67,68
 299 389 299 389 288 422 c 1,69,-1
 198 216 l 1,65,-1
EndSplineSet
EndChar

StartChar: Aring
Encoding: 197 197 133
Width: 702
GlyphClass: 2
Flags: W
LayerCount: 2
Fore
SplineSet
244 936.5 m 128,-1,1
 278 962 278 962 328.5 962 c 128,-1,2
 379 962 379 962 412.5 937 c 128,-1,3
 446 912 446 912 446 873.5 c 128,-1,4
 446 835 446 835 412 809 c 128,-1,5
 378 783 378 783 327.5 783 c 128,-1,6
 277 783 277 783 243.5 808.5 c 128,-1,7
 210 834 210 834 210 872.5 c 128,-1,0
 210 911 210 911 244 936.5 c 128,-1,1
364.5 915 m 128,-1,9
 350 932 350 932 328 932 c 128,-1,10
 306 932 306 932 291.5 915 c 128,-1,11
 277 898 277 898 277 872.5 c 128,-1,12
 277 847 277 847 291.5 830.5 c 128,-1,13
 306 814 306 814 328 814 c 128,-1,14
 350 814 350 814 364.5 830.5 c 128,-1,15
 379 847 379 847 379 872.5 c 128,-1,8
 379 898 379 898 364.5 915 c 128,-1,9
978 -171 m 1,16,17
 901 -216 901 -216 821 -216 c 128,-1,18
 741 -216 741 -216 669.5 -186 c 128,-1,19
 598 -156 598 -156 529.5 -81.5 c 128,-1,20
 461 -7 461 -7 417 100 c 2,21,-1
 390 166 l 1,22,-1
 176 166 l 1,23,-1
 136 73 l 2,24,25
 131 60 131 60 131 52 c 128,-1,26
 131 44 131 44 134.5 34.5 c 128,-1,27
 138 25 138 25 149.5 17.5 c 128,-1,28
 161 10 161 10 174 10 c 2,29,-1
 183 10 l 1,30,-1
 183 0 l 1,31,-1
 -40 0 l 1,32,-1
 -40 10 l 1,33,-1
 -31 10 l 2,34,35
 -8 10 -8 10 14.5 23.5 c 128,-1,36
 37 37 37 37 52 64 c 1,37,-1
 256 512 l 1,38,39
 226 595 226 595 206.5 623.5 c 128,-1,40
 187 652 187 652 174 667 c 0,41,42
 150 695 150 695 114 708 c 0,43,44
 100 713 100 713 81 713 c 128,-1,45
 62 713 62 713 38 704 c 1,46,-1
 36 714 l 1,47,48
 115 761 115 761 190 761 c 0,49,50
 263 761 263 761 328 711 c 0,51,52
 407 650 407 650 463 522 c 2,53,-1
 623 155 l 2,54,55
 667 54 667 54 688 19.5 c 128,-1,56
 709 -15 709 -15 725.5 -39.5 c 128,-1,57
 742 -64 742 -64 758 -82 c 128,-1,58
 774 -100 774 -100 793 -117 c 0,59,60
 826 -147 826 -147 876 -162 c 0,61,62
 897 -169 897 -169 922.5 -169 c 128,-1,63
 948 -169 948 -169 976 -161 c 1,64,-1
 978 -171 l 1,16,17
198 216 m 1,65,-1
 370 216 l 1,66,-1
 307 371 l 2,67,68
 299 389 299 389 288 422 c 1,69,-1
 198 216 l 1,65,-1
EndSplineSet
EndChar

StartChar: AE
Encoding: 198 198 134
Width: 941
GlyphClass: 2
Flags: W
LayerCount: 2
Fore
SplineSet
-48.5 -52.5 m 128,-1,1
 -97 -93 -97 -93 -140.5 -104.5 c 128,-1,2
 -184 -116 -184 -116 -231.5 -116 c 128,-1,3
 -279 -116 -279 -116 -340 -91 c 1,4,-1
 -339 -81 l 1,5,6
 -321 -82 -321 -82 -303 -82 c 128,-1,7
 -285 -82 -285 -82 -261.5 -79.5 c 128,-1,8
 -238 -77 -238 -77 -201 -62 c 0,9,10
 -129 -34 -129 -34 -53 79 c 2,11,-1
 335 648 l 1,12,13
 342 663 342 663 334 675.5 c 128,-1,14
 326 688 326 688 310 688 c 2,15,-1
 305 688 l 1,16,-1
 305 700 l 1,17,-1
 591 700 l 2,18,19
 623 700 623 700 660.5 706 c 128,-1,20
 698 712 698 712 713 718 c 1,21,-1
 713 512 l 1,22,-1
 703 512 l 1,23,-1
 703 520 l 2,24,25
 703 579 703 579 669.5 613.5 c 128,-1,26
 636 648 636 648 576 649 c 1,27,-1
 541 649 l 1,28,-1
 541 367 l 1,29,-1
 683 367 l 1,30,31
 729 369 729 369 758.5 399.5 c 128,-1,32
 788 430 788 430 788 476 c 2,33,-1
 788 481 l 1,34,-1
 798 481 l 1,35,-1
 798 203 l 1,36,-1
 788 203 l 1,37,-1
 788 208 l 2,38,39
 788 254 788 254 759 284.5 c 128,-1,40
 730 315 730 315 685 317 c 1,41,-1
 541 317 l 1,42,-1
 541 51 l 1,43,-1
 724 51 l 2,44,45
 797 51 797 51 852.5 99 c 128,-1,46
 908 147 908 147 931 232 c 1,47,-1
 941 232 l 1,48,-1
 903 0 l 1,49,-1
 276 0 l 1,50,-1
 277 10 l 1,51,-1
 286 10 l 2,52,53
 306 10 306 10 320.5 24 c 128,-1,54
 335 38 335 38 336 58 c 1,55,-1
 337 58 l 1,56,-1
 337 317 l 1,57,-1
 200 317 l 1,58,-1
 40 55 l 2,59,0
 0 -12 0 -12 -48.5 -52.5 c 128,-1,1
337 367 m 1,60,-1
 337 542 l 1,61,-1
 231 367 l 1,62,-1
 337 367 l 1,60,-1
EndSplineSet
EndChar

StartChar: Ccedilla
Encoding: 199 199 135
Width: 830
GlyphClass: 2
Flags: W
LayerCount: 2
Fore
SplineSet
815 402 m 1,0,1
 821 362 821 362 821 331.5 c 128,-1,2
 821 301 821 301 817 261.5 c 128,-1,3
 813 222 813 222 793.5 176 c 128,-1,4
 774 130 774 130 743.5 95 c 128,-1,5
 713 60 713 60 673 36 c 0,6,7
 592 -13 592 -13 482 -14 c 1,8,-1
 445 -57 l 1,9,10
 459 -52 459 -52 469 -52 c 128,-1,11
 479 -52 479 -52 489 -52 c 128,-1,12
 499 -52 499 -52 519.5 -57.5 c 128,-1,13
 540 -63 540 -63 552 -78 c 128,-1,14
 564 -93 564 -93 564 -105 c 0,15,16
 564 -151 564 -151 532 -178 c 0,17,18
 490 -213 490 -213 432 -213 c 0,19,20
 404 -213 404 -213 375 -205 c 1,21,-1
 376 -195 l 1,22,23
 412 -195 412 -195 446 -174.5 c 128,-1,24
 480 -154 480 -154 480 -114 c 0,25,26
 480 -98 480 -98 463 -86 c 0,27,28
 433 -65 433 -65 382 -81 c 1,29,-1
 377 -71 l 1,30,-1
 423 -12 l 1,31,32
 224 0 224 0 117 96.5 c 128,-1,33
 10 193 10 193 10 346 c 0,34,35
 10 515 10 515 136 614.5 c 128,-1,36
 262 714 262 714 478 714 c 0,37,38
 628 714 628 714 736 668 c 1,39,-1
 726 477 l 1,40,-1
 717 477 l 1,41,42
 665 664 665 664 483 664 c 0,43,44
 362 664 362 664 296 582.5 c 128,-1,45
 230 501 230 501 230 357 c 128,-1,46
 230 213 230 213 299 126.5 c 128,-1,47
 368 40 368 40 498 36 c 1,48,49
 641 36 641 36 724 128.5 c 128,-1,50
 807 221 807 221 807 378 c 0,51,52
 807 390 807 390 807 402 c 1,53,-1
 815 402 l 1,0,1
EndSplineSet
EndChar

StartChar: Egrave
Encoding: 200 200 136
Width: 712
GlyphClass: 2
Flags: W
LayerCount: 2
Fore
SplineSet
306 771 m 1,0,-1
 299 764 l 1,1,2
 246 770 246 770 181 797 c 128,-1,3
 116 824 116 824 66 857 c 1,4,5
 87 930 87 930 151 957 c 1,6,7
 213 904 213 904 253 852.5 c 128,-1,8
 293 801 293 801 306 771 c 1,0,-1
43 10 m 2,9,10
 69 10 69 10 87.5 28.5 c 128,-1,11
 106 47 106 47 107 73 c 1,12,-1
 107 627 l 1,13,14
 106 664 106 664 75 682 c 0,15,16
 60 690 60 690 43 690 c 2,17,-1
 30 690 l 1,18,-1
 30 700 l 1,19,-1
 363 700 l 2,20,21
 394 700 394 700 430.5 706 c 128,-1,22
 467 712 467 712 482 718 c 1,23,-1
 482 512 l 1,24,-1
 472 512 l 1,25,-1
 472 520 l 2,26,27
 472 600 472 600 414 632 c 0,28,29
 386 648 386 648 347 649 c 1,30,-1
 312 649 l 1,31,-1
 312 370 l 1,32,-1
 451 370 l 1,33,34
 499 371 499 371 529 401.5 c 128,-1,35
 559 432 559 432 559 480 c 2,36,-1
 559 484 l 1,37,-1
 569 484 l 1,38,-1
 569 206 l 1,39,-1
 559 206 l 1,40,-1
 559 211 l 2,41,42
 559 258 559 258 529 288.5 c 128,-1,43
 499 319 499 319 452 320 c 1,44,-1
 312 320 l 1,45,-1
 312 51 l 1,46,-1
 495 51 l 2,47,48
 568 51 568 51 624 99 c 128,-1,49
 680 147 680 147 703 232 c 1,50,-1
 713 232 l 1,51,-1
 675 0 l 1,52,-1
 30 0 l 1,53,-1
 30 10 l 1,54,-1
 43 10 l 2,9,10
EndSplineSet
EndChar

StartChar: Eacute
Encoding: 201 201 137
Width: 712
GlyphClass: 2
Flags: W
LayerCount: 2
Fore
SplineSet
262 761 m 1,0,-1
 255 768 l 1,1,2
 274 812 274 812 320.5 864.5 c 128,-1,3
 367 917 367 917 410 954 c 1,4,5
 474 927 474 927 495 854 c 1,6,7
 445 821 445 821 380 794 c 128,-1,8
 315 767 315 767 262 761 c 1,0,-1
43 10 m 2,9,10
 69 10 69 10 87.5 28.5 c 128,-1,11
 106 47 106 47 107 73 c 1,12,-1
 107 627 l 1,13,14
 106 653 106 653 87.5 671.5 c 128,-1,15
 69 690 69 690 43 690 c 2,16,-1
 30 690 l 1,17,-1
 30 700 l 1,18,-1
 363 700 l 2,19,20
 406 700 406 700 439.5 707 c 128,-1,21
 473 714 473 714 482 718 c 1,22,-1
 482 512 l 1,23,-1
 472 512 l 1,24,-1
 472 520 l 2,25,26
 472 600 472 600 414 632 c 0,27,28
 386 648 386 648 347 649 c 1,29,-1
 312 649 l 1,30,-1
 312 370 l 1,31,-1
 451 370 l 1,32,33
 499 371 499 371 529 401.5 c 128,-1,34
 559 432 559 432 559 480 c 2,35,-1
 559 484 l 1,36,-1
 569 484 l 1,37,-1
 569 206 l 1,38,-1
 559 206 l 1,39,-1
 559 211 l 2,40,41
 559 258 559 258 529 288.5 c 128,-1,42
 499 319 499 319 452 320 c 1,43,-1
 312 320 l 1,44,-1
 312 51 l 1,45,-1
 495 51 l 2,46,47
 568 51 568 51 624 99 c 128,-1,48
 680 147 680 147 703 232 c 1,49,-1
 713 232 l 1,50,-1
 675 0 l 1,51,-1
 30 0 l 1,52,-1
 30 10 l 1,53,-1
 43 10 l 2,9,10
EndSplineSet
EndChar

StartChar: Ecircumflex
Encoding: 202 202 138
Width: 712
GlyphClass: 2
Flags: W
LayerCount: 2
Fore
SplineSet
272 932 m 1,0,-1
 284 932 l 1,1,-1
 462 756 l 1,2,-1
 455 748 l 1,3,-1
 277 813 l 1,4,-1
 110 748 l 1,5,-1
 103 756 l 1,6,-1
 272 932 l 1,0,-1
43 10 m 2,7,8
 69 10 69 10 87.5 28.5 c 128,-1,9
 106 47 106 47 107 73 c 1,10,-1
 107 627 l 1,11,12
 106 653 106 653 87.5 671.5 c 128,-1,13
 69 690 69 690 43 690 c 2,14,-1
 30 690 l 1,15,-1
 30 700 l 1,16,-1
 363 700 l 2,17,18
 406 700 406 700 439.5 707 c 128,-1,19
 473 714 473 714 482 718 c 1,20,-1
 482 512 l 1,21,-1
 472 512 l 1,22,-1
 472 520 l 2,23,24
 472 600 472 600 414 632 c 0,25,26
 386 648 386 648 347 649 c 1,27,-1
 312 649 l 1,28,-1
 312 370 l 1,29,-1
 451 370 l 1,30,31
 499 371 499 371 529 401.5 c 128,-1,32
 559 432 559 432 559 480 c 2,33,-1
 559 484 l 1,34,-1
 569 484 l 1,35,-1
 569 206 l 1,36,-1
 559 206 l 1,37,-1
 559 211 l 2,38,39
 559 258 559 258 529 288.5 c 128,-1,40
 499 319 499 319 452 320 c 1,41,-1
 312 320 l 1,42,-1
 312 51 l 1,43,-1
 495 51 l 2,44,45
 568 51 568 51 624 99 c 128,-1,46
 680 147 680 147 703 232 c 1,47,-1
 713 232 l 1,48,-1
 675 0 l 1,49,-1
 30 0 l 1,50,-1
 30 10 l 1,51,-1
 43 10 l 2,7,8
EndSplineSet
EndChar

StartChar: Edieresis
Encoding: 203 203 139
Width: 712
GlyphClass: 2
Flags: W
LayerCount: 2
Fore
SplineSet
144.5 755 m 128,-1,1
 114 755 114 755 92.5 777 c 128,-1,2
 71 799 71 799 71 829.5 c 128,-1,3
 71 860 71 860 92.5 881.5 c 128,-1,4
 114 903 114 903 144.5 903 c 128,-1,5
 175 903 175 903 196.5 881.5 c 128,-1,6
 218 860 218 860 218 829.5 c 128,-1,7
 218 799 218 799 196.5 777 c 128,-1,0
 175 755 175 755 144.5 755 c 128,-1,1
406.5 755 m 128,-1,9
 376 755 376 755 354.5 777 c 128,-1,10
 333 799 333 799 333 829.5 c 128,-1,11
 333 860 333 860 354.5 881.5 c 128,-1,12
 376 903 376 903 406.5 903 c 128,-1,13
 437 903 437 903 458.5 881.5 c 128,-1,14
 480 860 480 860 480 829.5 c 128,-1,15
 480 799 480 799 458.5 777 c 128,-1,8
 437 755 437 755 406.5 755 c 128,-1,9
43 10 m 2,16,17
 69 10 69 10 87.5 28.5 c 128,-1,18
 106 47 106 47 107 73 c 1,19,-1
 107 627 l 1,20,21
 106 653 106 653 87.5 671.5 c 128,-1,22
 69 690 69 690 43 690 c 2,23,-1
 30 690 l 1,24,-1
 30 700 l 1,25,-1
 363 700 l 2,26,27
 394 700 394 700 430.5 706 c 128,-1,28
 467 712 467 712 482 718 c 1,29,-1
 482 512 l 1,30,-1
 472 512 l 1,31,-1
 472 520 l 2,32,33
 472 600 472 600 414 632 c 0,34,35
 386 648 386 648 347 649 c 1,36,-1
 312 649 l 1,37,-1
 312 370 l 1,38,-1
 451 370 l 1,39,40
 499 371 499 371 529 401.5 c 128,-1,41
 559 432 559 432 559 480 c 2,42,-1
 559 484 l 1,43,-1
 569 484 l 1,44,-1
 569 206 l 1,45,-1
 559 206 l 1,46,-1
 559 211 l 2,47,48
 559 258 559 258 529 288.5 c 128,-1,49
 499 319 499 319 452 320 c 1,50,-1
 312 320 l 1,51,-1
 312 51 l 1,52,-1
 495 51 l 2,53,54
 568 51 568 51 624 99 c 128,-1,55
 680 147 680 147 703 232 c 1,56,-1
 713 232 l 1,57,-1
 675 0 l 1,58,-1
 30 0 l 1,59,-1
 30 10 l 1,60,-1
 43 10 l 2,16,17
EndSplineSet
EndChar

StartChar: Igrave
Encoding: 204 204 140
Width: 498
GlyphClass: 2
Flags: W
LayerCount: 2
Fore
SplineSet
315 771 m 1,0,-1
 308 764 l 1,1,2
 256 770 256 770 190.5 797 c 128,-1,3
 125 824 125 824 75 857 c 1,4,5
 97 930 97 930 161 957 c 1,6,7
 204 920 204 920 250 867.5 c 128,-1,8
 296 815 296 815 315 771 c 1,0,-1
456 10 m 2,9,-1
 469 10 l 1,10,-1
 469 0 l 1,11,-1
 110 0 l 1,12,-1
 110 10 l 1,13,-1
 123 10 l 2,14,15
 149 10 149 10 167.5 28.5 c 128,-1,16
 186 47 186 47 187 73 c 1,17,-1
 187 650 l 1,18,-1
 100 647 l 2,19,20
 16 644 16 644 10 585 c 0,21,22
 10 582 10 582 10 579 c 0,23,24
 10 551 10 551 29 534 c 128,-1,25
 48 517 48 517 77 517 c 0,26,27
 83 517 83 517 89 517 c 1,28,-1
 89 511 l 1,29,30
 67 499 67 499 45.5 499 c 128,-1,31
 24 499 24 499 2 512 c 0,32,33
 -40 537 -40 537 -40 586 c 0,34,35
 -40 632 -40 632 -4 662.5 c 128,-1,36
 32 693 32 693 109 696 c 0,37,38
 120 697 120 697 179.5 699 c 128,-1,39
 239 701 239 701 282 702 c 1,40,41
 406 708 406 708 469 720 c 1,42,-1
 471 710 l 1,43,44
 428 703 428 703 410.5 680.5 c 128,-1,45
 393 658 393 658 392 614 c 1,46,-1
 392 73 l 1,47,48
 393 47 393 47 411.5 28.5 c 128,-1,49
 430 10 430 10 456 10 c 2,9,-1
EndSplineSet
EndChar

StartChar: Iacute
Encoding: 205 205 141
Width: 498
GlyphClass: 2
Flags: W
LayerCount: 2
Fore
SplineSet
271 761 m 1,0,-1
 264 768 l 1,1,2
 283 812 283 812 329.5 864.5 c 128,-1,3
 376 917 376 917 419 954 c 1,4,5
 483 927 483 927 504 854 c 1,6,7
 454 821 454 821 389 794 c 128,-1,8
 324 767 324 767 271 761 c 1,0,-1
456 10 m 2,9,-1
 469 10 l 1,10,-1
 469 0 l 1,11,-1
 110 0 l 1,12,-1
 110 10 l 1,13,-1
 123 10 l 2,14,15
 149 10 149 10 167.5 28.5 c 128,-1,16
 186 47 186 47 187 73 c 1,17,-1
 187 650 l 1,18,-1
 100 647 l 2,19,20
 16 644 16 644 10 585 c 0,21,22
 10 582 10 582 10 579 c 0,23,24
 10 551 10 551 29 534 c 128,-1,25
 48 517 48 517 77 517 c 0,26,27
 83 517 83 517 89 517 c 1,28,-1
 89 511 l 1,29,30
 67 499 67 499 45.5 499 c 128,-1,31
 24 499 24 499 2 512 c 0,32,33
 -40 537 -40 537 -40 586 c 0,34,35
 -40 632 -40 632 -4 662.5 c 128,-1,36
 32 693 32 693 109 696 c 0,37,38
 120 697 120 697 179.5 699 c 128,-1,39
 239 701 239 701 282 702 c 1,40,41
 406 708 406 708 469 720 c 1,42,-1
 471 710 l 1,43,44
 428 703 428 703 410.5 680.5 c 128,-1,45
 393 658 393 658 392 614 c 1,46,-1
 392 73 l 1,47,48
 393 47 393 47 411.5 28.5 c 128,-1,49
 430 10 430 10 456 10 c 2,9,-1
EndSplineSet
EndChar

StartChar: Icircumflex
Encoding: 206 206 142
Width: 498
GlyphClass: 2
Flags: W
LayerCount: 2
Fore
SplineSet
281 932 m 1,0,-1
 293 932 l 1,1,-1
 471 756 l 1,2,-1
 464 748 l 1,3,-1
 287 813 l 1,4,-1
 119 748 l 1,5,-1
 112 756 l 1,6,-1
 281 932 l 1,0,-1
456 10 m 2,7,-1
 469 10 l 1,8,-1
 469 0 l 1,9,-1
 110 0 l 1,10,-1
 110 10 l 1,11,-1
 123 10 l 2,12,13
 149 10 149 10 167.5 28.5 c 128,-1,14
 186 47 186 47 187 73 c 1,15,-1
 187 650 l 1,16,-1
 100 647 l 2,17,18
 16 644 16 644 10 585 c 0,19,20
 10 582 10 582 10 579 c 0,21,22
 10 551 10 551 29 534 c 128,-1,23
 48 517 48 517 77 517 c 0,24,25
 83 517 83 517 89 517 c 1,26,-1
 89 511 l 1,27,28
 67 499 67 499 45.5 499 c 128,-1,29
 24 499 24 499 2 512 c 0,30,31
 -40 537 -40 537 -40 586 c 0,32,33
 -40 632 -40 632 -4 662.5 c 128,-1,34
 32 693 32 693 109 696 c 0,35,36
 123 697 123 697 163 698 c 128,-1,37
 203 699 203 699 240 700.5 c 128,-1,38
 277 702 277 702 320 705 c 0,39,40
 415 710 415 710 469 720 c 1,41,-1
 471 710 l 1,42,43
 428 703 428 703 410.5 680.5 c 128,-1,44
 393 658 393 658 392 614 c 1,45,-1
 392 73 l 2,46,47
 392 47 392 47 411 28.5 c 128,-1,48
 430 10 430 10 456 10 c 2,7,-1
EndSplineSet
EndChar

StartChar: Idieresis
Encoding: 207 207 143
Width: 498
GlyphClass: 2
Flags: W
LayerCount: 2
Fore
SplineSet
153.5 755 m 128,-1,1
 123 755 123 755 101.5 777 c 128,-1,2
 80 799 80 799 80 829.5 c 128,-1,3
 80 860 80 860 101.5 881.5 c 128,-1,4
 123 903 123 903 153.5 903 c 128,-1,5
 184 903 184 903 205.5 881.5 c 128,-1,6
 227 860 227 860 227 829.5 c 128,-1,7
 227 799 227 799 205.5 777 c 128,-1,0
 184 755 184 755 153.5 755 c 128,-1,1
416.5 755 m 128,-1,9
 386 755 386 755 364 777 c 128,-1,10
 342 799 342 799 342 829.5 c 128,-1,11
 342 860 342 860 364 881.5 c 128,-1,12
 386 903 386 903 416.5 903 c 128,-1,13
 447 903 447 903 468.5 881.5 c 128,-1,14
 490 860 490 860 490 829.5 c 128,-1,15
 490 799 490 799 468.5 777 c 128,-1,8
 447 755 447 755 416.5 755 c 128,-1,9
456 10 m 2,16,-1
 469 10 l 1,17,-1
 469 0 l 1,18,-1
 110 0 l 1,19,-1
 110 10 l 1,20,-1
 123 10 l 2,21,22
 149 10 149 10 167.5 28.5 c 128,-1,23
 186 47 186 47 187 73 c 1,24,-1
 187 650 l 1,25,-1
 100 647 l 2,26,27
 16 644 16 644 10 585 c 0,28,29
 10 582 10 582 10 579 c 0,30,31
 10 551 10 551 29 534 c 128,-1,32
 48 517 48 517 77 517 c 0,33,34
 83 517 83 517 89 517 c 1,35,-1
 89 511 l 1,36,37
 67 499 67 499 45.5 499 c 128,-1,38
 24 499 24 499 2 512 c 0,39,40
 -40 537 -40 537 -40 586 c 0,41,42
 -40 632 -40 632 -4 662.5 c 128,-1,43
 32 693 32 693 109 696 c 0,44,45
 120 697 120 697 179.5 699 c 128,-1,46
 239 701 239 701 282 702 c 1,47,48
 406 708 406 708 469 720 c 1,49,-1
 471 710 l 1,50,51
 415 701 415 701 400 662 c 0,52,53
 393 643 393 643 392 614 c 1,54,-1
 392 73 l 2,55,56
 392 47 392 47 411 28.5 c 128,-1,57
 430 10 430 10 456 10 c 2,16,-1
EndSplineSet
EndChar

StartChar: Eth
Encoding: 208 208 144
Width: 878
GlyphClass: 2
Flags: W
LayerCount: 2
Fore
SplineSet
445 0 m 2,0,-1
 66 0 l 1,1,-1
 66 10 l 1,2,-1
 79 10 l 2,3,4
 105 10 105 10 123.5 28.5 c 128,-1,5
 142 47 142 47 143 73 c 1,6,-1
 143 325 l 1,7,-1
 66 325 l 1,8,-1
 66 375 l 1,9,-1
 143 375 l 1,10,-1
 143 644 l 1,11,12
 38 633 38 633 -16 585 c 0,13,14
 -62 544 -62 544 -90 480 c 1,15,-1
 -100 484 l 1,16,17
 -80 592 -80 592 3.5 646 c 128,-1,18
 87 700 87 700 213 700 c 2,19,-1
 445 700 l 2,20,21
 633 700 633 700 738.5 607.5 c 128,-1,22
 844 515 844 515 844 350 c 128,-1,23
 844 185 844 185 738 92.5 c 128,-1,24
 632 0 632 0 445 0 c 2,0,-1
348 325 m 1,25,-1
 348 50 l 1,26,-1
 425 50 l 1,27,28
 425 50 425 50 425 50 c 1,29,30
 518 50 518 50 571 129.5 c 128,-1,31
 624 209 624 209 624 350 c 128,-1,32
 624 491 624 491 571 570.5 c 128,-1,33
 518 650 518 650 425 650 c 1,34,-1
 348 648 l 1,35,-1
 348 375 l 1,36,-1
 456 375 l 1,37,-1
 456 325 l 1,38,-1
 348 325 l 1,25,-1
EndSplineSet
EndChar

StartChar: Ntilde
Encoding: 209 209 145
Width: 881
GlyphClass: 2
Flags: W
LayerCount: 2
Fore
SplineSet
597 919 m 1,0,-1
 609 919 l 1,1,2
 615 902 615 902 615 882.5 c 128,-1,3
 615 863 615 863 607 844 c 0,4,5
 585 794 585 794 546 776 c 0,6,7
 522 764 522 764 490.5 764 c 128,-1,8
 459 764 459 764 410 789 c 0,9,10
 360 814 360 814 342.5 816.5 c 128,-1,11
 325 819 325 819 310 819 c 128,-1,12
 295 819 295 819 271 803 c 128,-1,13
 247 787 247 787 239 767 c 1,14,-1
 227 767 l 1,15,16
 223 781 223 781 223 796 c 0,17,18
 223 856 223 856 268 899 c 0,19,20
 299 929 299 929 344 929 c 0,21,22
 369 929 369 929 393.5 918 c 128,-1,23
 418 907 418 907 447 893.5 c 128,-1,24
 476 880 476 880 494 877.5 c 128,-1,25
 512 875 512 875 527 875 c 128,-1,26
 542 875 542 875 566.5 889.5 c 128,-1,27
 591 904 591 904 597 919 c 1,0,-1
1141 -135 m 1,28,29
 1080 -173 1080 -173 1009 -173 c 0,30,31
 947 -173 947 -173 880 -136 c 0,32,33
 811 -99 811 -99 745 -31 c 2,34,-1
 306 423 l 1,35,-1
 306 71 l 2,36,37
 306 36 306 36 337 18 c 0,38,39
 351 10 351 10 367 10 c 2,40,-1
 386 10 l 1,41,-1
 386 0 l 1,42,-1
 20 0 l 1,43,-1
 20 10 l 1,44,-1
 39 10 l 2,45,46
 64 10 64 10 82 27.5 c 128,-1,47
 100 45 100 45 100 71 c 2,48,-1
 100 637 l 1,49,50
 -54 801 -54 801 -170 801 c 0,51,52
 -199 801 -199 801 -226 791 c 1,53,-1
 -231 800 l 1,54,55
 -175 840 -175 840 -105 840 c 0,56,57
 -44 840 -44 840 29 801 c 1,58,59
 101 761 101 761 165 696 c 2,60,-1
 576 271 l 1,61,-1
 576 629 l 1,62,63
 575 655 575 655 557 672.5 c 128,-1,64
 539 690 539 690 514 690 c 2,65,-1
 495 690 l 1,66,-1
 495 700 l 1,67,-1
 861 700 l 1,68,-1
 861 690 l 1,69,-1
 843 690 l 2,70,71
 818 690 818 690 800 672.5 c 128,-1,72
 782 655 782 655 781 630 c 1,73,-1
 781 59 l 1,74,-1
 799 40 l 1,75,76
 799 40 799 40 822.5 15 c 128,-1,77
 846 -10 846 -10 854.5 -18 c 128,-1,78
 863 -26 863 -26 889 -49.5 c 128,-1,79
 915 -73 915 -73 931 -82.5 c 128,-1,80
 947 -92 947 -92 975 -107.5 c 128,-1,81
 1003 -123 1003 -123 1026 -127 c 1,82,83
 1052 -133 1052 -133 1081 -133 c 128,-1,84
 1110 -133 1110 -133 1137 -125 c 1,85,-1
 1141 -135 l 1,28,29
EndSplineSet
EndChar

StartChar: Ograve
Encoding: 210 210 146
Width: 931
GlyphClass: 2
Flags: W
LayerCount: 2
Fore
SplineSet
492 785 m 1,0,-1
 485 778 l 1,1,2
 433 784 433 784 367.5 811 c 128,-1,3
 302 838 302 838 252 871 c 1,4,5
 274 944 274 944 338 971 c 1,6,7
 399 918 399 918 439 866.5 c 128,-1,8
 479 815 479 815 492 785 c 1,0,-1
367 433 m 1,9,10
 336 485 336 485 336 543 c 0,11,12
 336 623 336 623 396 673 c 0,13,14
 432 704 432 704 485 714 c 1,15,16
 518 719 518 719 538 719 c 0,17,18
 599 719 599 719 642 705.5 c 128,-1,19
 685 692 685 692 725 673.5 c 128,-1,20
 765 655 765 655 800.5 623 c 128,-1,21
 836 591 836 591 863 553 c 0,22,23
 921 471 921 471 921 355 c 0,24,25
 921 187 921 187 796.5 86.5 c 128,-1,26
 672 -14 672 -14 467 -14 c 128,-1,27
 262 -14 262 -14 136 87 c 128,-1,28
 10 188 10 188 10 353 c 0,29,30
 10 489 10 489 94.5 586.5 c 128,-1,31
 179 684 179 684 315 707 c 1,32,-1
 321 697 l 1,33,34
 280 654 280 654 255.5 569.5 c 128,-1,35
 231 485 231 485 231 387 c 0,36,37
 231 228 231 228 295 132 c 128,-1,38
 359 36 359 36 465.5 36 c 128,-1,39
 572 36 572 36 636 123 c 128,-1,40
 700 210 700 210 700 355 c 0,41,42
 700 447 700 447 674.5 520 c 128,-1,43
 649 593 649 593 604 629 c 128,-1,44
 559 665 559 665 508 665 c 0,45,46
 444 665 444 665 409 626 c 0,47,48
 368 581 368 581 368 514 c 0,49,50
 368 476 368 476 379 433 c 1,51,-1
 367 433 l 1,9,10
EndSplineSet
EndChar

StartChar: Oacute
Encoding: 211 211 147
Width: 931
GlyphClass: 2
Flags: W
LayerCount: 2
Fore
SplineSet
448 775 m 1,0,-1
 441 782 l 1,1,2
 468 844 468 844 557 931 c 0,3,4
 578 952 578 952 596 968 c 1,5,6
 660 941 660 941 681 868 c 1,7,8
 631 835 631 835 566 808 c 128,-1,9
 501 781 501 781 448 775 c 1,0,-1
367 433 m 1,10,11
 336 485 336 485 336 543 c 0,12,13
 336 623 336 623 396 673 c 0,14,15
 432 704 432 704 485 714 c 1,16,17
 518 719 518 719 538 719 c 0,18,19
 599 719 599 719 642 705.5 c 128,-1,20
 685 692 685 692 725 673.5 c 128,-1,21
 765 655 765 655 800.5 623 c 128,-1,22
 836 591 836 591 863 553 c 0,23,24
 921 471 921 471 921 355 c 0,25,26
 921 187 921 187 796.5 86.5 c 128,-1,27
 672 -14 672 -14 467 -14 c 128,-1,28
 262 -14 262 -14 136 87 c 128,-1,29
 10 188 10 188 10 353 c 0,30,31
 10 489 10 489 94.5 586.5 c 128,-1,32
 179 684 179 684 315 707 c 1,33,-1
 321 697 l 1,34,35
 280 654 280 654 255.5 569.5 c 128,-1,36
 231 485 231 485 231 387 c 0,37,38
 231 228 231 228 295 132 c 128,-1,39
 359 36 359 36 468 36 c 0,40,41
 572 36 572 36 636 122 c 0,42,43
 700 209 700 209 700 355 c 0,44,45
 700 447 700 447 674.5 520 c 128,-1,46
 649 593 649 593 604 629 c 128,-1,47
 559 665 559 665 508 665 c 0,48,49
 444 665 444 665 409 626 c 0,50,51
 368 581 368 581 368 514 c 0,52,53
 368 476 368 476 379 433 c 1,54,-1
 367 433 l 1,10,11
EndSplineSet
EndChar

StartChar: Ocircumflex
Encoding: 212 212 148
Width: 931
GlyphClass: 2
Flags: W
LayerCount: 2
Fore
SplineSet
458 946 m 1,0,-1
 470 946 l 1,1,-1
 649 770 l 1,2,-1
 641 762 l 1,3,-1
 464 827 l 1,4,-1
 296 762 l 1,5,-1
 289 770 l 1,6,-1
 458 946 l 1,0,-1
367 433 m 1,7,8
 336 485 336 485 336 543 c 0,9,10
 336 605 336 605 374.5 652.5 c 128,-1,11
 413 700 413 700 485 714 c 1,12,13
 518 719 518 719 538 719 c 0,14,15
 599 719 599 719 642 705.5 c 128,-1,16
 685 692 685 692 725 673.5 c 128,-1,17
 765 655 765 655 800.5 623 c 128,-1,18
 836 591 836 591 863 553 c 0,19,20
 921 471 921 471 921 355 c 0,21,22
 921 187 921 187 796.5 86.5 c 128,-1,23
 672 -14 672 -14 467 -14 c 128,-1,24
 262 -14 262 -14 136 87 c 128,-1,25
 10 188 10 188 10 353 c 0,26,27
 10 489 10 489 94.5 586.5 c 128,-1,28
 179 684 179 684 315 707 c 1,29,-1
 321 697 l 1,30,31
 280 654 280 654 255.5 569.5 c 128,-1,32
 231 485 231 485 231 387 c 0,33,34
 231 228 231 228 295 132 c 128,-1,35
 359 36 359 36 465.5 36 c 128,-1,36
 572 36 572 36 636 123 c 128,-1,37
 700 210 700 210 700 355 c 0,38,39
 700 447 700 447 674.5 520 c 128,-1,40
 649 593 649 593 604 629 c 128,-1,41
 559 665 559 665 508 665 c 0,42,43
 444 665 444 665 409 626 c 0,44,45
 368 581 368 581 368 514 c 0,46,47
 368 476 368 476 379 433 c 1,48,-1
 367 433 l 1,7,8
EndSplineSet
EndChar

StartChar: Otilde
Encoding: 213 213 149
Width: 931
GlyphClass: 2
Flags: W
LayerCount: 2
Fore
SplineSet
660 933 m 1,0,-1
 673 933 l 1,1,2
 679 916 679 916 679 896.5 c 128,-1,3
 679 877 679 877 670 858 c 0,4,5
 649 808 649 808 609 790 c 1,6,7
 585 778 585 778 557.5 778 c 128,-1,8
 530 778 530 778 503 789 c 0,9,10
 477 800 477 800 449 814 c 128,-1,11
 421 828 421 828 404.5 830.5 c 128,-1,12
 388 833 388 833 373.5 833 c 128,-1,13
 359 833 359 833 335 817 c 128,-1,14
 311 801 311 801 303 781 c 1,15,-1
 290 781 l 1,16,17
 287 795 287 795 287 810 c 0,18,19
 287 870 287 870 331 913 c 0,20,21
 362 943 362 943 399.5 943 c 128,-1,22
 437 943 437 943 491.5 916 c 128,-1,23
 546 889 546 889 591 889 c 0,24,25
 605 889 605 889 629.5 903.5 c 128,-1,26
 654 918 654 918 660 933 c 1,0,-1
367 433 m 1,27,28
 336 485 336 485 336 543 c 0,29,30
 336 605 336 605 374.5 652.5 c 128,-1,31
 413 700 413 700 485 714 c 1,32,33
 518 719 518 719 538 719 c 0,34,35
 599 719 599 719 642 705.5 c 128,-1,36
 685 692 685 692 725 673.5 c 128,-1,37
 765 655 765 655 800.5 623 c 128,-1,38
 836 591 836 591 863 553 c 0,39,40
 921 471 921 471 921 355 c 0,41,42
 921 187 921 187 796.5 86.5 c 128,-1,43
 672 -14 672 -14 466.5 -14 c 128,-1,44
 261 -14 261 -14 135.5 87 c 128,-1,45
 10 188 10 188 10 353 c 0,46,47
 10 489 10 489 94.5 586.5 c 128,-1,48
 179 684 179 684 315 707 c 1,49,-1
 321 697 l 1,50,51
 280 654 280 654 255.5 569.5 c 128,-1,52
 231 485 231 485 231 387 c 0,53,54
 231 228 231 228 295 132 c 128,-1,55
 359 36 359 36 468 36 c 0,56,57
 572 36 572 36 636 122 c 0,58,59
 700 209 700 209 700 355 c 0,60,61
 700 447 700 447 674.5 520 c 128,-1,62
 649 593 649 593 604 629 c 128,-1,63
 559 665 559 665 508 665 c 0,64,65
 444 665 444 665 409 626 c 0,66,67
 368 581 368 581 368 514 c 0,68,69
 368 476 368 476 379 433 c 1,70,-1
 367 433 l 1,27,28
EndSplineSet
EndChar

StartChar: Odieresis
Encoding: 214 214 150
Width: 931
GlyphClass: 2
Flags: W
LayerCount: 2
Fore
SplineSet
330.5 769 m 128,-1,1
 300 769 300 769 278.5 791 c 128,-1,2
 257 813 257 813 257 843.5 c 128,-1,3
 257 874 257 874 278.5 895.5 c 128,-1,4
 300 917 300 917 330.5 917 c 128,-1,5
 361 917 361 917 382.5 895.5 c 128,-1,6
 404 874 404 874 404 843.5 c 128,-1,7
 404 813 404 813 382.5 791 c 128,-1,0
 361 769 361 769 330.5 769 c 128,-1,1
593.5 769 m 128,-1,9
 563 769 563 769 541 791 c 128,-1,10
 519 813 519 813 519 843.5 c 128,-1,11
 519 874 519 874 541 895.5 c 128,-1,12
 563 917 563 917 593.5 917 c 128,-1,13
 624 917 624 917 645.5 895.5 c 128,-1,14
 667 874 667 874 667 843.5 c 128,-1,15
 667 813 667 813 645.5 791 c 128,-1,8
 624 769 624 769 593.5 769 c 128,-1,9
367 433 m 1,16,17
 336 485 336 485 336 543 c 0,18,19
 336 623 336 623 396 673 c 0,20,21
 432 704 432 704 485 714 c 1,22,23
 518 719 518 719 538 719 c 0,24,25
 599 719 599 719 642 705.5 c 128,-1,26
 685 692 685 692 725 673.5 c 128,-1,27
 765 655 765 655 800.5 623 c 128,-1,28
 836 591 836 591 863 553 c 0,29,30
 921 471 921 471 921 355 c 0,31,32
 921 187 921 187 796.5 86.5 c 128,-1,33
 672 -14 672 -14 467 -14 c 128,-1,34
 262 -14 262 -14 136 87 c 128,-1,35
 10 188 10 188 10 353 c 0,36,37
 10 489 10 489 94.5 586.5 c 128,-1,38
 179 684 179 684 315 707 c 1,39,-1
 321 697 l 1,40,41
 280 654 280 654 255.5 569.5 c 128,-1,42
 231 485 231 485 231 387 c 0,43,44
 231 228 231 228 295 132 c 128,-1,45
 359 36 359 36 468 36 c 0,46,47
 572 36 572 36 636 122 c 0,48,49
 700 209 700 209 700 355 c 0,50,51
 700 447 700 447 674.5 520 c 128,-1,52
 649 593 649 593 604 629 c 128,-1,53
 559 665 559 665 508 665 c 0,54,55
 444 665 444 665 409 626 c 0,56,57
 368 581 368 581 368 514 c 0,58,59
 368 476 368 476 379 433 c 1,60,-1
 367 433 l 1,16,17
EndSplineSet
EndChar

StartChar: multiply
Encoding: 215 215 151
Width: 410
GlyphClass: 2
Flags: W
LayerCount: 2
Fore
SplineSet
370 429 m 1,0,-1
 251 310 l 1,1,-1
 370 191 l 1,2,-1
 324 145 l 1,3,-1
 205 264 l 1,4,-1
 86 145 l 1,5,-1
 40 191 l 1,6,-1
 159 310 l 1,7,-1
 40 429 l 1,8,-1
 86 475 l 1,9,-1
 205 356 l 1,10,-1
 324 475 l 1,11,-1
 370 429 l 1,0,-1
EndSplineSet
EndChar

StartChar: Oslash
Encoding: 216 216 152
Width: 905
GlyphClass: 2
Flags: W
LayerCount: 2
Fore
SplineSet
352 433 m 1,0,1
 321 485 321 485 321 543 c 0,2,3
 321 623 321 623 381 673 c 0,4,5
 436 720 436 720 521 720 c 128,-1,6
 606 720 606 720 686 684 c 1,7,-1
 722 726 l 1,8,-1
 766 692 l 1,9,-1
 737 658 l 1,10,11
 841 594 841 594 883 485 c 0,12,13
 906 425 906 425 906 355 c 0,14,15
 906 187 906 187 781.5 86.5 c 128,-1,16
 657 -14 657 -14 452 -14 c 0,17,18
 311 -14 311 -14 203 36 c 1,19,-1
 153 -23 l 1,20,-1
 109 13 l 1,21,-1
 153 64 l 1,22,23
 77 113 77 113 36 187 c 128,-1,24
 -5 261 -5 261 -5 353 c 0,25,26
 -5 489 -5 489 79.5 586.5 c 128,-1,27
 164 684 164 684 300 707 c 1,28,-1
 306 697 l 1,29,30
 265 654 265 654 240.5 569.5 c 128,-1,31
 216 485 216 485 216 376 c 128,-1,32
 216 267 216 267 253 181 c 1,33,-1
 615 602 l 1,34,35
 565 665 565 665 494 665 c 0,36,37
 429 665 429 665 394 626 c 0,38,39
 353 581 353 581 353 514 c 0,40,41
 353 476 353 476 364 433 c 1,42,-1
 352 433 l 1,0,1
283 128 m 1,43,44
 347 36 347 36 452 36 c 128,-1,45
 557 36 557 36 621 123 c 128,-1,46
 685 210 685 210 685 355 c 0,47,48
 685 469 685 469 646 552 c 1,49,-1
 283 128 l 1,43,44
EndSplineSet
EndChar

StartChar: Ugrave
Encoding: 217 217 153
Width: 852
GlyphClass: 2
Flags: W
LayerCount: 2
Fore
SplineSet
527 771 m 1,0,-1
 520 764 l 1,1,2
 467 770 467 770 402 797 c 128,-1,3
 337 824 337 824 287 857 c 1,4,5
 308 930 308 930 372 957 c 1,6,7
 415 920 415 920 461.5 867.5 c 128,-1,8
 508 815 508 815 527 771 c 1,0,-1
930 923 m 0,9,10
 944 923 944 923 958 921 c 1,11,-1
 958 911 l 1,12,13
 868 900 868 900 822 826 c 128,-1,14
 776 752 776 752 776 630 c 2,15,-1
 776 257 l 1,16,17
 774 125 774 125 691.5 55.5 c 128,-1,18
 609 -14 609 -14 447 -14 c 128,-1,19
 285 -14 285 -14 192 58 c 128,-1,20
 99 130 99 130 99 250 c 0,21,22
 99 253 99 253 99 256 c 2,23,-1
 99 641 l 2,24,25
 99 662 99 662 83.5 676 c 128,-1,26
 68 690 68 690 46 690 c 2,27,-1
 30 690 l 1,28,-1
 30 700 l 1,29,-1
 373 700 l 1,30,-1
 373 690 l 1,31,-1
 357 690 l 2,32,33
 322 690 322 690 308 660 c 0,34,35
 304 652 304 652 304 643 c 2,36,-1
 304 260 l 2,37,38
 304 156 304 156 356.5 96.5 c 128,-1,39
 409 37 409 37 496 37 c 0,40,41
 497 37 497 37 497.5 37 c 128,-1,42
 498 37 498 37 499 37 c 0,43,44
 582 37 582 37 635.5 92.5 c 128,-1,45
 689 148 689 148 689 247 c 2,46,-1
 689 630 l 2,47,48
 689 754 689 754 761 843 c 0,49,50
 795 884 795 884 840.5 903.5 c 128,-1,51
 886 923 886 923 930 923 c 0,9,10
EndSplineSet
EndChar

StartChar: Uacute
Encoding: 218 218 154
Width: 852
GlyphClass: 2
Flags: W
LayerCount: 2
Fore
SplineSet
483 761 m 1,0,-1
 476 768 l 1,1,2
 495 812 495 812 541.5 864.5 c 128,-1,3
 588 917 588 917 631 954 c 1,4,5
 695 927 695 927 716 854 c 1,6,7
 666 821 666 821 601 794 c 128,-1,8
 536 767 536 767 483 761 c 1,0,-1
930 923 m 0,9,10
 944 923 944 923 958 921 c 1,11,-1
 958 911 l 1,12,13
 868 900 868 900 822 826 c 128,-1,14
 776 752 776 752 776 630 c 2,15,-1
 776 257 l 1,16,17
 774 125 774 125 691.5 55.5 c 128,-1,18
 609 -14 609 -14 447 -14 c 128,-1,19
 285 -14 285 -14 192 58 c 128,-1,20
 99 130 99 130 99 250 c 0,21,22
 99 253 99 253 99 256 c 2,23,-1
 99 641 l 2,24,25
 99 662 99 662 83.5 676 c 128,-1,26
 68 690 68 690 46 690 c 2,27,-1
 30 690 l 1,28,-1
 30 700 l 1,29,-1
 373 700 l 1,30,-1
 373 690 l 1,31,-1
 357 690 l 2,32,33
 322 690 322 690 308 660 c 0,34,35
 304 652 304 652 304 643 c 2,36,-1
 304 260 l 2,37,38
 304 156 304 156 356.5 97 c 128,-1,39
 409 38 409 38 496 38 c 0,40,41
 497 38 497 38 497.5 38 c 128,-1,42
 498 38 498 38 499 38 c 0,43,44
 582 38 582 38 635.5 93 c 128,-1,45
 689 148 689 148 689 247 c 2,46,-1
 689 630 l 2,47,48
 689 754 689 754 761 843 c 0,49,50
 795 884 795 884 840.5 903.5 c 128,-1,51
 886 923 886 923 930 923 c 0,9,10
EndSplineSet
EndChar

StartChar: Ucircumflex
Encoding: 219 219 155
Width: 852
GlyphClass: 2
Flags: W
LayerCount: 2
Fore
SplineSet
493 932 m 1,0,-1
 505 932 l 1,1,-1
 683 756 l 1,2,-1
 676 748 l 1,3,-1
 498 813 l 1,4,-1
 331 748 l 1,5,-1
 324 756 l 1,6,-1
 493 932 l 1,0,-1
930 923 m 0,7,8
 944 923 944 923 958 921 c 1,9,-1
 958 911 l 1,10,11
 868 900 868 900 822 826 c 128,-1,12
 776 752 776 752 776 630 c 2,13,-1
 776 257 l 1,14,15
 774 125 774 125 691.5 55.5 c 128,-1,16
 609 -14 609 -14 447 -14 c 128,-1,17
 285 -14 285 -14 192 58 c 128,-1,18
 99 130 99 130 99 250 c 0,19,20
 99 253 99 253 99 256 c 2,21,-1
 99 641 l 2,22,23
 99 662 99 662 83.5 676 c 128,-1,24
 68 690 68 690 46 690 c 2,25,-1
 30 690 l 1,26,-1
 30 700 l 1,27,-1
 373 700 l 1,28,-1
 373 690 l 1,29,-1
 357 690 l 2,30,31
 334 690 334 690 319.5 676 c 128,-1,32
 305 662 305 662 304 643 c 1,33,-1
 304 260 l 2,34,35
 304 156 304 156 356.5 96.5 c 128,-1,36
 409 37 409 37 496 37 c 0,37,38
 497 37 497 37 497.5 37 c 128,-1,39
 498 37 498 37 499 37 c 0,40,41
 582 37 582 37 635.5 92.5 c 128,-1,42
 689 148 689 148 689 247 c 2,43,-1
 689 630 l 2,44,45
 689 754 689 754 761 843 c 0,46,47
 795 884 795 884 840.5 903.5 c 128,-1,48
 886 923 886 923 930 923 c 0,7,8
EndSplineSet
EndChar

StartChar: Udieresis
Encoding: 220 220 156
Width: 852
GlyphClass: 2
Flags: W
LayerCount: 2
Fore
SplineSet
930 923 m 0,0,1
 944 923 944 923 958 921 c 1,2,-1
 958 911 l 1,3,4
 868 900 868 900 822 826 c 128,-1,5
 776 752 776 752 776 630 c 2,6,-1
 776 257 l 1,7,8
 774 125 774 125 691.5 55.5 c 128,-1,9
 609 -14 609 -14 447 -14 c 128,-1,10
 285 -14 285 -14 192 58 c 128,-1,11
 99 130 99 130 99 250 c 0,12,13
 99 253 99 253 99 256 c 2,14,-1
 99 641 l 2,15,16
 99 662 99 662 83.5 676 c 128,-1,17
 68 690 68 690 46 690 c 2,18,-1
 30 690 l 1,19,-1
 30 700 l 1,20,-1
 373 700 l 1,21,-1
 373 690 l 1,22,-1
 357 690 l 2,23,24
 326 690 326 690 311 666 c 0,25,26
 305 655 305 655 304 643 c 1,27,-1
 304 260 l 2,28,29
 304 156 304 156 356.5 96.5 c 128,-1,30
 409 37 409 37 496 37 c 0,31,32
 497 37 497 37 497.5 37 c 128,-1,33
 498 37 498 37 499 37 c 0,34,35
 582 37 582 37 635.5 92.5 c 128,-1,36
 689 148 689 148 689 247 c 2,37,-1
 689 630 l 2,38,39
 689 754 689 754 761 843 c 0,40,41
 795 884 795 884 840.5 903.5 c 128,-1,42
 886 923 886 923 930 923 c 0,0,1
365.5 756 m 128,-1,44
 335 756 335 756 313 777.5 c 128,-1,45
 291 799 291 799 291 829.5 c 128,-1,46
 291 860 291 860 313 881.5 c 128,-1,47
 335 903 335 903 365.5 903 c 128,-1,48
 396 903 396 903 417.5 881.5 c 128,-1,49
 439 860 439 860 439 829.5 c 128,-1,50
 439 799 439 799 417.5 777.5 c 128,-1,43
 396 756 396 756 365.5 756 c 128,-1,44
627.5 756 m 128,-1,52
 597 756 597 756 575.5 777.5 c 128,-1,53
 554 799 554 799 554 829.5 c 128,-1,54
 554 860 554 860 575.5 881.5 c 128,-1,55
 597 903 597 903 627.5 903 c 128,-1,56
 658 903 658 903 679.5 881.5 c 128,-1,57
 701 860 701 860 701 829.5 c 128,-1,58
 701 799 701 799 679.5 777.5 c 128,-1,51
 658 756 658 756 627.5 756 c 128,-1,52
EndSplineSet
EndChar

StartChar: Yacute
Encoding: 221 221 157
Width: 699
GlyphClass: 2
Flags: W
LayerCount: 2
Fore
SplineSet
348 761 m 1,0,-1
 341 768 l 1,1,2
 360 812 360 812 406 864.5 c 128,-1,3
 452 917 452 917 496 954 c 1,4,5
 560 927 560 927 581 854 c 1,6,7
 531 821 531 821 466 794 c 128,-1,8
 401 767 401 767 348 761 c 1,0,-1
-29 761 m 0,9,10
 117 761 117 761 230 693 c 0,11,12
 363 612 363 612 418 461 c 1,13,14
 458 579 458 579 545 670 c 0,15,16
 587 713 587 713 634.5 736.5 c 128,-1,17
 682 760 682 760 726 760 c 0,18,19
 733 760 733 760 740 759 c 1,20,-1
 740 749 l 1,21,22
 694 747 694 747 643.5 700.5 c 128,-1,23
 593 654 593 654 554 587.5 c 128,-1,24
 515 521 515 521 486.5 449 c 128,-1,25
 458 377 458 377 451 322 c 1,26,-1
 451 73 l 2,27,28
 451 37 451 37 482 19 c 0,29,30
 497 10 497 10 515 10 c 2,31,-1
 527 10 l 1,32,-1
 528 0 l 1,33,-1
 169 0 l 1,34,-1
 169 10 l 1,35,-1
 182 10 l 2,36,37
 208 10 208 10 226.5 28.5 c 128,-1,38
 245 47 245 47 246 73 c 1,39,-1
 246 322 l 1,40,41
 224 427 224 427 170 531 c 0,42,43
 140 588 140 588 104 634 c 128,-1,44
 68 680 68 680 18 712.5 c 128,-1,45
 -32 745 -32 745 -85 749 c 1,46,-1
 -85 759 l 1,47,48
 -56 761 -56 761 -29 761 c 0,9,10
EndSplineSet
EndChar

StartChar: Thorn
Encoding: 222 222 158
Width: 707
GlyphClass: 2
Flags: W
LayerCount: 2
Fore
SplineSet
693 353 m 0,0,1
 693 307 693 307 674.5 264 c 128,-1,2
 656 221 656 221 621 192 c 0,3,4
 558 141 558 141 487 141 c 0,5,6
 415 141 415 141 351 187 c 1,7,-1
 351 197 l 1,8,9
 387 203 387 203 405.5 216.5 c 128,-1,10
 424 230 424 230 435 241 c 0,11,12
 460 268 460 268 468.5 304 c 128,-1,13
 477 340 477 340 477 355 c 0,14,15
 477 434 477 434 443 471 c 128,-1,16
 409 508 409 508 352 508 c 2,17,-1
 325 508 l 1,18,-1
 325 73 l 2,19,20
 325 36 325 36 357 18 c 0,21,22
 371 10 371 10 389 10 c 2,23,-1
 401 10 l 1,24,-1
 401 0 l 1,25,-1
 43 0 l 1,26,-1
 43 10 l 1,27,-1
 55 10 l 2,28,29
 82 10 82 10 100.5 28.5 c 128,-1,30
 119 47 119 47 120 73 c 1,31,-1
 120 628 l 1,32,33
 119 654 119 654 100.5 672 c 128,-1,34
 82 690 82 690 56 690 c 2,35,-1
 43 690 l 1,36,-1
 43 700 l 1,37,-1
 401 700 l 1,38,-1
 401 690 l 1,39,-1
 389 690 l 2,40,41
 363 690 363 690 344 672 c 128,-1,42
 325 654 325 654 325 628 c 2,43,-1
 325 558 l 1,44,-1
 416 558 l 2,45,46
 582 558 582 558 650 479 c 0,47,48
 693 429 693 429 693 353 c 0,0,1
EndSplineSet
EndChar

StartChar: germandbls
Encoding: 223 223 159
Width: 1290
GlyphClass: 2
Flags: W
LayerCount: 2
Fore
SplineSet
520 45.5 m 128,-1,1
 434 -14 434 -14 291 -14 c 0,2,3
 208 -14 208 -14 145 4.5 c 128,-1,4
 82 23 82 23 54 51 c 1,5,6
 45 73 45 73 45 98.5 c 128,-1,7
 45 124 45 124 49 148 c 0,8,9
 60 207 60 207 86 240 c 1,10,-1
 95 240 l 1,11,12
 94 234 94 234 94 227 c 0,13,14
 94 153 94 153 152.5 94.5 c 128,-1,15
 211 36 211 36 312 36 c 0,16,17
 380 36 380 36 416.5 64.5 c 128,-1,18
 453 93 453 93 453 129.5 c 128,-1,19
 453 166 453 166 428 192 c 128,-1,20
 403 218 403 218 347 244 c 2,21,-1
 184 320 l 1,22,23
 115 351 115 351 84 407 c 0,24,25
 59 451 59 451 59 504 c 0,26,27
 59 612 59 612 132 668 c 0,28,29
 193 714 193 714 294 714 c 0,30,31
 360 714 360 714 463 704 c 1,32,-1
 541 704 l 1,33,-1
 519 541 l 1,34,-1
 509 541 l 1,35,36
 509 596 509 596 466 630 c 128,-1,37
 423 664 423 664 356.5 664 c 128,-1,38
 290 664 290 664 253.5 641 c 128,-1,39
 217 618 217 618 214 580 c 0,40,41
 210 533 210 533 274 500 c 0,42,43
 285 494 285 494 303 487 c 1,44,-1
 490 400 l 2,45,46
 606 347 606 347 606 226 c 128,-1,0
 606 105 606 105 520 45.5 c 128,-1,1
1165 45.5 m 128,-1,48
 1079 -14 1079 -14 936 -14 c 0,49,50
 853 -14 853 -14 790 4.5 c 128,-1,51
 727 23 727 23 699 51 c 1,52,53
 690 73 690 73 690 98.5 c 128,-1,54
 690 124 690 124 694 148 c 0,55,56
 705 207 705 207 731 240 c 1,57,-1
 740 240 l 1,58,59
 739 234 739 234 739 227 c 0,60,61
 739 153 739 153 797.5 94.5 c 128,-1,62
 856 36 856 36 957 36 c 0,63,64
 1025 36 1025 36 1061.5 64.5 c 128,-1,65
 1098 93 1098 93 1098 129.5 c 128,-1,66
 1098 166 1098 166 1073 192 c 128,-1,67
 1048 218 1048 218 992 244 c 2,68,-1
 829 320 l 1,69,70
 760 351 760 351 729 407 c 0,71,72
 704 451 704 451 704 504 c 0,73,74
 704 612 704 612 777 668 c 0,75,76
 838 714 838 714 939 714 c 0,77,78
 1005 714 1005 714 1108 704 c 1,79,-1
 1186 704 l 1,80,-1
 1164 541 l 1,81,-1
 1154 541 l 1,82,83
 1154 596 1154 596 1111 630 c 128,-1,84
 1068 664 1068 664 1001.5 664 c 128,-1,85
 935 664 935 664 898 641 c 1,86,87
 859 615 859 615 859 573 c 0,88,89
 859 545 859 545 880.5 526 c 128,-1,90
 902 507 902 507 948 487 c 1,91,-1
 1135 400 l 2,92,93
 1251 347 1251 347 1251 226 c 128,-1,47
 1251 105 1251 105 1165 45.5 c 128,-1,48
EndSplineSet
EndChar

StartChar: agrave
Encoding: 224 224 160
Width: 720
GlyphClass: 2
Flags: W
LayerCount: 2
Fore
SplineSet
377 771 m 1,0,-1
 370 764 l 1,1,2
 317 770 317 770 252 797 c 128,-1,3
 187 824 187 824 137 857 c 1,4,5
 158 930 158 930 222 957 c 1,6,7
 266 920 266 920 312 867.5 c 128,-1,8
 358 815 358 815 377 771 c 1,0,-1
752 10 m 2,9,-1
 760 10 l 1,10,-1
 760 0 l 1,11,-1
 381 0 l 1,12,-1
 381 10 l 1,13,-1
 390 10 l 2,14,15
 412 10 412 10 423 23.5 c 128,-1,16
 434 37 434 37 434 48.5 c 128,-1,17
 434 60 434 60 429 73 c 2,18,-1
 390 166 l 1,19,-1
 176 166 l 1,20,-1
 136 73 l 2,21,22
 131 60 131 60 131 52 c 128,-1,23
 131 44 131 44 134.5 34.5 c 128,-1,24
 138 25 138 25 149.5 17.5 c 128,-1,25
 161 10 161 10 174 10 c 2,26,-1
 183 10 l 1,27,-1
 183 0 l 1,28,-1
 -40 0 l 1,29,-1
 -40 10 l 1,30,-1
 -31 10 l 2,31,32
 -8 10 -8 10 14.5 23.5 c 128,-1,33
 37 37 37 37 52 64 c 1,34,-1
 285 575 l 1,35,36
 338 687 338 687 342 724 c 1,37,-1
 351 724 l 1,38,-1
 668 65 l 1,39,40
 700 10 700 10 752 10 c 2,9,-1
198 216 m 1,41,-1
 369 216 l 1,42,-1
 285 416 l 1,43,-1
 198 216 l 1,41,-1
EndSplineSet
EndChar

StartChar: aacute
Encoding: 225 225 161
Width: 720
GlyphClass: 2
Flags: W
LayerCount: 2
Fore
SplineSet
333 761 m 1,0,-1
 326 768 l 1,1,2
 345 812 345 812 391.5 864.5 c 128,-1,3
 438 917 438 917 481 954 c 1,4,5
 545 927 545 927 566 854 c 1,6,7
 516 821 516 821 451 794 c 128,-1,8
 386 767 386 767 333 761 c 1,0,-1
752 10 m 2,9,-1
 760 10 l 1,10,-1
 760 0 l 1,11,-1
 381 0 l 1,12,-1
 381 10 l 1,13,-1
 390 10 l 2,14,15
 412 10 412 10 423 23.5 c 128,-1,16
 434 37 434 37 434 48.5 c 128,-1,17
 434 60 434 60 429 73 c 2,18,-1
 390 166 l 1,19,-1
 176 166 l 1,20,-1
 136 73 l 2,21,22
 131 60 131 60 131 52 c 128,-1,23
 131 44 131 44 134.5 34.5 c 128,-1,24
 138 25 138 25 149.5 17.5 c 128,-1,25
 161 10 161 10 174 10 c 2,26,-1
 183 10 l 1,27,-1
 183 0 l 1,28,-1
 -40 0 l 1,29,-1
 -40 10 l 1,30,-1
 -31 10 l 2,31,32
 -8 10 -8 10 14.5 23.5 c 128,-1,33
 37 37 37 37 52 64 c 1,34,-1
 285 575 l 1,35,36
 338 687 338 687 342 724 c 1,37,-1
 351 724 l 1,38,-1
 668 65 l 1,39,40
 700 10 700 10 752 10 c 2,9,-1
198 216 m 1,41,-1
 369 216 l 1,42,-1
 285 416 l 1,43,-1
 198 216 l 1,41,-1
EndSplineSet
EndChar

StartChar: acircumflex
Encoding: 226 226 162
Width: 720
GlyphClass: 2
Flags: W
LayerCount: 2
Fore
SplineSet
343 932 m 1,0,-1
 355 932 l 1,1,-1
 533 756 l 1,2,-1
 526 748 l 1,3,-1
 348 813 l 1,4,-1
 181 748 l 1,5,-1
 174 756 l 1,6,-1
 343 932 l 1,0,-1
752 10 m 2,7,-1
 760 10 l 1,8,-1
 760 0 l 1,9,-1
 381 0 l 1,10,-1
 381 10 l 1,11,-1
 390 10 l 2,12,13
 412 10 412 10 423 23.5 c 128,-1,14
 434 37 434 37 434 48.5 c 128,-1,15
 434 60 434 60 429 73 c 2,16,-1
 390 166 l 1,17,-1
 176 166 l 1,18,-1
 136 73 l 2,19,20
 131 60 131 60 131 52 c 128,-1,21
 131 44 131 44 134.5 34.5 c 128,-1,22
 138 25 138 25 149.5 17.5 c 128,-1,23
 161 10 161 10 174 10 c 2,24,-1
 183 10 l 1,25,-1
 183 0 l 1,26,-1
 -40 0 l 1,27,-1
 -40 10 l 1,28,-1
 -31 10 l 2,29,30
 -8 10 -8 10 14.5 23.5 c 128,-1,31
 37 37 37 37 52 64 c 1,32,-1
 285 575 l 1,33,34
 338 687 338 687 342 724 c 1,35,-1
 351 724 l 1,36,-1
 668 65 l 1,37,38
 700 10 700 10 752 10 c 2,7,-1
198 216 m 1,39,-1
 369 216 l 1,40,-1
 285 416 l 1,41,-1
 198 216 l 1,39,-1
EndSplineSet
EndChar

StartChar: atilde
Encoding: 227 227 163
Width: 720
GlyphClass: 2
Flags: W
LayerCount: 2
Fore
SplineSet
545 919 m 1,0,-1
 558 919 l 1,1,2
 564 902 564 902 564 882.5 c 128,-1,3
 564 863 564 863 555 844 c 0,4,5
 534 794 534 794 494 776 c 1,6,7
 470 764 470 764 439 764 c 128,-1,8
 408 764 408 764 358 789 c 0,9,10
 309 814 309 814 291 816.5 c 128,-1,11
 273 819 273 819 258.5 819 c 128,-1,12
 244 819 244 819 220 803 c 128,-1,13
 196 787 196 787 188 767 c 1,14,-1
 175 767 l 1,15,16
 172 781 172 781 172 796 c 0,17,18
 172 856 172 856 216 899 c 0,19,20
 247 929 247 929 284.5 929 c 128,-1,21
 322 929 322 929 376 902 c 128,-1,22
 430 875 430 875 475 875 c 0,23,24
 490 875 490 875 514.5 889.5 c 128,-1,25
 539 904 539 904 545 919 c 1,0,-1
752 10 m 2,27,-1
 760 10 l 1,28,-1
 760 0 l 1,29,-1
 381 0 l 1,30,-1
 381 10 l 1,31,-1
 390 10 l 2,32,33
 412 10 412 10 423 23.5 c 128,-1,34
 434 37 434 37 434 48.5 c 128,-1,35
 434 60 434 60 429 73 c 2,36,-1
 390 166 l 1,37,-1
 176 166 l 1,38,-1
 136 73 l 2,39,40
 130 60 130 60 130 48.5 c 128,-1,41
 130 37 130 37 141 23.5 c 128,-1,42
 152 10 152 10 174 10 c 2,43,-1
 183 10 l 1,44,-1
 183 0 l 1,45,-1
 -40 0 l 1,46,-1
 -40 10 l 1,47,-1
 -31 10 l 2,48,49
 -8 10 -8 10 14.5 23.5 c 128,-1,50
 37 37 37 37 52 64 c 1,51,-1
 285 575 l 1,52,53
 338 687 338 687 342 724 c 1,54,-1
 351 724 l 1,55,-1
 668 65 l 1,56,26
 700 10 700 10 752 10 c 2,27,-1
198 216 m 1,57,-1
 369 216 l 1,58,-1
 285 416 l 1,59,-1
 198 216 l 1,57,-1
EndSplineSet
EndChar

StartChar: adieresis
Encoding: 228 228 164
Width: 720
GlyphClass: 2
Flags: W
LayerCount: 2
Fore
SplineSet
215.5 755 m 128,-1,1
 185 755 185 755 163.5 777 c 128,-1,2
 142 799 142 799 142 829.5 c 128,-1,3
 142 860 142 860 163.5 881.5 c 128,-1,4
 185 903 185 903 215.5 903 c 128,-1,5
 246 903 246 903 267.5 881.5 c 128,-1,6
 289 860 289 860 289 829.5 c 128,-1,7
 289 799 289 799 267.5 777 c 128,-1,0
 246 755 246 755 215.5 755 c 128,-1,1
478.5 755 m 128,-1,9
 448 755 448 755 426 777 c 128,-1,10
 404 799 404 799 404 829.5 c 128,-1,11
 404 860 404 860 426 881.5 c 128,-1,12
 448 903 448 903 478.5 903 c 128,-1,13
 509 903 509 903 530.5 881.5 c 128,-1,14
 552 860 552 860 552 829.5 c 128,-1,15
 552 799 552 799 530.5 777 c 128,-1,8
 509 755 509 755 478.5 755 c 128,-1,9
752 10 m 2,16,-1
 760 10 l 1,17,-1
 760 0 l 1,18,-1
 381 0 l 1,19,-1
 381 10 l 1,20,-1
 390 10 l 2,21,22
 412 10 412 10 423 23.5 c 128,-1,23
 434 37 434 37 434 48.5 c 128,-1,24
 434 60 434 60 429 73 c 2,25,-1
 390 166 l 1,26,-1
 176 166 l 1,27,-1
 136 73 l 2,28,29
 131 60 131 60 131 52 c 128,-1,30
 131 44 131 44 134.5 34.5 c 128,-1,31
 138 25 138 25 149.5 17.5 c 128,-1,32
 161 10 161 10 174 10 c 2,33,-1
 183 10 l 1,34,-1
 183 0 l 1,35,-1
 -40 0 l 1,36,-1
 -40 10 l 1,37,-1
 -31 10 l 2,38,39
 -8 10 -8 10 14.5 23.5 c 128,-1,40
 37 37 37 37 52 64 c 1,41,-1
 285 575 l 1,42,43
 338 687 338 687 342 724 c 1,44,-1
 351 724 l 1,45,-1
 668 65 l 1,46,47
 700 10 700 10 752 10 c 2,16,-1
198 216 m 1,48,-1
 369 216 l 1,49,-1
 285 416 l 1,50,-1
 198 216 l 1,48,-1
EndSplineSet
EndChar

StartChar: aring
Encoding: 229 229 165
Width: 720
GlyphClass: 2
Flags: W
LayerCount: 2
Fore
SplineSet
265 916.5 m 128,-1,1
 299 942 299 942 349.5 942 c 128,-1,2
 400 942 400 942 433.5 917 c 128,-1,3
 467 892 467 892 467 853.5 c 128,-1,4
 467 815 467 815 433.5 789 c 128,-1,5
 400 763 400 763 349 763 c 128,-1,6
 298 763 298 763 264.5 788.5 c 128,-1,7
 231 814 231 814 231 852.5 c 128,-1,0
 231 891 231 891 265 916.5 c 128,-1,1
386 895 m 128,-1,9
 371 912 371 912 349 912 c 128,-1,10
 327 912 327 912 312.5 895 c 128,-1,11
 298 878 298 878 298 852.5 c 128,-1,12
 298 827 298 827 312.5 810.5 c 128,-1,13
 327 794 327 794 349 794 c 128,-1,14
 371 794 371 794 386 810.5 c 128,-1,15
 401 827 401 827 401 852.5 c 128,-1,8
 401 878 401 878 386 895 c 128,-1,9
752 10 m 2,16,-1
 760 10 l 1,17,-1
 760 0 l 1,18,-1
 381 0 l 1,19,-1
 381 10 l 1,20,-1
 390 10 l 2,21,22
 412 10 412 10 423 23.5 c 128,-1,23
 434 37 434 37 434 48.5 c 128,-1,24
 434 60 434 60 429 73 c 2,25,-1
 390 166 l 1,26,-1
 176 166 l 1,27,-1
 136 73 l 2,28,29
 131 60 131 60 131 52 c 128,-1,30
 131 44 131 44 134 34.5 c 128,-1,31
 137 25 137 25 149 17.5 c 128,-1,32
 161 10 161 10 174 10 c 2,33,-1
 183 10 l 1,34,-1
 183 0 l 1,35,-1
 -40 0 l 1,36,-1
 -40 10 l 1,37,-1
 -31 10 l 2,38,39
 -8 10 -8 10 14.5 23.5 c 128,-1,40
 37 37 37 37 52 64 c 1,41,-1
 285 575 l 1,42,43
 338 687 338 687 342 724 c 1,44,-1
 351 724 l 1,45,-1
 668 65 l 1,46,47
 700 10 700 10 752 10 c 2,16,-1
198 216 m 1,48,-1
 369 216 l 1,49,-1
 285 416 l 1,50,-1
 198 216 l 1,48,-1
EndSplineSet
EndChar

StartChar: ae
Encoding: 230 230 166
Width: 1014
GlyphClass: 2
Flags: W
LayerCount: 2
Fore
SplineSet
416 10 m 2,0,1
 448 10 448 10 461 40 c 0,2,3
 465 49 465 49 466 58 c 1,4,-1
 466 317 l 1,5,-1
 309 317 l 1,6,-1
 158 73 l 2,7,8
 149 59 149 59 149 47.5 c 128,-1,9
 149 36 149 36 161 23 c 128,-1,10
 173 10 173 10 196 10 c 2,11,-1
 205 10 l 1,12,-1
 205 0 l 1,13,-1
 -33 0 l 1,14,-1
 -33 10 l 1,15,-1
 -24 10 l 2,16,17
 19 10 19 10 62 71 c 2,18,-1
 453 641 l 2,19,20
 461 654 461 654 461 662 c 0,21,22
 461 690 461 690 432 690 c 2,23,-1
 427 690 l 1,24,-1
 427 700 l 1,25,-1
 821 700 l 2,26,27
 852 700 852 700 889 706 c 128,-1,28
 926 712 926 712 940 718 c 1,29,-1
 940 512 l 1,30,-1
 930 512 l 1,31,-1
 930 520 l 1,32,33
 931 600 931 600 873 632 c 0,34,35
 845 648 845 648 805 649 c 1,36,-1
 671 649 l 1,37,-1
 671 367 l 1,38,-1
 773 367 l 1,39,40
 819 369 819 369 848.5 399.5 c 128,-1,41
 878 430 878 430 878 476 c 2,42,-1
 878 481 l 1,43,-1
 888 481 l 1,44,-1
 888 203 l 1,45,-1
 878 203 l 1,46,-1
 878 208 l 2,47,48
 878 254 878 254 849 284.5 c 128,-1,49
 820 315 820 315 775 317 c 1,50,-1
 671 317 l 1,51,-1
 671 51 l 1,52,-1
 784 51 l 2,53,54
 857 51 857 51 912.5 99 c 128,-1,55
 968 147 968 147 991 232 c 1,56,-1
 1001 232 l 1,57,-1
 963 0 l 1,58,-1
 406 0 l 1,59,-1
 407 10 l 1,60,-1
 416 10 l 2,0,1
466 367 m 1,61,-1
 466 569 l 1,62,-1
 340 367 l 1,63,-1
 466 367 l 1,61,-1
EndSplineSet
EndChar

StartChar: ccedilla
Encoding: 231 231 167
Width: 793
GlyphClass: 2
Flags: W
LayerCount: 2
Fore
SplineSet
472 -14 m 2,0,-1
 460 -14 l 1,1,-1
 423 -57 l 1,2,3
 437 -52 437 -52 447 -52 c 128,-1,4
 457 -52 457 -52 467 -52 c 128,-1,5
 477 -52 477 -52 497.5 -57.5 c 128,-1,6
 518 -63 518 -63 530 -78 c 128,-1,7
 542 -93 542 -93 542 -105 c 0,8,9
 542 -151 542 -151 510 -178 c 0,10,11
 468 -213 468 -213 410 -213 c 0,12,13
 382 -213 382 -213 353 -205 c 1,14,-1
 354 -195 l 1,15,16
 390 -195 390 -195 424 -174.5 c 128,-1,17
 458 -154 458 -154 458 -114 c 0,18,19
 458 -98 458 -98 441 -86 c 0,20,21
 411 -65 411 -65 360 -81 c 1,22,-1
 355 -71 l 1,23,-1
 402 -11 l 1,24,25
 229 6 229 6 132 100 c 128,-1,26
 35 194 35 194 35 351 c 0,27,28
 35 464 35 464 87 546 c 128,-1,29
 139 628 139 628 237.5 671 c 128,-1,30
 336 714 336 714 479 714 c 128,-1,31
 622 714 622 714 730 668 c 1,32,-1
 720 477 l 1,33,-1
 711 477 l 1,34,35
 682 578 682 578 627 621 c 128,-1,36
 572 664 572 664 490 664 c 0,37,38
 379 664 379 664 317 582 c 128,-1,39
 255 500 255 500 255 353.5 c 128,-1,40
 255 207 255 207 312.5 123 c 128,-1,41
 370 39 370 39 472 36 c 1,42,43
 590 36 590 36 643 92 c 0,44,45
 693 144 693 144 721 292 c 1,46,-1
 729 292 l 1,47,-1
 753 110 l 1,48,49
 679 -14 679 -14 472 -14 c 2,0,-1
EndSplineSet
EndChar

StartChar: egrave
Encoding: 232 232 168
Width: 666
GlyphClass: 2
Flags: W
LayerCount: 2
Fore
SplineSet
366 771 m 1,0,-1
 359 764 l 1,1,2
 306 770 306 770 241 797 c 128,-1,3
 176 824 176 824 126 857 c 1,4,5
 147 930 147 930 211 957 c 1,6,7
 254 920 254 920 300.5 867.5 c 128,-1,8
 347 815 347 815 366 771 c 1,0,-1
43 10 m 2,9,10
 69 10 69 10 87.5 28.5 c 128,-1,11
 106 47 106 47 107 73 c 1,12,-1
 107 627 l 1,13,14
 106 664 106 664 75 682 c 0,15,16
 60 690 60 690 43 690 c 2,17,-1
 30 690 l 1,18,-1
 30 700 l 1,19,-1
 473 700 l 2,20,21
 504 700 504 700 540.5 706 c 128,-1,22
 577 712 577 712 592 718 c 1,23,-1
 592 512 l 1,24,-1
 582 512 l 1,25,-1
 582 520 l 2,26,27
 582 600 582 600 524 632 c 0,28,29
 496 648 496 648 457 649 c 1,30,-1
 312 649 l 1,31,-1
 312 370 l 1,32,-1
 421 370 l 1,33,34
 469 371 469 371 499 401.5 c 128,-1,35
 529 432 529 432 529 480 c 2,36,-1
 529 484 l 1,37,-1
 539 484 l 1,38,-1
 539 206 l 1,39,-1
 529 206 l 1,40,-1
 529 211 l 2,41,42
 529 258 529 258 499 288.5 c 128,-1,43
 469 319 469 319 422 320 c 1,44,-1
 312 320 l 1,45,-1
 312 51 l 1,46,-1
 435 51 l 2,47,48
 508 51 508 51 564 99 c 128,-1,49
 620 147 620 147 643 232 c 1,50,-1
 653 232 l 1,51,-1
 615 0 l 1,52,-1
 30 0 l 1,53,-1
 30 10 l 1,54,-1
 43 10 l 2,9,10
EndSplineSet
EndChar

StartChar: eacute
Encoding: 233 233 169
Width: 666
GlyphClass: 2
Flags: W
LayerCount: 2
Fore
SplineSet
322 761 m 1,0,-1
 315 768 l 1,1,2
 334 812 334 812 380.5 864.5 c 128,-1,3
 427 917 427 917 470 954 c 1,4,5
 534 927 534 927 555 854 c 1,6,7
 505 821 505 821 440 794 c 128,-1,8
 375 767 375 767 322 761 c 1,0,-1
43 10 m 2,9,10
 69 10 69 10 87.5 28.5 c 128,-1,11
 106 47 106 47 107 73 c 1,12,-1
 107 627 l 1,13,14
 106 653 106 653 87.5 671.5 c 128,-1,15
 69 690 69 690 43 690 c 2,16,-1
 30 690 l 1,17,-1
 30 700 l 1,18,-1
 473 700 l 2,19,20
 516 700 516 700 549.5 707 c 128,-1,21
 583 714 583 714 592 718 c 1,22,-1
 592 512 l 1,23,-1
 582 512 l 1,24,-1
 582 520 l 2,25,26
 582 600 582 600 524 632 c 0,27,28
 496 648 496 648 457 649 c 1,29,-1
 312 649 l 1,30,-1
 312 370 l 1,31,-1
 421 370 l 1,32,33
 469 371 469 371 499 401.5 c 128,-1,34
 529 432 529 432 529 480 c 2,35,-1
 529 484 l 1,36,-1
 539 484 l 1,37,-1
 539 206 l 1,38,-1
 529 206 l 1,39,-1
 529 211 l 2,40,41
 529 258 529 258 499 288.5 c 128,-1,42
 469 319 469 319 422 320 c 1,43,-1
 312 320 l 1,44,-1
 312 51 l 1,45,-1
 435 51 l 2,46,47
 508 51 508 51 564 99 c 128,-1,48
 620 147 620 147 643 232 c 1,49,-1
 653 232 l 1,50,-1
 615 0 l 1,51,-1
 30 0 l 1,52,-1
 30 10 l 1,53,-1
 43 10 l 2,9,10
EndSplineSet
EndChar

StartChar: ecircumflex
Encoding: 234 234 170
Width: 666
GlyphClass: 2
Flags: W
LayerCount: 2
Fore
SplineSet
332 932 m 1,0,-1
 344 932 l 1,1,-1
 522 756 l 1,2,-1
 515 748 l 1,3,-1
 337 813 l 1,4,-1
 170 748 l 1,5,-1
 163 756 l 1,6,-1
 332 932 l 1,0,-1
43 10 m 2,7,8
 69 10 69 10 87.5 28.5 c 128,-1,9
 106 47 106 47 107 73 c 1,10,-1
 107 627 l 1,11,12
 106 653 106 653 87.5 671.5 c 128,-1,13
 69 690 69 690 43 690 c 2,14,-1
 30 690 l 1,15,-1
 30 700 l 1,16,-1
 473 700 l 2,17,18
 504 700 504 700 540.5 706 c 128,-1,19
 577 712 577 712 592 718 c 1,20,-1
 592 512 l 1,21,-1
 582 512 l 1,22,-1
 582 520 l 2,23,24
 582 600 582 600 524 632 c 0,25,26
 496 648 496 648 457 649 c 1,27,-1
 312 649 l 1,28,-1
 312 370 l 1,29,-1
 421 370 l 1,30,31
 469 371 469 371 499 401.5 c 128,-1,32
 529 432 529 432 529 480 c 2,33,-1
 529 484 l 1,34,-1
 539 484 l 1,35,-1
 539 206 l 1,36,-1
 529 206 l 1,37,-1
 529 211 l 2,38,39
 529 258 529 258 499 288.5 c 128,-1,40
 469 319 469 319 422 320 c 1,41,-1
 312 320 l 1,42,-1
 312 51 l 1,43,-1
 435 51 l 2,44,45
 508 51 508 51 564 99 c 128,-1,46
 620 147 620 147 643 232 c 1,47,-1
 653 232 l 1,48,-1
 615 0 l 1,49,-1
 30 0 l 1,50,-1
 30 10 l 1,51,-1
 43 10 l 2,7,8
EndSplineSet
EndChar

StartChar: edieresis
Encoding: 235 235 171
Width: 666
GlyphClass: 2
Flags: W
LayerCount: 2
Fore
SplineSet
204.5 755 m 128,-1,1
 174 755 174 755 152.5 777 c 128,-1,2
 131 799 131 799 131 829.5 c 128,-1,3
 131 860 131 860 152.5 881.5 c 128,-1,4
 174 903 174 903 204.5 903 c 128,-1,5
 235 903 235 903 256.5 881.5 c 128,-1,6
 278 860 278 860 278 829.5 c 128,-1,7
 278 799 278 799 256.5 777 c 128,-1,0
 235 755 235 755 204.5 755 c 128,-1,1
466.5 755 m 128,-1,9
 436 755 436 755 414.5 777 c 128,-1,10
 393 799 393 799 393 829.5 c 128,-1,11
 393 860 393 860 414.5 881.5 c 128,-1,12
 436 903 436 903 466.5 903 c 128,-1,13
 497 903 497 903 518.5 881.5 c 128,-1,14
 540 860 540 860 540 829.5 c 128,-1,15
 540 799 540 799 518.5 777 c 128,-1,8
 497 755 497 755 466.5 755 c 128,-1,9
43 10 m 2,16,17
 69 10 69 10 87.5 28.5 c 128,-1,18
 106 47 106 47 107 73 c 1,19,-1
 107 627 l 1,20,21
 106 653 106 653 87.5 671.5 c 128,-1,22
 69 690 69 690 43 690 c 2,23,-1
 30 690 l 1,24,-1
 30 700 l 1,25,-1
 473 700 l 2,26,27
 504 700 504 700 540.5 706 c 128,-1,28
 577 712 577 712 592 718 c 1,29,-1
 592 512 l 1,30,-1
 582 512 l 1,31,-1
 582 520 l 2,32,33
 582 600 582 600 524 632 c 0,34,35
 496 648 496 648 457 649 c 1,36,-1
 312 649 l 1,37,-1
 312 370 l 1,38,-1
 421 370 l 1,39,40
 469 371 469 371 499 401.5 c 128,-1,41
 529 432 529 432 529 480 c 2,42,-1
 529 484 l 1,43,-1
 539 484 l 1,44,-1
 539 206 l 1,45,-1
 529 206 l 1,46,-1
 529 211 l 2,47,48
 529 258 529 258 499 288.5 c 128,-1,49
 469 319 469 319 422 320 c 1,50,-1
 312 320 l 1,51,-1
 312 51 l 1,52,-1
 435 51 l 2,53,54
 508 51 508 51 564 99 c 128,-1,55
 620 147 620 147 643 232 c 1,56,-1
 653 232 l 1,57,-1
 615 0 l 1,58,-1
 30 0 l 1,59,-1
 30 10 l 1,60,-1
 43 10 l 2,16,17
EndSplineSet
EndChar

StartChar: igrave
Encoding: 236 236 172
Width: 418
GlyphClass: 2
Flags: W
LayerCount: 2
Fore
SplineSet
235 771 m 1,0,-1
 228 764 l 1,1,2
 175 770 175 770 110 797 c 128,-1,3
 45 824 45 824 -5 857 c 1,4,5
 17 930 17 930 80 957 c 1,6,7
 124 920 124 920 170 867.5 c 128,-1,8
 216 815 216 815 235 771 c 1,0,-1
43 10 m 2,9,10
 69 10 69 10 87.5 28.5 c 128,-1,11
 106 47 106 47 107 73 c 1,12,-1
 107 628 l 1,13,14
 106 654 106 654 87.5 672 c 128,-1,15
 69 690 69 690 43 690 c 2,16,-1
 30 690 l 1,17,-1
 30 700 l 1,18,-1
 389 700 l 1,19,-1
 389 690 l 1,20,-1
 376 690 l 2,21,22
 350 690 350 690 331.5 672 c 128,-1,23
 313 654 313 654 312 628 c 1,24,-1
 312 73 l 1,25,26
 313 36 313 36 344 18 c 0,27,28
 359 10 359 10 376 10 c 2,29,-1
 389 10 l 1,30,-1
 389 0 l 1,31,-1
 30 0 l 1,32,-1
 30 10 l 1,33,-1
 43 10 l 2,9,10
EndSplineSet
EndChar

StartChar: iacute
Encoding: 237 237 173
Width: 418
GlyphClass: 2
Flags: W
LayerCount: 2
Fore
SplineSet
191 761 m 1,0,-1
 184 768 l 1,1,2
 213 836 213 836 309 926 c 0,3,4
 325 941 325 941 339 954 c 1,5,6
 403 927 403 927 424 854 c 1,7,8
 374 821 374 821 309 794 c 128,-1,9
 244 767 244 767 191 761 c 1,0,-1
43 10 m 2,10,11
 69 10 69 10 87.5 28.5 c 128,-1,12
 106 47 106 47 107 73 c 1,13,-1
 107 628 l 1,14,15
 106 654 106 654 87.5 672 c 128,-1,16
 69 690 69 690 43 690 c 2,17,-1
 30 690 l 1,18,-1
 30 700 l 1,19,-1
 389 700 l 1,20,-1
 389 690 l 1,21,-1
 376 690 l 2,22,23
 350 690 350 690 331.5 672 c 128,-1,24
 313 654 313 654 312 628 c 1,25,-1
 312 73 l 2,26,27
 312 47 312 47 331 28.5 c 128,-1,28
 350 10 350 10 376 10 c 2,29,-1
 389 10 l 1,30,-1
 389 0 l 1,31,-1
 30 0 l 1,32,-1
 30 10 l 1,33,-1
 43 10 l 2,10,11
EndSplineSet
EndChar

StartChar: icircumflex
Encoding: 238 238 174
Width: 418
GlyphClass: 2
Flags: W
LayerCount: 2
Fore
SplineSet
201 932 m 1,0,-1
 213 932 l 1,1,-1
 391 756 l 1,2,-1
 384 748 l 1,3,-1
 206 813 l 1,4,-1
 39 748 l 1,5,-1
 32 756 l 1,6,-1
 201 932 l 1,0,-1
43 10 m 2,7,8
 69 10 69 10 87.5 28.5 c 128,-1,9
 106 47 106 47 107 73 c 1,10,-1
 107 628 l 1,11,12
 106 654 106 654 87.5 672 c 128,-1,13
 69 690 69 690 43 690 c 2,14,-1
 30 690 l 1,15,-1
 30 700 l 1,16,-1
 389 700 l 1,17,-1
 389 690 l 1,18,-1
 376 690 l 2,19,20
 350 690 350 690 331.5 672 c 128,-1,21
 313 654 313 654 312 628 c 1,22,-1
 312 73 l 2,23,24
 312 47 312 47 331 28.5 c 128,-1,25
 350 10 350 10 376 10 c 2,26,-1
 389 10 l 1,27,-1
 389 0 l 1,28,-1
 30 0 l 1,29,-1
 30 10 l 1,30,-1
 43 10 l 2,7,8
EndSplineSet
EndChar

StartChar: idieresis
Encoding: 239 239 175
Width: 418
GlyphClass: 2
Flags: W
LayerCount: 2
Fore
SplineSet
73.5 755 m 128,-1,1
 43 755 43 755 21.5 777 c 128,-1,2
 0 799 0 799 0 829.5 c 128,-1,3
 0 860 0 860 21.5 881.5 c 128,-1,4
 43 903 43 903 73.5 903 c 128,-1,5
 104 903 104 903 125.5 881.5 c 128,-1,6
 147 860 147 860 147 829.5 c 128,-1,7
 147 799 147 799 125.5 777 c 128,-1,0
 104 755 104 755 73.5 755 c 128,-1,1
336.5 755 m 128,-1,9
 306 755 306 755 284 777 c 128,-1,10
 262 799 262 799 262 829.5 c 128,-1,11
 262 860 262 860 284 881.5 c 128,-1,12
 306 903 306 903 336.5 903 c 128,-1,13
 367 903 367 903 388.5 881.5 c 128,-1,14
 410 860 410 860 410 829.5 c 128,-1,15
 410 799 410 799 388.5 777 c 128,-1,8
 367 755 367 755 336.5 755 c 128,-1,9
43 10 m 2,16,17
 69 10 69 10 87.5 28.5 c 128,-1,18
 106 47 106 47 107 73 c 1,19,-1
 107 628 l 1,20,21
 106 654 106 654 87.5 672 c 128,-1,22
 69 690 69 690 43 690 c 2,23,-1
 30 690 l 1,24,-1
 30 700 l 1,25,-1
 389 700 l 1,26,-1
 389 690 l 1,27,-1
 376 690 l 2,28,29
 350 690 350 690 331.5 672 c 128,-1,30
 313 654 313 654 312 628 c 1,31,-1
 312 73 l 2,32,33
 312 47 312 47 331 28.5 c 128,-1,34
 350 10 350 10 376 10 c 2,35,-1
 389 10 l 1,36,-1
 389 0 l 1,37,-1
 30 0 l 1,38,-1
 30 10 l 1,39,-1
 43 10 l 2,16,17
EndSplineSet
EndChar

StartChar: eth
Encoding: 240 240 176
Width: 842
GlyphClass: 2
Flags: W
LayerCount: 2
Fore
SplineSet
702.5 607.5 m 128,-1,1
 808 515 808 515 808 350 c 128,-1,2
 808 185 808 185 702.5 92.5 c 128,-1,3
 597 0 597 0 409 0 c 2,4,-1
 30 0 l 1,5,-1
 30 10 l 1,6,-1
 43 10 l 2,7,8
 69 10 69 10 87.5 28.5 c 128,-1,9
 106 47 106 47 107 73 c 1,10,-1
 107 325 l 1,11,-1
 30 325 l 1,12,-1
 30 375 l 1,13,-1
 107 375 l 1,14,-1
 107 633 l 2,15,16
 107 657 107 657 87.5 673.5 c 128,-1,17
 68 690 68 690 43 690 c 2,18,-1
 31 690 l 1,19,-1
 30 700 l 1,20,-1
 409 700 l 2,21,0
 597 700 597 700 702.5 607.5 c 128,-1,1
312 325 m 1,22,-1
 312 50 l 1,23,-1
 389 50 l 2,24,25
 483 50 483 50 538 129.5 c 128,-1,26
 593 209 593 209 593 350 c 0,27,28
 593 443 593 443 568 511 c 128,-1,29
 543 579 543 579 497 614.5 c 128,-1,30
 451 650 451 650 389 650 c 2,31,-1
 312 650 l 1,32,-1
 312 375 l 1,33,-1
 420 375 l 1,34,-1
 420 325 l 1,35,-1
 312 325 l 1,22,-1
EndSplineSet
EndChar

StartChar: ntilde
Encoding: 241 241 177
Width: 881
GlyphClass: 2
Flags: W
LayerCount: 2
Fore
SplineSet
607 919 m 1,0,-1
 619 919 l 1,1,2
 625 902 625 902 625 882.5 c 128,-1,3
 625 863 625 863 617 844 c 0,4,5
 595 794 595 794 556 776 c 0,6,7
 532 764 532 764 500.5 764 c 128,-1,8
 469 764 469 764 420 789 c 0,9,10
 370 814 370 814 352.5 816.5 c 128,-1,11
 335 819 335 819 320 819 c 128,-1,12
 305 819 305 819 281 803 c 128,-1,13
 257 787 257 787 249 767 c 1,14,-1
 237 767 l 1,15,16
 233 781 233 781 233 796 c 0,17,18
 233 856 233 856 278 899 c 0,19,20
 309 929 309 929 346.5 929 c 128,-1,21
 384 929 384 929 438 902 c 128,-1,22
 492 875 492 875 537 875 c 0,23,24
 552 875 552 875 576.5 889.5 c 128,-1,25
 601 904 601 904 607 919 c 1,0,-1
843 690 m 2,26,27
 818 690 818 690 800 672.5 c 128,-1,28
 782 655 782 655 781 630 c 1,29,-1
 781 114 l 2,30,31
 781 40 781 40 791 0 c 1,32,-1
 794 -14 l 1,33,-1
 785 -14 l 1,34,-1
 306 412 l 1,35,-1
 306 71 l 2,36,37
 306 45 306 45 324 27.5 c 128,-1,38
 342 10 342 10 367 10 c 2,39,-1
 386 10 l 1,40,-1
 386 0 l 1,41,-1
 20 0 l 1,42,-1
 20 10 l 1,43,-1
 39 10 l 2,44,45
 64 10 64 10 82 27.5 c 128,-1,46
 100 45 100 45 100 71 c 2,47,-1
 100 590 l 2,48,49
 100 660 100 660 90 701 c 1,50,-1
 87 715 l 1,51,-1
 97 715 l 1,52,-1
 576 289 l 1,53,-1
 576 629 l 1,54,55
 575 655 575 655 557 672.5 c 128,-1,56
 539 690 539 690 514 690 c 2,57,-1
 495 690 l 1,58,-1
 495 700 l 1,59,-1
 861 700 l 1,60,-1
 861 690 l 1,61,-1
 843 690 l 2,26,27
EndSplineSet
EndChar

StartChar: ograve
Encoding: 242 242 178
Width: 900
GlyphClass: 2
Flags: W
LayerCount: 2
Fore
SplineSet
477 785 m 1,0,-1
 470 778 l 1,1,2
 398 787 398 787 309 830 c 0,3,4
 270 849 270 849 237 871 c 1,5,6
 259 944 259 944 323 971 c 1,7,8
 384 918 384 918 424 866.5 c 128,-1,9
 464 815 464 815 477 785 c 1,0,-1
450 714 m 0,10,11
 579 714 579 714 672.5 671 c 128,-1,12
 766 628 766 628 816 545.5 c 128,-1,13
 866 463 866 463 866 350 c 0,14,15
 866 179 866 179 755.5 82.5 c 128,-1,16
 645 -14 645 -14 450.5 -14 c 128,-1,17
 256 -14 256 -14 145.5 82.5 c 128,-1,18
 35 179 35 179 35 350 c 128,-1,19
 35 521 35 521 145.5 617.5 c 128,-1,20
 256 714 256 714 450 714 c 0,10,11
450.5 36 m 128,-1,22
 542 36 542 36 593.5 119 c 128,-1,23
 645 202 645 202 645 350 c 128,-1,24
 645 498 645 498 593.5 581 c 128,-1,25
 542 664 542 664 450.5 664 c 128,-1,26
 359 664 359 664 307.5 581 c 128,-1,27
 256 498 256 498 256 350 c 128,-1,28
 256 202 256 202 307.5 119 c 128,-1,21
 359 36 359 36 450.5 36 c 128,-1,22
EndSplineSet
EndChar

StartChar: oacute
Encoding: 243 243 179
Width: 900
GlyphClass: 2
Flags: W
LayerCount: 2
Fore
SplineSet
433 775 m 1,0,-1
 426 782 l 1,1,2
 445 826 445 826 491.5 878.5 c 128,-1,3
 538 931 538 931 581 968 c 1,4,5
 645 941 645 941 666 868 c 1,6,7
 616 835 616 835 551 808 c 128,-1,8
 486 781 486 781 433 775 c 1,0,-1
450 714 m 0,9,10
 579 714 579 714 672.5 671 c 128,-1,11
 766 628 766 628 816 545.5 c 128,-1,12
 866 463 866 463 866 350 c 0,13,14
 866 179 866 179 755.5 82.5 c 128,-1,15
 645 -14 645 -14 450.5 -14 c 128,-1,16
 256 -14 256 -14 145.5 82.5 c 128,-1,17
 35 179 35 179 35 350 c 128,-1,18
 35 521 35 521 145.5 617.5 c 128,-1,19
 256 714 256 714 450 714 c 0,9,10
450.5 36 m 128,-1,21
 542 36 542 36 593.5 119 c 128,-1,22
 645 202 645 202 645 350 c 128,-1,23
 645 498 645 498 593.5 581 c 128,-1,24
 542 664 542 664 450.5 664 c 128,-1,25
 359 664 359 664 307.5 581 c 128,-1,26
 256 498 256 498 256 350 c 128,-1,27
 256 202 256 202 307.5 119 c 128,-1,20
 359 36 359 36 450.5 36 c 128,-1,21
EndSplineSet
EndChar

StartChar: ocircumflex
Encoding: 244 244 180
Width: 900
GlyphClass: 2
Flags: W
LayerCount: 2
Fore
SplineSet
443 946 m 1,0,-1
 455 946 l 1,1,-1
 634 770 l 1,2,-1
 626 762 l 1,3,-1
 449 827 l 1,4,-1
 281 762 l 1,5,-1
 274 770 l 1,6,-1
 443 946 l 1,0,-1
450 714 m 0,7,8
 579 714 579 714 672.5 671 c 128,-1,9
 766 628 766 628 816 545.5 c 128,-1,10
 866 463 866 463 866 350 c 0,11,12
 866 179 866 179 755 82.5 c 128,-1,13
 644 -14 644 -14 450 -14 c 128,-1,14
 256 -14 256 -14 145.5 82.5 c 128,-1,15
 35 179 35 179 35 350 c 128,-1,16
 35 521 35 521 145.5 617.5 c 128,-1,17
 256 714 256 714 450 714 c 0,7,8
450.5 36 m 128,-1,19
 542 36 542 36 593.5 119 c 128,-1,20
 645 202 645 202 645 350 c 128,-1,21
 645 498 645 498 593.5 581 c 128,-1,22
 542 664 542 664 450.5 664 c 128,-1,23
 359 664 359 664 307.5 581 c 128,-1,24
 256 498 256 498 256 350 c 128,-1,25
 256 202 256 202 307.5 119 c 128,-1,18
 359 36 359 36 450.5 36 c 128,-1,19
EndSplineSet
EndChar

StartChar: otilde
Encoding: 245 245 181
Width: 900
GlyphClass: 2
Flags: W
LayerCount: 2
Fore
SplineSet
645 933 m 1,0,-1
 658 933 l 1,1,2
 664 916 664 916 664 896.5 c 128,-1,3
 664 877 664 877 655 858 c 0,4,5
 634 808 634 808 594 790 c 1,6,7
 570 778 570 778 542.5 778 c 128,-1,8
 515 778 515 778 488 789 c 0,9,10
 462 800 462 800 434 814 c 128,-1,11
 406 828 406 828 389.5 830.5 c 128,-1,12
 373 833 373 833 358.5 833 c 128,-1,13
 344 833 344 833 320 817 c 128,-1,14
 296 801 296 801 288 781 c 1,15,-1
 275 781 l 1,16,17
 272 795 272 795 272 810 c 0,18,19
 272 870 272 870 316 913 c 0,20,21
 347 943 347 943 384.5 943 c 128,-1,22
 422 943 422 943 476.5 916 c 128,-1,23
 531 889 531 889 576 889 c 0,24,25
 590 889 590 889 614.5 903.5 c 128,-1,26
 639 918 639 918 645 933 c 1,0,-1
450 714 m 128,-1,28
 644 714 644 714 755 617.5 c 128,-1,29
 866 521 866 521 866 350 c 128,-1,30
 866 179 866 179 755 82.5 c 128,-1,31
 644 -14 644 -14 450 -14 c 128,-1,32
 256 -14 256 -14 145.5 82.5 c 128,-1,33
 35 179 35 179 35 350 c 128,-1,34
 35 521 35 521 145.5 617.5 c 128,-1,27
 256 714 256 714 450 714 c 128,-1,28
450.5 36 m 128,-1,36
 542 36 542 36 593.5 119 c 128,-1,37
 645 202 645 202 645 350 c 128,-1,38
 645 498 645 498 593.5 581 c 128,-1,39
 542 664 542 664 450.5 664 c 128,-1,40
 359 664 359 664 307.5 581 c 128,-1,41
 256 498 256 498 256 350 c 128,-1,42
 256 202 256 202 307.5 119 c 128,-1,35
 359 36 359 36 450.5 36 c 128,-1,36
EndSplineSet
EndChar

StartChar: odieresis
Encoding: 246 246 182
Width: 900
GlyphClass: 2
Flags: W
LayerCount: 2
Fore
SplineSet
315.5 769 m 128,-1,1
 285 769 285 769 263.5 791 c 128,-1,2
 242 813 242 813 242 843.5 c 128,-1,3
 242 874 242 874 263.5 895.5 c 128,-1,4
 285 917 285 917 315.5 917 c 128,-1,5
 346 917 346 917 367.5 895.5 c 128,-1,6
 389 874 389 874 389 843.5 c 128,-1,7
 389 813 389 813 367.5 791 c 128,-1,0
 346 769 346 769 315.5 769 c 128,-1,1
578.5 769 m 128,-1,9
 548 769 548 769 526 791 c 128,-1,10
 504 813 504 813 504 843.5 c 128,-1,11
 504 874 504 874 526 895.5 c 128,-1,12
 548 917 548 917 578.5 917 c 128,-1,13
 609 917 609 917 630.5 895.5 c 128,-1,14
 652 874 652 874 652 843.5 c 128,-1,15
 652 813 652 813 630.5 791 c 128,-1,8
 609 769 609 769 578.5 769 c 128,-1,9
450 714 m 0,16,17
 579 714 579 714 672.5 671 c 128,-1,18
 766 628 766 628 816 545.5 c 128,-1,19
 866 463 866 463 866 350 c 0,20,21
 866 179 866 179 755 82.5 c 128,-1,22
 644 -14 644 -14 450 -14 c 128,-1,23
 256 -14 256 -14 145.5 82.5 c 128,-1,24
 35 179 35 179 35 350 c 128,-1,25
 35 521 35 521 145.5 617.5 c 128,-1,26
 256 714 256 714 450 714 c 0,16,17
450.5 36 m 128,-1,28
 542 36 542 36 593.5 119 c 128,-1,29
 645 202 645 202 645 350 c 128,-1,30
 645 498 645 498 593.5 581 c 128,-1,31
 542 664 542 664 450.5 664 c 128,-1,32
 359 664 359 664 307.5 581 c 128,-1,33
 256 498 256 498 256 350 c 128,-1,34
 256 202 256 202 307.5 119 c 128,-1,27
 359 36 359 36 450.5 36 c 128,-1,28
EndSplineSet
EndChar

StartChar: divide
Encoding: 247 247 183
Width: 481
GlyphClass: 2
Flags: W
LayerCount: 2
Fore
SplineSet
240.5 416 m 128,-1,1
 219 416 219 416 203.5 431.5 c 128,-1,2
 188 447 188 447 188 468.5 c 128,-1,3
 188 490 188 490 203.5 505 c 128,-1,4
 219 520 219 520 240.5 520 c 128,-1,5
 262 520 262 520 277.5 505 c 128,-1,6
 293 490 293 490 293 468.5 c 128,-1,7
 293 447 293 447 277.5 431.5 c 128,-1,0
 262 416 262 416 240.5 416 c 128,-1,1
40 277 m 1,8,-1
 40 342 l 1,9,-1
 442 342 l 1,10,-1
 442 277 l 1,11,-1
 40 277 l 1,8,-1
240.5 100 m 128,-1,13
 219 100 219 100 203.5 115.5 c 128,-1,14
 188 131 188 131 188 152.5 c 128,-1,15
 188 174 188 174 203.5 189 c 128,-1,16
 219 204 219 204 240.5 204 c 128,-1,17
 262 204 262 204 277.5 189 c 128,-1,18
 293 174 293 174 293 152.5 c 128,-1,19
 293 131 293 131 277.5 115.5 c 128,-1,12
 262 100 262 100 240.5 100 c 128,-1,13
EndSplineSet
EndChar

StartChar: oslash
Encoding: 248 248 184
Width: 900
GlyphClass: 2
Flags: W
LayerCount: 2
Fore
SplineSet
866 350 m 0,0,1
 866 179 866 179 755 82.5 c 128,-1,2
 644 -14 644 -14 450 -14 c 0,3,4
 307 -14 307 -14 207 40 c 1,5,-1
 153 -23 l 1,6,-1
 109 13 l 1,7,-1
 159 71 l 1,8,9
 35 168 35 168 35 344.5 c 128,-1,10
 35 521 35 521 145.5 617.5 c 128,-1,11
 256 714 256 714 450 714 c 0,12,13
 580 714 580 714 674 670 c 1,14,-1
 722 726 l 1,15,-1
 766 692 l 1,16,-1
 723 642 l 1,17,18
 866 546 866 546 866 350 c 0,0,1
595 579 m 1,19,20
 544 664 544 664 451.5 664 c 128,-1,21
 359 664 359 664 307.5 581 c 128,-1,22
 256 498 256 498 256 350 c 0,23,24
 256 267 256 267 272 203 c 1,25,-1
 595 579 l 1,19,20
450 36 m 0,26,27
 542 36 542 36 593.5 119 c 128,-1,28
 645 202 645 202 645 350 c 0,29,30
 645 451 645 451 621 523 c 1,31,-1
 294 142 l 1,32,33
 346 36 346 36 450 36 c 0,26,27
EndSplineSet
EndChar

StartChar: ugrave
Encoding: 249 249 185
Width: 845
GlyphClass: 2
Flags: W
LayerCount: 2
Fore
SplineSet
510 771 m 1,0,-1
 503 764 l 1,1,2
 450 770 450 770 385 797 c 128,-1,3
 320 824 320 824 270 857 c 1,4,5
 291 930 291 930 355 957 c 1,6,7
 398 920 398 920 444.5 867.5 c 128,-1,8
 491 815 491 815 510 771 c 1,0,-1
825 690 m 1,9,-1
 809 690 l 2,10,11
 788 690 788 690 772.5 676.5 c 128,-1,12
 757 663 757 663 756 643 c 1,13,-1
 756 257 l 2,14,15
 756 130 756 130 677.5 58 c 128,-1,16
 599 -14 599 -14 457 -14 c 0,17,18
 277 -14 277 -14 188 56 c 128,-1,19
 99 126 99 126 99 256 c 2,20,-1
 99 640 l 2,21,22
 99 670 99 670 73 684 c 0,23,24
 61 690 61 690 46 690 c 2,25,-1
 30 690 l 1,26,-1
 30 700 l 1,27,-1
 373 700 l 1,28,-1
 373 690 l 1,29,-1
 357 690 l 2,30,31
 335 690 335 690 320 676.5 c 128,-1,32
 305 663 305 663 304 642 c 1,33,-1
 304 260 l 2,34,35
 304 155 304 155 352 96 c 128,-1,36
 400 37 400 37 486 37 c 128,-1,37
 572 37 572 37 620.5 92.5 c 128,-1,38
 669 148 669 148 669 247 c 2,39,-1
 669 642 l 1,40,41
 668 663 668 663 653 676.5 c 128,-1,42
 638 690 638 690 616 690 c 2,43,-1
 600 690 l 1,44,-1
 600 700 l 1,45,-1
 825 700 l 1,46,-1
 825 690 l 1,9,-1
EndSplineSet
EndChar

StartChar: uacute
Encoding: 250 250 186
Width: 845
GlyphClass: 2
Flags: W
LayerCount: 2
Fore
SplineSet
466 761 m 1,0,-1
 459 768 l 1,1,2
 478 812 478 812 524.5 864.5 c 128,-1,3
 571 917 571 917 614 954 c 1,4,5
 678 927 678 927 699 854 c 1,6,7
 649 821 649 821 584 794 c 128,-1,8
 519 767 519 767 466 761 c 1,0,-1
825 690 m 1,9,-1
 809 690 l 2,10,11
 788 690 788 690 772.5 676.5 c 128,-1,12
 757 663 757 663 756 643 c 1,13,-1
 756 257 l 2,14,15
 756 130 756 130 677.5 58 c 128,-1,16
 599 -14 599 -14 457 -14 c 0,17,18
 277 -14 277 -14 188 56 c 128,-1,19
 99 126 99 126 99 256 c 2,20,-1
 99 640 l 2,21,22
 99 670 99 670 73 684 c 0,23,24
 61 690 61 690 46 690 c 2,25,-1
 30 690 l 1,26,-1
 30 700 l 1,27,-1
 373 700 l 1,28,-1
 373 690 l 1,29,-1
 357 690 l 2,30,31
 335 690 335 690 320 676.5 c 128,-1,32
 305 663 305 663 304 642 c 1,33,-1
 304 260 l 2,34,35
 304 155 304 155 352 96 c 128,-1,36
 400 37 400 37 486 37 c 128,-1,37
 572 37 572 37 620.5 92.5 c 128,-1,38
 669 148 669 148 669 247 c 2,39,-1
 669 642 l 1,40,41
 668 675 668 675 637 686 c 0,42,43
 627 690 627 690 616 690 c 2,44,-1
 600 690 l 1,45,-1
 600 700 l 1,46,-1
 825 700 l 1,47,-1
 825 690 l 1,9,-1
EndSplineSet
EndChar

StartChar: ucircumflex
Encoding: 251 251 187
Width: 845
GlyphClass: 2
Flags: W
LayerCount: 2
Fore
SplineSet
476 932 m 1,0,-1
 488 932 l 1,1,-1
 666 756 l 1,2,-1
 659 748 l 1,3,-1
 481 813 l 1,4,-1
 314 748 l 1,5,-1
 307 756 l 1,6,-1
 476 932 l 1,0,-1
825 690 m 1,7,-1
 809 690 l 2,8,9
 788 690 788 690 772.5 676.5 c 128,-1,10
 757 663 757 663 756 643 c 1,11,-1
 756 257 l 2,12,13
 756 130 756 130 677.5 58 c 128,-1,14
 599 -14 599 -14 457 -14 c 0,15,16
 336 -14 336 -14 255 19 c 0,17,18
 99 82 99 82 99 256 c 2,19,-1
 99 640 l 2,20,21
 99 670 99 670 73 684 c 0,22,23
 61 690 61 690 46 690 c 2,24,-1
 30 690 l 1,25,-1
 30 700 l 1,26,-1
 373 700 l 1,27,-1
 373 690 l 1,28,-1
 357 690 l 2,29,30
 335 690 335 690 320 676.5 c 128,-1,31
 305 663 305 663 304 642 c 1,32,-1
 304 260 l 2,33,34
 304 155 304 155 352 96 c 128,-1,35
 400 37 400 37 486 37 c 128,-1,36
 572 37 572 37 620.5 92.5 c 128,-1,37
 669 148 669 148 669 247 c 2,38,-1
 669 642 l 1,39,40
 668 663 668 663 653 676.5 c 128,-1,41
 638 690 638 690 616 690 c 2,42,-1
 600 690 l 1,43,-1
 600 700 l 1,44,-1
 825 700 l 1,45,-1
 825 690 l 1,7,-1
EndSplineSet
EndChar

StartChar: udieresis
Encoding: 252 252 188
Width: 845
GlyphClass: 2
Flags: W
LayerCount: 2
Fore
SplineSet
348.5 755 m 128,-1,1
 318 755 318 755 296 777 c 128,-1,2
 274 799 274 799 274 829.5 c 128,-1,3
 274 860 274 860 296 881.5 c 128,-1,4
 318 903 318 903 348.5 903 c 128,-1,5
 379 903 379 903 400.5 881.5 c 128,-1,6
 422 860 422 860 422 829.5 c 128,-1,7
 422 799 422 799 400.5 777 c 128,-1,0
 379 755 379 755 348.5 755 c 128,-1,1
610.5 755 m 128,-1,9
 580 755 580 755 558.5 777 c 128,-1,10
 537 799 537 799 537 829.5 c 128,-1,11
 537 860 537 860 558.5 881.5 c 128,-1,12
 580 903 580 903 610.5 903 c 128,-1,13
 641 903 641 903 662.5 881.5 c 128,-1,14
 684 860 684 860 684 829.5 c 128,-1,15
 684 799 684 799 662.5 777 c 128,-1,8
 641 755 641 755 610.5 755 c 128,-1,9
825 690 m 1,16,-1
 809 690 l 2,17,18
 788 690 788 690 772.5 676.5 c 128,-1,19
 757 663 757 663 756 643 c 1,20,-1
 756 257 l 2,21,22
 756 130 756 130 677.5 58 c 128,-1,23
 599 -14 599 -14 457 -14 c 0,24,25
 277 -14 277 -14 188 56 c 128,-1,26
 99 126 99 126 99 256 c 2,27,-1
 99 640 l 2,28,29
 99 662 99 662 83.5 676 c 128,-1,30
 68 690 68 690 46 690 c 2,31,-1
 30 690 l 1,32,-1
 30 700 l 1,33,-1
 373 700 l 1,34,-1
 373 690 l 1,35,-1
 357 690 l 2,36,37
 335 690 335 690 320 676.5 c 128,-1,38
 305 663 305 663 304 642 c 1,39,-1
 304 260 l 2,40,41
 304 155 304 155 352 96 c 128,-1,42
 400 37 400 37 486 37 c 128,-1,43
 572 37 572 37 620.5 92.5 c 128,-1,44
 669 148 669 148 669 247 c 2,45,-1
 669 642 l 1,46,47
 668 663 668 663 653 676.5 c 128,-1,48
 638 690 638 690 616 690 c 2,49,-1
 600 690 l 1,50,-1
 600 700 l 1,51,-1
 825 700 l 1,52,-1
 825 690 l 1,16,-1
EndSplineSet
EndChar

StartChar: yacute
Encoding: 253 253 189
Width: 729
GlyphClass: 2
Flags: W
LayerCount: 2
Fore
SplineSet
418 761 m 1,0,-1
 411 768 l 1,1,2
 430 812 430 812 476.5 864.5 c 128,-1,3
 523 917 523 917 566 954 c 1,4,5
 630 927 630 927 651 854 c 1,6,7
 601 821 601 821 536 794 c 128,-1,8
 471 767 471 767 418 761 c 1,0,-1
775 690 m 1,9,-1
 761 690 l 2,10,11
 731 690 731 690 703.5 673 c 128,-1,12
 676 656 676 656 660 631 c 2,13,-1
 464 322 l 1,14,-1
 464 73 l 2,15,16
 464 47 464 47 482.5 28.5 c 128,-1,17
 501 10 501 10 528 10 c 2,18,-1
 540 10 l 1,19,-1
 540 0 l 1,20,-1
 182 0 l 1,21,-1
 182 10 l 1,22,-1
 195 10 l 2,23,24
 221 10 221 10 239.5 28 c 128,-1,25
 258 46 258 46 259 72 c 1,26,-1
 259 322 l 1,27,-1
 68 633 l 2,28,29
 53 657 53 657 25.5 673.5 c 128,-1,30
 -2 690 -2 690 -31 690 c 2,31,-1
 -45 690 l 1,32,-1
 -45 700 l 1,33,-1
 341 700 l 1,34,-1
 341 690 l 1,35,-1
 329 690 l 2,36,37
 307 690 307 690 295 670 c 0,38,39
 289 659 289 659 289 648.5 c 128,-1,40
 289 638 289 638 294 628 c 2,41,-1
 431 381 l 1,42,-1
 573 628 l 2,43,44
 579 638 579 638 579 648.5 c 128,-1,45
 579 659 579 659 572 669 c 0,46,47
 559 690 559 690 538 690 c 2,48,-1
 526 690 l 1,49,-1
 526 700 l 1,50,-1
 775 700 l 1,51,-1
 775 690 l 1,9,-1
EndSplineSet
EndChar

StartChar: thorn
Encoding: 254 254 190
Width: 707
GlyphClass: 2
Flags: W
LayerCount: 2
Fore
SplineSet
693 353 m 0,0,1
 693 307 693 307 674.5 264 c 128,-1,2
 656 221 656 221 621 192 c 0,3,4
 558 141 558 141 487 141 c 0,5,6
 415 141 415 141 351 187 c 1,7,-1
 351 197 l 1,8,9
 387 203 387 203 405.5 216.5 c 128,-1,10
 424 230 424 230 435 241 c 0,11,12
 460 268 460 268 468.5 304 c 128,-1,13
 477 340 477 340 477 355 c 0,14,15
 477 434 477 434 443 471 c 128,-1,16
 409 508 409 508 352 508 c 2,17,-1
 325 508 l 1,18,-1
 325 73 l 2,19,20
 325 36 325 36 357 18 c 0,21,22
 371 10 371 10 389 10 c 2,23,-1
 401 10 l 1,24,-1
 401 0 l 1,25,-1
 43 0 l 1,26,-1
 43 10 l 1,27,-1
 55 10 l 2,28,29
 82 10 82 10 100.5 28.5 c 128,-1,30
 119 47 119 47 120 73 c 1,31,-1
 120 628 l 1,32,33
 119 654 119 654 100.5 672 c 128,-1,34
 82 690 82 690 56 690 c 2,35,-1
 43 690 l 1,36,-1
 43 700 l 1,37,-1
 401 700 l 1,38,-1
 401 690 l 1,39,-1
 389 690 l 2,40,41
 363 690 363 690 344 672 c 128,-1,42
 325 654 325 654 325 628 c 2,43,-1
 325 558 l 1,44,-1
 416 558 l 2,45,46
 582 558 582 558 650 479 c 0,47,48
 693 429 693 429 693 353 c 0,0,1
EndSplineSet
EndChar

StartChar: ydieresis
Encoding: 255 255 191
Width: 729
GlyphClass: 2
Flags: W
LayerCount: 2
Fore
SplineSet
300.5 755 m 128,-1,1
 270 755 270 755 248 777 c 128,-1,2
 226 799 226 799 226 829.5 c 128,-1,3
 226 860 226 860 248 881.5 c 128,-1,4
 270 903 270 903 300.5 903 c 128,-1,5
 331 903 331 903 352.5 881.5 c 128,-1,6
 374 860 374 860 374 829.5 c 128,-1,7
 374 799 374 799 352.5 777 c 128,-1,0
 331 755 331 755 300.5 755 c 128,-1,1
562.5 755 m 128,-1,9
 532 755 532 755 510.5 777 c 128,-1,10
 489 799 489 799 489 829.5 c 128,-1,11
 489 860 489 860 510.5 881.5 c 128,-1,12
 532 903 532 903 562.5 903 c 128,-1,13
 593 903 593 903 614.5 881.5 c 128,-1,14
 636 860 636 860 636 829.5 c 128,-1,15
 636 799 636 799 614.5 777 c 128,-1,8
 593 755 593 755 562.5 755 c 128,-1,9
775 690 m 1,16,-1
 761 690 l 2,17,18
 731 690 731 690 703.5 673 c 128,-1,19
 676 656 676 656 660 631 c 2,20,-1
 464 322 l 1,21,-1
 464 73 l 2,22,23
 464 47 464 47 482.5 28.5 c 128,-1,24
 501 10 501 10 528 10 c 2,25,-1
 540 10 l 1,26,-1
 540 0 l 1,27,-1
 182 0 l 1,28,-1
 182 10 l 1,29,-1
 195 10 l 2,30,31
 221 10 221 10 239.5 28 c 128,-1,32
 258 46 258 46 259 72 c 1,33,-1
 259 322 l 1,34,-1
 68 633 l 2,35,36
 53 657 53 657 25.5 673.5 c 128,-1,37
 -2 690 -2 690 -31 690 c 2,38,-1
 -45 690 l 1,39,-1
 -45 700 l 1,40,-1
 341 700 l 1,41,-1
 341 690 l 1,42,-1
 329 690 l 2,43,44
 307 690 307 690 295 670 c 0,45,46
 288 659 288 659 288 648.5 c 128,-1,47
 288 638 288 638 294 628 c 2,48,-1
 431 381 l 1,49,-1
 573 628 l 2,50,51
 579 638 579 638 579 648 c 128,-1,52
 579 658 579 658 572 669 c 0,53,54
 559 690 559 690 538 690 c 2,55,-1
 526 690 l 1,56,-1
 526 700 l 1,57,-1
 775 700 l 1,58,-1
 775 690 l 1,16,-1
EndSplineSet
EndChar

